<svg width="253" height="71" viewBox="0 0 253 71" fill="none" xmlns="http://www.w3.org/2000/svg">
    <path
        d="M77.9949 25.1818V31H76.7648V26.3494H76.7307L75.3983 27.1847V26.0938L76.8386 25.1818H77.9949Z"
        fill="#805EE9" />
    <path
        d="M54.8881 21.5076C54.4954 20.8409 54.976 20 55.7497 20H95.0104C95.3645 20 95.6922 20.1873 95.872 20.4924L99.701 26.9924C99.8855 27.3057 99.8855 27.6943 99.701 28.0076L95.872 34.5076C95.6922 34.8127 95.3645 35 95.0104 35H55.7497C54.976 35 54.4954 34.1591 54.8881 33.4924L58.1191 28.0076C58.3036 27.6943 58.3036 27.3057 58.1191 26.9924L54.8881 21.5076Z"
        stroke="#805EE9" stroke-linejoin="round" />
    <rect x="54" y="46" width="40" height="2.8" fill="#805EE9" fill-opacity="0.4" />
    <rect x="54" y="41" width="38" height="3" fill="#805EE9" fill-opacity="0.4" />
    <rect x="54" y="51" width="34" height="2.8" fill="#805EE9" fill-opacity="0.4" />
    <path
        d="M123.901 31V30.1136L125.972 28.196C126.148 28.0256 126.296 27.8722 126.415 27.7358C126.537 27.5994 126.628 27.4659 126.691 27.3352C126.753 27.2027 126.785 27.0597 126.785 26.9062C126.785 26.7358 126.746 26.589 126.668 26.4659C126.591 26.3409 126.484 26.2453 126.35 26.179C126.216 26.1108 126.063 26.0767 125.893 26.0767C125.715 26.0767 125.559 26.1127 125.427 26.1847C125.294 26.2566 125.192 26.3598 125.12 26.4943C125.048 26.6288 125.012 26.7888 125.012 26.9744H123.844C123.844 26.5937 123.93 26.2633 124.103 25.983C124.275 25.7027 124.517 25.4858 124.827 25.3324C125.138 25.179 125.496 25.1023 125.901 25.1023C126.318 25.1023 126.68 25.1761 126.989 25.3239C127.3 25.4697 127.541 25.6723 127.714 25.9318C127.886 26.1913 127.972 26.4886 127.972 26.8239C127.972 27.0436 127.929 27.2604 127.841 27.4744C127.756 27.6884 127.604 27.9261 127.384 28.1875C127.164 28.447 126.855 28.7585 126.455 29.1222L125.606 29.9545V29.9943H128.049V31H123.901Z"
        fill="#805EE9" />
    <path
        d="M174.934 31.0795C174.51 31.0795 174.132 31.0066 173.801 30.8608C173.471 30.7131 173.211 30.5104 173.02 30.2528C172.83 29.9934 172.733 29.6941 172.727 29.3551H173.966C173.973 29.4972 174.02 29.6222 174.105 29.7301C174.192 29.8362 174.308 29.9186 174.452 29.9773C174.595 30.036 174.757 30.0653 174.937 30.0653C175.125 30.0653 175.291 30.0322 175.434 29.9659C175.578 29.8996 175.691 29.8078 175.773 29.6903C175.854 29.5729 175.895 29.4375 175.895 29.2841C175.895 29.1288 175.851 28.9915 175.764 28.8722C175.679 28.7509 175.556 28.6562 175.395 28.5881C175.236 28.5199 175.046 28.4858 174.827 28.4858H174.284V27.5824H174.827C175.012 27.5824 175.176 27.5502 175.318 27.4858C175.462 27.4214 175.574 27.3324 175.653 27.2188C175.733 27.1032 175.773 26.9688 175.773 26.8153C175.773 26.6695 175.738 26.5417 175.667 26.4318C175.599 26.3201 175.503 26.233 175.378 26.1705C175.255 26.108 175.111 26.0767 174.946 26.0767C174.779 26.0767 174.627 26.107 174.488 26.1676C174.35 26.2263 174.239 26.3106 174.156 26.4205C174.073 26.5303 174.028 26.6591 174.023 26.8068H172.844C172.849 26.4716 172.945 26.1761 173.131 25.9205C173.316 25.6648 173.566 25.465 173.881 25.321C174.197 25.1752 174.554 25.1023 174.952 25.1023C175.353 25.1023 175.704 25.1752 176.006 25.321C176.307 25.4669 176.541 25.6638 176.707 25.9119C176.876 26.1581 176.959 26.4347 176.957 26.7415C176.959 27.0672 176.858 27.339 176.653 27.5568C176.451 27.7746 176.186 27.9129 175.861 27.9716V28.017C176.289 28.072 176.614 28.2206 176.838 28.4631C177.063 28.7036 177.175 29.0047 177.173 29.3665C177.175 29.6979 177.079 29.9924 176.886 30.25C176.695 30.5076 176.431 30.7102 176.094 30.858C175.756 31.0057 175.37 31.0795 174.934 31.0795Z"
        fill="#805EE9" />
    <path
        d="M103.888 21.5076C103.495 20.8409 103.976 20 104.75 20H144.01C144.364 20 144.692 20.1873 144.872 20.4924L148.701 26.9924C148.886 27.3057 148.886 27.6943 148.701 28.0076L144.872 34.5076C144.692 34.8127 144.364 35 144.01 35H104.75C103.976 35 103.495 34.1591 103.888 33.4924L107.119 28.0076C107.304 27.6943 107.304 27.3057 107.119 26.9924L103.888 21.5076Z"
        stroke="#805EE9" stroke-linejoin="round" />
    <path
        d="M152.888 21.5076C152.495 20.8409 152.976 20 153.75 20H193.01C193.364 20 193.692 20.1873 193.872 20.4924L197.701 26.9924C197.886 27.3057 197.886 27.6943 197.701 28.0076L193.872 34.5076C193.692 34.8127 193.364 35 193.01 35H153.75C152.976 35 152.495 34.1591 152.888 33.4924L156.119 28.0076C156.304 27.6943 156.304 27.3057 156.119 26.9924L152.888 21.5076Z"
        stroke="#805EE9" stroke-linejoin="round" />
    <rect x="103" y="46" width="40" height="2.8" fill="#805EE9" fill-opacity="0.4" />
    <rect x="152" y="46" width="40" height="2.8" fill="#805EE9" fill-opacity="0.4" />
    <rect x="103" y="41" width="38" height="3" fill="#805EE9" fill-opacity="0.4" />
    <rect x="152" y="41" width="38" height="3" fill="#805EE9" fill-opacity="0.4" />
    <rect x="103" y="51" width="34" height="2.8" fill="#805EE9" fill-opacity="0.4" />
    <rect x="152" y="51" width="34" height="2.8" fill="#805EE9" fill-opacity="0.4" />
</svg>