<svg width="253" height="97" viewBox="0 0 253 97" fill="none" xmlns="http://www.w3.org/2000/svg">
    <path
        d="M58.4949 23.6818V29.5H57.2648V24.8494H57.2307L55.8983 25.6847V24.5938L57.3386 23.6818H58.4949Z"
        fill="#805EE9" />
    <path
        d="M55.4011 52.5V51.6136L57.4721 49.696C57.6483 49.5256 57.796 49.3722 57.9153 49.2358C58.0365 49.0994 58.1284 48.9659 58.1909 48.8352C58.2534 48.7027 58.2846 48.5597 58.2846 48.4062C58.2846 48.2358 58.2458 48.089 58.1682 47.9659C58.0905 47.8409 57.9844 47.7453 57.85 47.679C57.7155 47.6108 57.563 47.5767 57.3926 47.5767C57.2146 47.5767 57.0593 47.6127 56.9267 47.6847C56.7941 47.7566 56.6918 47.8598 56.6199 47.9943C56.5479 48.1288 56.5119 48.2888 56.5119 48.4744H55.3443C55.3443 48.0937 55.4305 47.7633 55.6028 47.483C55.7752 47.2027 56.0166 46.9858 56.3273 46.8324C56.6379 46.679 56.9958 46.6023 57.4011 46.6023C57.8178 46.6023 58.1805 46.6761 58.4892 46.8239C58.7998 46.9697 59.0413 47.1723 59.2136 47.4318C59.386 47.6913 59.4721 47.9886 59.4721 48.3239C59.4721 48.5436 59.4286 48.7604 59.3415 48.9744C59.2562 49.1884 59.1038 49.4261 58.8841 49.6875C58.6644 49.947 58.3547 50.2585 57.9551 50.6222L57.1057 51.4545V51.4943H59.5488V52.5H55.4011Z"
        fill="#805EE9" />
    <path
        d="M57.4345 75.5795C57.0103 75.5795 56.6324 75.5066 56.301 75.3608C55.9714 75.2131 55.711 75.0104 55.5197 74.7528C55.3303 74.4934 55.2328 74.1941 55.2271 73.8551H56.4657C56.4733 73.9972 56.5197 74.1222 56.605 74.2301C56.6921 74.3362 56.8076 74.4186 56.9515 74.4773C57.0955 74.536 57.2574 74.5653 57.4373 74.5653C57.6248 74.5653 57.7906 74.5322 57.9345 74.4659C58.0784 74.3996 58.1911 74.3078 58.2726 74.1903C58.354 74.0729 58.3947 73.9375 58.3947 73.7841C58.3947 73.6288 58.3512 73.4915 58.264 73.3722C58.1788 73.2509 58.0557 73.1562 57.8947 73.0881C57.7356 73.0199 57.5462 72.9858 57.3265 72.9858H56.7839V72.0824H57.3265C57.5121 72.0824 57.676 72.0502 57.818 71.9858C57.962 71.9214 58.0737 71.8324 58.1532 71.7188C58.2328 71.6032 58.2726 71.4688 58.2726 71.3153C58.2726 71.1695 58.2375 71.0417 58.1675 70.9318C58.0993 70.8201 58.0027 70.733 57.8777 70.6705C57.7546 70.608 57.6106 70.5767 57.4459 70.5767C57.2792 70.5767 57.1267 70.607 56.9885 70.6676C56.8502 70.7263 56.7394 70.8106 56.6561 70.9205C56.5728 71.0303 56.5282 71.1591 56.5226 71.3068H55.3436C55.3493 70.9716 55.4449 70.6761 55.6305 70.4205C55.8161 70.1648 56.0661 69.965 56.3805 69.821C56.6968 69.6752 57.0538 69.6023 57.4515 69.6023C57.8531 69.6023 58.2044 69.6752 58.5055 69.821C58.8067 69.9669 59.0406 70.1638 59.2072 70.4119C59.3758 70.6581 59.4591 70.9347 59.4572 71.2415C59.4591 71.5672 59.3578 71.839 59.1532 72.0568C58.9506 72.2746 58.6864 72.4129 58.3606 72.4716V72.517C58.7887 72.572 59.1144 72.7206 59.3379 72.9631C59.5633 73.2036 59.675 73.5047 59.6731 73.8665C59.675 74.1979 59.5794 74.4924 59.3862 74.75C59.1949 75.0076 58.9307 75.2102 58.5936 75.358C58.2565 75.5057 57.8701 75.5795 57.4345 75.5795Z"
        fill="#805EE9" />
    <path
        d="M63.4924 15.8881C64.1591 15.4954 65 15.976 65 16.7497L65 33.0104C65 33.3645 64.8127 33.6922 64.5076 33.872L58.0076 37.701C57.6943 37.8855 57.3057 37.8855 56.9924 37.701L50.4924 33.872C50.1873 33.6922 50 33.3645 50 33.0104L50 16.7497C50 15.976 50.8409 15.4954 51.5076 15.8881L56.9924 19.1191C57.3057 19.3036 57.6943 19.3036 58.0076 19.1191L63.4924 15.8881Z"
        stroke="#805EE9" stroke-linejoin="round" />
    <path
        d="M63.4924 38.8881C64.1591 38.4954 65 38.976 65 39.7497L65 56.0104C65 56.3645 64.8127 56.6922 64.5076 56.872L58.0076 60.701C57.6943 60.8855 57.3057 60.8855 56.9924 60.701L50.4924 56.872C50.1873 56.6922 50 56.3645 50 56.0104L50 39.7497C50 38.976 50.8409 38.4954 51.5076 38.8881L56.9924 42.1191C57.3057 42.3036 57.6943 42.3036 58.0076 42.1191L63.4924 38.8881Z"
        stroke="#805EE9" stroke-linejoin="round" />
    <path
        d="M63.4924 61.8881C64.1591 61.4954 65 61.976 65 62.7497L65 79.0104C65 79.3645 64.8127 79.6922 64.5076 79.872L58.0076 83.701C57.6943 83.8855 57.3057 83.8855 56.9924 83.701L50.4924 79.872C50.1873 79.6922 50 79.3645 50 79.0104L50 62.7497C50 61.976 50.8409 61.4954 51.5076 61.8881L56.9924 65.1191C57.3057 65.3036 57.6943 65.3036 58.0076 65.1191L63.4924 61.8881Z"
        stroke="#805EE9" stroke-linejoin="round" />
    <rect x="73" y="24" width="130" height="3" fill="#805EE9" fill-opacity="0.4" />
    <rect x="73" y="47" width="130" height="3" fill="#805EE9" fill-opacity="0.4" />
    <rect x="73" y="70" width="130" height="3" fill="#805EE9" fill-opacity="0.4" />
    <rect x="73" y="19" width="123" height="3" fill="#805EE9" fill-opacity="0.4" />
    <rect x="73" y="42" width="123" height="3" fill="#805EE9" fill-opacity="0.4" />
    <rect x="73" y="65" width="123" height="3" fill="#805EE9" fill-opacity="0.4" />
    <rect x="73" y="29" width="110" height="3" fill="#805EE9" fill-opacity="0.4" />
    <rect x="73" y="52" width="110" height="3" fill="#805EE9" fill-opacity="0.4" />
    <rect x="73" y="75" width="110" height="3" fill="#805EE9" fill-opacity="0.4" />
</svg>