<svg width="253" height="76" viewBox="0 0 253 76" fill="none" xmlns="http://www.w3.org/2000/svg">
    <rect x="42" y="22" width="50" height="7" rx="1" fill="#805EE9" fill-opacity="0.4" />
    <rect x="42" y="22" width="31" height="7" rx="1" fill="#805EE9" />
    <rect x="101" y="22" width="50" height="7" rx="1" fill="#805EE9" fill-opacity="0.4" />
    <rect x="160" y="22" width="50" height="7" rx="1" fill="#805EE9" fill-opacity="0.4" />
    <rect x="101" y="22" width="40" height="7" rx="1" fill="#805EE9" />
    <rect x="160" y="22" width="14" height="7" rx="1" fill="#805EE9" />
    <rect x="42" y="50.7998" width="50" height="2.8" fill="#805EE9" fill-opacity="0.4" />
    <rect x="101" y="50.7998" width="50" height="2.8" fill="#805EE9" fill-opacity="0.4" />
    <rect x="160" y="50.7998" width="50" height="2.8" fill="#805EE9" fill-opacity="0.4" />
    <rect x="42" y="55.5996" width="43" height="2.8" fill="#805EE9" fill-opacity="0.4" />
    <rect x="101" y="55.6001" width="43" height="2.8" fill="#805EE9" fill-opacity="0.4" />
    <rect x="160" y="55.6001" width="43" height="2.8" fill="#805EE9" fill-opacity="0.4" />
    <path
        d="M43.8947 34.5953L45.1863 36.7782H45.2363L46.5341 34.5953H48.0634L46.1088 37.7977L48.1072 41H46.5498L45.2363 38.814H45.1863L43.8728 41H42.3217L44.3263 37.7977L42.3592 34.5953H43.8947ZM52.3884 39.7991V39.4614C52.3884 39.2049 52.4426 38.9693 52.551 38.7546C52.6615 38.5378 52.821 38.3647 53.0295 38.2355C53.2401 38.1041 53.4965 38.0385 53.7988 38.0385C54.1053 38.0385 54.3628 38.1031 54.5713 38.2323C54.7818 38.3616 54.9403 38.5347 55.0466 38.7515C55.155 38.9662 55.2092 39.2029 55.2092 39.4614V39.7991C55.2092 40.0556 55.155 40.2922 55.0466 40.509C54.9382 40.7238 54.7787 40.8958 54.5681 41.025C54.3576 41.1564 54.1011 41.222 53.7988 41.222C53.4924 41.222 53.2349 41.1564 53.0264 41.025C52.8179 40.8958 52.6595 40.7238 52.551 40.509C52.4426 40.2922 52.3884 40.0556 52.3884 39.7991ZM53.2985 39.4614V39.7991C53.2985 39.9471 53.3339 40.0868 53.4048 40.2182C53.4778 40.3495 53.6091 40.4152 53.7988 40.4152C53.9886 40.4152 54.1178 40.3506 54.1866 40.2213C54.2575 40.092 54.2929 39.9513 54.2929 39.7991V39.4614C54.2929 39.3092 54.2596 39.1674 54.1929 39.0361C54.1262 38.9047 53.9948 38.839 53.7988 38.839C53.6112 38.839 53.4809 38.9047 53.4079 39.0361C53.3349 39.1674 53.2985 39.3092 53.2985 39.4614ZM49.1016 36.1339V35.7962C49.1016 35.5377 49.1569 35.301 49.2674 35.0863C49.3779 34.8695 49.5374 34.6964 49.7459 34.5672C49.9564 34.4379 50.2108 34.3733 50.5089 34.3733C50.8175 34.3733 51.076 34.4379 51.2845 34.5672C51.493 34.6964 51.6514 34.8695 51.7598 35.0863C51.8682 35.301 51.9225 35.5377 51.9225 35.7962V36.1339C51.9225 36.3925 51.8672 36.6291 51.7567 36.8438C51.6483 37.0586 51.4888 37.2306 51.2782 37.3598C51.0697 37.487 50.8133 37.5506 50.5089 37.5506C50.2045 37.5506 49.947 37.486 49.7365 37.3567C49.528 37.2254 49.3695 37.0534 49.2611 36.8407C49.1548 36.626 49.1016 36.3904 49.1016 36.1339ZM50.0179 35.7962V36.1339C50.0179 36.2861 50.0534 36.4269 50.1243 36.5561C50.1972 36.6854 50.3255 36.75 50.5089 36.75C50.7007 36.75 50.831 36.6854 50.8998 36.5561C50.9707 36.4269 51.0062 36.2861 51.0062 36.1339V35.7962C51.0062 35.644 50.9728 35.5022 50.9061 35.3709C50.8394 35.2395 50.707 35.1739 50.5089 35.1739C50.3234 35.1739 50.1951 35.2406 50.1243 35.374C50.0534 35.5074 50.0179 35.6482 50.0179 35.7962ZM49.5144 41L53.9177 34.5953H54.737L50.3338 41H49.5144Z"
        fill="#805EE9" />
    <path
        d="M102.895 34.5953L104.186 36.7782H104.236L105.534 34.5953H107.063L105.109 37.7977L107.107 41H105.55L104.236 38.814H104.186L102.873 41H101.322L103.326 37.7977L101.359 34.5953H102.895ZM111.388 39.7991V39.4614C111.388 39.2049 111.443 38.9693 111.551 38.7546C111.662 38.5378 111.821 38.3647 112.03 38.2355C112.24 38.1041 112.497 38.0385 112.799 38.0385C113.105 38.0385 113.363 38.1031 113.571 38.2323C113.782 38.3616 113.94 38.5347 114.047 38.7515C114.155 38.9662 114.209 39.2029 114.209 39.4614V39.7991C114.209 40.0556 114.155 40.2922 114.047 40.509C113.938 40.7238 113.779 40.8958 113.568 41.025C113.358 41.1564 113.101 41.222 112.799 41.222C112.492 41.222 112.235 41.1564 112.026 41.025C111.818 40.8958 111.659 40.7238 111.551 40.509C111.443 40.2922 111.388 40.0556 111.388 39.7991ZM112.298 39.4614V39.7991C112.298 39.9471 112.334 40.0868 112.405 40.2182C112.478 40.3495 112.609 40.4152 112.799 40.4152C112.989 40.4152 113.118 40.3506 113.187 40.2213C113.257 40.092 113.293 39.9513 113.293 39.7991V39.4614C113.293 39.3092 113.26 39.1674 113.193 39.0361C113.126 38.9047 112.995 38.839 112.799 38.839C112.611 38.839 112.481 38.9047 112.408 39.0361C112.335 39.1674 112.298 39.3092 112.298 39.4614ZM108.102 36.1339V35.7962C108.102 35.5377 108.157 35.301 108.267 35.0863C108.378 34.8695 108.537 34.6964 108.746 34.5672C108.956 34.4379 109.211 34.3733 109.509 34.3733C109.817 34.3733 110.076 34.4379 110.284 34.5672C110.493 34.6964 110.651 34.8695 110.76 35.0863C110.868 35.301 110.922 35.5377 110.922 35.7962V36.1339C110.922 36.3925 110.867 36.6291 110.757 36.8438C110.648 37.0586 110.489 37.2306 110.278 37.3598C110.07 37.487 109.813 37.5506 109.509 37.5506C109.205 37.5506 108.947 37.486 108.736 37.3567C108.528 37.2254 108.37 37.0534 108.261 36.8407C108.155 36.626 108.102 36.3904 108.102 36.1339ZM109.018 35.7962V36.1339C109.018 36.2861 109.053 36.4269 109.124 36.5561C109.197 36.6854 109.325 36.75 109.509 36.75C109.701 36.75 109.831 36.6854 109.9 36.5561C109.971 36.4269 110.006 36.2861 110.006 36.1339V35.7962C110.006 35.644 109.973 35.5022 109.906 35.3709C109.839 35.2395 109.707 35.1739 109.509 35.1739C109.323 35.1739 109.195 35.2406 109.124 35.374C109.053 35.5074 109.018 35.6482 109.018 35.7962ZM108.514 41L112.918 34.5953H113.737L109.334 41H108.514Z"
        fill="#805EE9" />
    <path
        d="M161.895 34.5953L163.186 36.7782H163.236L164.534 34.5953H166.063L164.109 37.7977L166.107 41H164.55L163.236 38.814H163.186L161.873 41H160.322L162.326 37.7977L160.359 34.5953H161.895ZM170.388 39.7991V39.4614C170.388 39.2049 170.443 38.9693 170.551 38.7546C170.662 38.5378 170.821 38.3647 171.03 38.2355C171.24 38.1041 171.497 38.0385 171.799 38.0385C172.105 38.0385 172.363 38.1031 172.571 38.2323C172.782 38.3616 172.94 38.5347 173.047 38.7515C173.155 38.9662 173.209 39.2029 173.209 39.4614V39.7991C173.209 40.0556 173.155 40.2922 173.047 40.509C172.938 40.7238 172.779 40.8958 172.568 41.025C172.358 41.1564 172.101 41.222 171.799 41.222C171.492 41.222 171.235 41.1564 171.026 41.025C170.818 40.8958 170.659 40.7238 170.551 40.509C170.443 40.2922 170.388 40.0556 170.388 39.7991ZM171.298 39.4614V39.7991C171.298 39.9471 171.334 40.0868 171.405 40.2182C171.478 40.3495 171.609 40.4152 171.799 40.4152C171.989 40.4152 172.118 40.3506 172.187 40.2213C172.257 40.092 172.293 39.9513 172.293 39.7991V39.4614C172.293 39.3092 172.26 39.1674 172.193 39.0361C172.126 38.9047 171.995 38.839 171.799 38.839C171.611 38.839 171.481 38.9047 171.408 39.0361C171.335 39.1674 171.298 39.3092 171.298 39.4614ZM167.102 36.1339V35.7962C167.102 35.5377 167.157 35.301 167.267 35.0863C167.378 34.8695 167.537 34.6964 167.746 34.5672C167.956 34.4379 168.211 34.3733 168.509 34.3733C168.817 34.3733 169.076 34.4379 169.284 34.5672C169.493 34.6964 169.651 34.8695 169.76 35.0863C169.868 35.301 169.922 35.5377 169.922 35.7962V36.1339C169.922 36.3925 169.867 36.6291 169.757 36.8438C169.648 37.0586 169.489 37.2306 169.278 37.3598C169.07 37.487 168.813 37.5506 168.509 37.5506C168.205 37.5506 167.947 37.486 167.736 37.3567C167.528 37.2254 167.37 37.0534 167.261 36.8407C167.155 36.626 167.102 36.3904 167.102 36.1339ZM168.018 35.7962V36.1339C168.018 36.2861 168.053 36.4269 168.124 36.5561C168.197 36.6854 168.325 36.75 168.509 36.75C168.701 36.75 168.831 36.6854 168.9 36.5561C168.971 36.4269 169.006 36.2861 169.006 36.1339V35.7962C169.006 35.644 168.973 35.5022 168.906 35.3709C168.839 35.2395 168.707 35.1739 168.509 35.1739C168.323 35.1739 168.195 35.2406 168.124 35.374C168.053 35.5074 168.018 35.6482 168.018 35.7962ZM167.514 41L171.918 34.5953H172.737L168.334 41H167.514Z"
        fill="#805EE9" />
    <rect x="42" y="46" width="50" height="2.8" fill="#805EE9" fill-opacity="0.4" />
    <rect x="101" y="46" width="50" height="2.8" fill="#805EE9" fill-opacity="0.4" />
    <rect x="160" y="46" width="50" height="2.8" fill="#805EE9" fill-opacity="0.4" />
</svg>