<svg width="253" height="65" viewBox="0 0 253 65" fill="none" xmlns="http://www.w3.org/2000/svg">
    <path
        d="M67.3948 17.3636L69.7414 21.3295H69.8323L72.1903 17.3636H74.9687L71.4176 23.1818L75.0483 29H72.2187L69.8323 25.0284H69.7414L67.3551 29H64.5369L68.1789 23.1818L64.6051 17.3636H67.3948ZM82.8267 26.8182V26.2045C82.8267 25.7386 82.9251 25.3106 83.1221 24.9205C83.3229 24.5265 83.6126 24.2121 83.9914 23.9773C84.374 23.7386 84.8399 23.6193 85.3892 23.6193C85.946 23.6193 86.4138 23.7367 86.7926 23.9716C87.1751 24.2064 87.463 24.5208 87.6562 24.9148C87.8532 25.3049 87.9517 25.7348 87.9517 26.2045V26.8182C87.9517 27.2841 87.8532 27.714 87.6562 28.108C87.4592 28.4981 87.1695 28.8106 86.7869 29.0455C86.4043 29.2841 85.9384 29.4034 85.3892 29.4034C84.8323 29.4034 84.3645 29.2841 83.9858 29.0455C83.607 28.8106 83.3191 28.4981 83.1221 28.108C82.9251 27.714 82.8267 27.2841 82.8267 26.8182ZM84.4801 26.2045V26.8182C84.4801 27.0871 84.5445 27.3409 84.6733 27.5795C84.8058 27.8182 85.0445 27.9375 85.3892 27.9375C85.7339 27.9375 85.9687 27.8201 86.0937 27.5852C86.2225 27.3504 86.2869 27.0947 86.2869 26.8182V26.2045C86.2869 25.928 86.2263 25.6705 86.1051 25.4318C85.9839 25.1932 85.7452 25.0739 85.3892 25.0739C85.0483 25.0739 84.8115 25.1932 84.6789 25.4318C84.5464 25.6705 84.4801 25.928 84.4801 26.2045ZM76.8551 20.1591V19.5455C76.8551 19.0758 76.9554 18.6458 77.1562 18.2557C77.357 17.8617 77.6467 17.5473 78.0255 17.3125C78.4081 17.0777 78.8702 16.9602 79.4119 16.9602C79.9725 16.9602 80.4422 17.0777 80.821 17.3125C81.1998 17.5473 81.4876 17.8617 81.6846 18.2557C81.8816 18.6458 81.9801 19.0758 81.9801 19.5455V20.1591C81.9801 20.6288 81.8797 21.0587 81.6789 21.4489C81.482 21.839 81.1922 22.1515 80.8096 22.3864C80.4308 22.6174 79.9649 22.733 79.4119 22.733C78.8589 22.733 78.3911 22.6155 78.0085 22.3807C77.6297 22.142 77.3418 21.8295 77.1448 21.4432C76.9517 21.053 76.8551 20.625 76.8551 20.1591ZM78.5198 19.5455V20.1591C78.5198 20.4356 78.5842 20.6913 78.713 20.9261C78.8456 21.161 79.0786 21.2784 79.4119 21.2784C79.7604 21.2784 79.9971 21.161 80.1221 20.9261C80.2509 20.6913 80.3153 20.4356 80.3153 20.1591V19.5455C80.3153 19.2689 80.2547 19.0114 80.1335 18.7727C80.0123 18.5341 79.7717 18.4148 79.4119 18.4148C79.0748 18.4148 78.8418 18.536 78.713 18.7784C78.5842 19.0208 78.5198 19.2765 78.5198 19.5455ZM77.6051 29L85.6051 17.3636H87.0937L79.0937 29H77.6051Z"
        fill="#805EE9" />
    <path
        d="M118.724 17.3636L121.071 21.3295H121.162L123.52 17.3636H126.298L122.747 23.1818L126.378 29H123.548L121.162 25.0284H121.071L118.685 29H115.866L119.509 23.1818L115.935 17.3636H118.724ZM134.156 26.8182V26.2045C134.156 25.7386 134.255 25.3106 134.452 24.9205C134.652 24.5265 134.942 24.2121 135.321 23.9773C135.704 23.7386 136.17 23.6193 136.719 23.6193C137.276 23.6193 137.743 23.7367 138.122 23.9716C138.505 24.2064 138.793 24.5208 138.986 24.9148C139.183 25.3049 139.281 25.7348 139.281 26.2045V26.8182C139.281 27.2841 139.183 27.714 138.986 28.108C138.789 28.4981 138.499 28.8106 138.116 29.0455C137.734 29.2841 137.268 29.4034 136.719 29.4034C136.162 29.4034 135.694 29.2841 135.315 29.0455C134.937 28.8106 134.649 28.4981 134.452 28.108C134.255 27.714 134.156 27.2841 134.156 26.8182ZM135.81 26.2045V26.8182C135.81 27.0871 135.874 27.3409 136.003 27.5795C136.135 27.8182 136.374 27.9375 136.719 27.9375C137.063 27.9375 137.298 27.8201 137.423 27.5852C137.552 27.3504 137.616 27.0947 137.616 26.8182V26.2045C137.616 25.928 137.556 25.6705 137.435 25.4318C137.313 25.1932 137.075 25.0739 136.719 25.0739C136.378 25.0739 136.141 25.1932 136.009 25.4318C135.876 25.6705 135.81 25.928 135.81 26.2045ZM128.185 20.1591V19.5455C128.185 19.0758 128.285 18.6458 128.486 18.2557C128.687 17.8617 128.976 17.5473 129.355 17.3125C129.738 17.0777 130.2 16.9602 130.741 16.9602C131.302 16.9602 131.772 17.0777 132.151 17.3125C132.529 17.5473 132.817 17.8617 133.014 18.2557C133.211 18.6458 133.31 19.0758 133.31 19.5455V20.1591C133.31 20.6288 133.209 21.0587 133.009 21.4489C132.812 21.839 132.522 22.1515 132.139 22.3864C131.76 22.6174 131.295 22.733 130.741 22.733C130.188 22.733 129.721 22.6155 129.338 22.3807C128.959 22.142 128.671 21.8295 128.474 21.4432C128.281 21.053 128.185 20.625 128.185 20.1591ZM129.849 19.5455V20.1591C129.849 20.4356 129.914 20.6913 130.043 20.9261C130.175 21.161 130.408 21.2784 130.741 21.2784C131.09 21.2784 131.327 21.161 131.452 20.9261C131.58 20.6913 131.645 20.4356 131.645 20.1591V19.5455C131.645 19.2689 131.584 19.0114 131.463 18.7727C131.342 18.5341 131.101 18.4148 130.741 18.4148C130.404 18.4148 130.171 18.536 130.043 18.7784C129.914 19.0208 129.849 19.2765 129.849 19.5455ZM128.935 29L136.935 17.3636H138.423L130.423 29H128.935Z"
        fill="#805EE9" />
    <rect x="163" y="38.7085" width="33" height="2.8" fill="#805EE9" fill-opacity="0.4" />
    <rect x="110" y="38.7085" width="33" height="2.8" fill="#805EE9" fill-opacity="0.4" />
    <rect x="57" y="38.7085" width="33" height="2.8" fill="#805EE9" fill-opacity="0.4" />
    <rect x="163" y="48.7085" width="33" height="2.8" fill="#805EE9" fill-opacity="0.4" />
    <rect x="110" y="48.7085" width="33" height="2.8" fill="#805EE9" fill-opacity="0.4" />
    <rect x="57" y="48.7085" width="33" height="2.8" fill="#805EE9" fill-opacity="0.4" />
    <rect x="161" y="43.7085" width="37" height="2.8" fill="#805EE9" fill-opacity="0.4" />
    <rect x="108" y="43.7085" width="37" height="2.8" fill="#805EE9" fill-opacity="0.4" />
    <rect x="55" y="43.7085" width="37" height="2.8" fill="#805EE9" fill-opacity="0.4" />
    <path
        d="M170.055 17.3636L172.401 21.3295H172.492L174.85 17.3636H177.628L174.077 23.1818L177.708 29H174.878L172.492 25.0284H172.401L170.015 29H167.197L170.839 23.1818L167.265 17.3636H170.055ZM185.486 26.8182V26.2045C185.486 25.7386 185.585 25.3106 185.782 24.9205C185.983 24.5265 186.272 24.2121 186.651 23.9773C187.034 23.7386 187.5 23.6193 188.049 23.6193C188.606 23.6193 189.073 23.7367 189.452 23.9716C189.835 24.2064 190.123 24.5208 190.316 24.9148C190.513 25.3049 190.611 25.7348 190.611 26.2045V26.8182C190.611 27.2841 190.513 27.714 190.316 28.108C190.119 28.4981 189.829 28.8106 189.447 29.0455C189.064 29.2841 188.598 29.4034 188.049 29.4034C187.492 29.4034 187.024 29.2841 186.645 29.0455C186.267 28.8106 185.979 28.4981 185.782 28.108C185.585 27.714 185.486 27.2841 185.486 26.8182ZM187.14 26.2045V26.8182C187.14 27.0871 187.204 27.3409 187.333 27.5795C187.465 27.8182 187.704 27.9375 188.049 27.9375C188.394 27.9375 188.628 27.8201 188.753 27.5852C188.882 27.3504 188.947 27.0947 188.947 26.8182V26.2045C188.947 25.928 188.886 25.6705 188.765 25.4318C188.644 25.1932 188.405 25.0739 188.049 25.0739C187.708 25.0739 187.471 25.1932 187.339 25.4318C187.206 25.6705 187.14 25.928 187.14 26.2045ZM179.515 20.1591V19.5455C179.515 19.0758 179.615 18.6458 179.816 18.2557C180.017 17.8617 180.306 17.5473 180.685 17.3125C181.068 17.0777 181.53 16.9602 182.072 16.9602C182.632 16.9602 183.102 17.0777 183.481 17.3125C183.859 17.5473 184.147 17.8617 184.344 18.2557C184.541 18.6458 184.64 19.0758 184.64 19.5455V20.1591C184.64 20.6288 184.539 21.0587 184.339 21.4489C184.142 21.839 183.852 22.1515 183.469 22.3864C183.09 22.6174 182.625 22.733 182.072 22.733C181.519 22.733 181.051 22.6155 180.668 22.3807C180.289 22.142 180.001 21.8295 179.805 21.4432C179.611 21.053 179.515 20.625 179.515 20.1591ZM181.18 19.5455V20.1591C181.18 20.4356 181.244 20.6913 181.373 20.9261C181.505 21.161 181.738 21.2784 182.072 21.2784C182.42 21.2784 182.657 21.161 182.782 20.9261C182.911 20.6913 182.975 20.4356 182.975 20.1591V19.5455C182.975 19.2689 182.914 19.0114 182.793 18.7727C182.672 18.5341 182.431 18.4148 182.072 18.4148C181.734 18.4148 181.501 18.536 181.373 18.7784C181.244 19.0208 181.18 19.2765 181.18 19.5455ZM180.265 29L188.265 17.3636H189.753L181.753 29H180.265Z"
        fill="#805EE9" />
</svg>