<svg width="253" height="97" viewBox="0 0 253 97" fill="none" xmlns="http://www.w3.org/2000/svg">
<rect x="34.3589" y="13.354" width="12.6553" height="12.6553" rx="6.32764" fill="#F9F6F6" stroke="#805EE9" stroke-opacity="0.4" stroke-linejoin="round"/>
<path d="M41.4676 17.2738V22.3647H40.3912V18.2955H40.3614L39.1956 19.0263V18.0718L40.4559 17.2738H41.4676Z" fill="#805EE9"/>
<rect x="50.7881" y="16.5361" width="57.9" height="7.2693" fill="#805EE9" fill-opacity="0.4"/>
<rect x="50.7881" y="29.9531" width="61.07" height="2.90772" fill="#805EE9" fill-opacity="0.4"/>
<rect x="50.7881" y="35.7686" width="61.07" height="2.90772" fill="#805EE9" fill-opacity="0.4"/>
<rect x="50.7881" y="41.584" width="46" height="2.90772" fill="#805EE9" fill-opacity="0.4"/>
<rect x="34.3589" y="53.1694" width="12.6553" height="12.6553" rx="6.32764" fill="#F9F6F6" stroke="#805EE9" stroke-opacity="0.4" stroke-linejoin="round"/>
<path d="M40.4809 62.2498C40.1097 62.2498 39.7791 62.186 39.4891 62.0584C39.2007 61.9291 38.9729 61.7518 38.8055 61.5264C38.6398 61.2994 38.5544 61.0375 38.5494 60.7409H39.6333C39.6399 60.8652 39.6805 60.9746 39.7551 61.069C39.8313 61.1618 39.9324 61.2339 40.0583 61.2853C40.1843 61.3367 40.326 61.3623 40.4834 61.3623C40.6475 61.3623 40.7925 61.3333 40.9184 61.2753C41.0444 61.2173 41.143 61.137 41.2142 61.0342C41.2855 60.9315 41.3211 60.813 41.3211 60.6788C41.3211 60.5429 41.283 60.4227 41.2068 60.3183C41.1322 60.2123 41.0245 60.1294 40.8836 60.0697C40.7444 60.0101 40.5787 59.9802 40.3865 59.9802H39.9117V59.1898H40.3865C40.5489 59.1898 40.6922 59.1616 40.8165 59.1052C40.9424 59.0489 41.0402 58.971 41.1098 58.8716C41.1794 58.7705 41.2142 58.6528 41.2142 58.5186C41.2142 58.391 41.1836 58.2791 41.1222 58.183C41.0626 58.0852 40.9781 58.009 40.8687 57.9543C40.761 57.8996 40.635 57.8723 40.4909 57.8723C40.345 57.8723 40.2116 57.8988 40.0906 57.9518C39.9697 58.0032 39.8727 58.077 39.7998 58.1731C39.7269 58.2692 39.6879 58.3819 39.683 58.5111H38.6514C38.6563 58.2178 38.74 57.9593 38.9024 57.7356C39.0648 57.5119 39.2836 57.337 39.5587 57.2111C39.8354 57.0835 40.1478 57.0197 40.4958 57.0197C40.8472 57.0197 41.1546 57.0835 41.4181 57.2111C41.6816 57.3387 41.8862 57.511 42.032 57.7281C42.1795 57.9436 42.2525 58.1855 42.2508 58.454C42.2525 58.739 42.1638 58.9768 41.9848 59.1674C41.8075 59.358 41.5763 59.4789 41.2913 59.5303V59.5701C41.6658 59.6181 41.9508 59.7482 42.1464 59.9604C42.3436 60.1708 42.4414 60.4343 42.4397 60.7508C42.4414 61.0409 42.3577 61.2985 42.1887 61.5239C42.0213 61.7493 41.7901 61.9266 41.4951 62.0559C41.2001 62.1851 40.8621 62.2498 40.4809 62.2498Z" fill="#805EE9"/>
<rect x="50.7881" y="56.3516" width="57.9" height="7.2693" fill="#805EE9" fill-opacity="0.4"/>
<rect x="50.7881" y="69.7686" width="61.07" height="2.90772" fill="#805EE9" fill-opacity="0.4"/>
<rect x="50.7881" y="75.584" width="61.07" height="2.90772" fill="#805EE9" fill-opacity="0.4"/>
<rect x="50.7881" y="81.3994" width="46" height="2.90772" fill="#805EE9" fill-opacity="0.4"/>
<rect x="136.152" y="13.354" width="12.6553" height="12.6553" rx="6.32764" fill="#F9F6F6" stroke="#805EE9" stroke-opacity="0.4" stroke-linejoin="round"/>
<path d="M140.392 22.3647V21.5892L142.204 19.9113C142.358 19.7621 142.488 19.6279 142.592 19.5086C142.698 19.3892 142.778 19.2724 142.833 19.1581C142.888 19.0421 142.915 18.9169 142.915 18.7827C142.915 18.6336 142.881 18.5051 142.813 18.3974C142.745 18.288 142.653 18.2044 142.535 18.1464C142.417 18.0867 142.284 18.0569 142.135 18.0569C141.979 18.0569 141.843 18.0883 141.727 18.1513C141.611 18.2143 141.522 18.3046 141.459 18.4223C141.396 18.5399 141.364 18.68 141.364 18.8424H140.342C140.342 18.5093 140.418 18.2201 140.569 17.9748C140.719 17.7296 140.931 17.5398 141.203 17.4056C141.474 17.2714 141.787 17.2042 142.142 17.2042C142.507 17.2042 142.824 17.2689 143.094 17.3981C143.366 17.5257 143.577 17.7031 143.728 17.9301C143.879 18.1571 143.954 18.4173 143.954 18.7106C143.954 18.9029 143.916 19.0926 143.84 19.2799C143.765 19.4671 143.632 19.6751 143.44 19.9038C143.247 20.1308 142.977 20.4035 142.627 20.7216L141.884 21.45V21.4848H144.021V22.3647H140.392Z" fill="#805EE9"/>
<rect x="152.581" y="16.5361" width="57.9" height="7.2693" fill="#805EE9" fill-opacity="0.4"/>
<rect x="152.581" y="29.9531" width="61.07" height="2.90772" fill="#805EE9" fill-opacity="0.4"/>
<rect x="152.581" y="35.7686" width="61.07" height="2.90772" fill="#805EE9" fill-opacity="0.4"/>
<rect x="152.581" y="41.584" width="46" height="2.90772" fill="#805EE9" fill-opacity="0.4"/>
<rect x="136.152" y="53.1694" width="12.6553" height="12.6553" rx="6.32764" fill="#F9F6F6" stroke="#805EE9" stroke-opacity="0.4" stroke-linejoin="round"/>
<path d="M140.315 61.2853V60.4376L142.44 57.0893H143.171V58.2626H142.739L141.399 60.3829V60.4227H144.419V61.2853H140.315ZM142.759 62.1802V61.0268L142.778 60.6514V57.0893H143.788V62.1802H142.759Z" fill="#805EE9"/>
<rect x="152.581" y="56.3516" width="57.9" height="7.2693" fill="#805EE9" fill-opacity="0.4"/>
<rect x="152.581" y="69.7686" width="61.07" height="2.90772" fill="#805EE9" fill-opacity="0.4"/>
<rect x="152.581" y="75.584" width="61.07" height="2.90772" fill="#805EE9" fill-opacity="0.4"/>
<rect x="152.581" y="81.3994" width="46" height="2.90772" fill="#805EE9" fill-opacity="0.4"/>
</svg>
