<svg width="253" height="96" viewBox="0 0 253 96" fill="none" xmlns="http://www.w3.org/2000/svg">
<rect x="23.5469" y="26.6157" width="12.6553" height="12.6553" rx="6.32764" fill="#F9F6F6" stroke="#805EE9" stroke-opacity="0.4" stroke-linejoin="round"/>
<path d="M30.6556 30.5356V35.6265H29.5792V31.5572H29.5494L28.3835 32.288V31.3335L29.6438 30.5356H30.6556Z" fill="#805EE9"/>
<rect x="39.9761" y="29.7979" width="40" height="7.2693" fill="#805EE9" fill-opacity="0.4"/>
<rect x="39.9761" y="43.2148" width="43.65" height="2.90772" fill="#805EE9" fill-opacity="0.4"/>
<rect x="39.9761" y="49.0303" width="43.6508" height="2.90772" fill="#805EE9" fill-opacity="0.4"/>
<rect x="39.9761" y="54.8457" width="43.6508" height="2.90772" fill="#805EE9" fill-opacity="0.4"/>
<rect x="39.9761" y="60.6611" width="39.1507" height="2.90772" fill="#805EE9" fill-opacity="0.4"/>
<rect x="39.9761" y="66.4766" width="23.2614" height="2.90772" fill="#805EE9" fill-opacity="0.4"/>
<rect x="95.542" y="26.6157" width="12.6553" height="12.6553" rx="6.32764" fill="#F9F6F6" stroke="#805EE9" stroke-opacity="0.4" stroke-linejoin="round"/>
<path d="M99.7823 35.6265V34.8509L101.594 33.173C101.749 33.0238 101.878 32.8896 101.982 32.7703C102.088 32.651 102.169 32.5341 102.223 32.4198C102.278 32.3038 102.305 32.1787 102.305 32.0444C102.305 31.8953 102.271 31.7669 102.203 31.6591C102.135 31.5498 102.043 31.4661 101.925 31.4081C101.807 31.3484 101.674 31.3186 101.525 31.3186C101.369 31.3186 101.233 31.3501 101.117 31.413C101.001 31.476 100.912 31.5663 100.849 31.684C100.786 31.8017 100.754 31.9417 100.754 32.1041H99.7326C99.7326 31.771 99.808 31.4818 99.9588 31.2366C100.11 30.9913 100.321 30.8015 100.593 30.6673C100.864 30.5331 101.178 30.466 101.532 30.466C101.897 30.466 102.214 30.5306 102.484 30.6598C102.756 30.7874 102.967 30.9648 103.118 31.1918C103.269 31.4188 103.344 31.679 103.344 31.9723C103.344 32.1646 103.306 32.3543 103.23 32.5416C103.155 32.7289 103.022 32.9368 102.83 33.1655C102.638 33.3926 102.367 33.6652 102.017 33.9834L101.274 34.7117V34.7465H103.412V35.6265H99.7823Z" fill="#805EE9"/>
<rect x="111.971" y="29.7979" width="40" height="7.2693" fill="#805EE9" fill-opacity="0.4"/>
<rect x="111.971" y="43.2148" width="43.65" height="2.90772" fill="#805EE9" fill-opacity="0.4"/>
<rect x="111.971" y="49.0303" width="43.6508" height="2.90772" fill="#805EE9" fill-opacity="0.4"/>
<rect x="111.971" y="54.8457" width="43.6508" height="2.90772" fill="#805EE9" fill-opacity="0.4"/>
<rect x="111.971" y="60.6611" width="39.1507" height="2.90772" fill="#805EE9" fill-opacity="0.4"/>
<rect x="111.971" y="66.4766" width="23.2614" height="2.90772" fill="#805EE9" fill-opacity="0.4"/>
<rect x="167.537" y="26.6157" width="12.6553" height="12.6553" rx="6.32764" fill="#F9F6F6" stroke="#805EE9" stroke-opacity="0.4" stroke-linejoin="round"/>
<path d="M173.866 35.6961C173.495 35.6961 173.165 35.6323 172.875 35.5047C172.586 35.3754 172.358 35.1981 172.191 34.9727C172.025 34.7457 171.94 34.4838 171.935 34.1872H173.019C173.025 34.3115 173.066 34.4209 173.141 34.5153C173.217 34.6081 173.318 34.6802 173.444 34.7316C173.57 34.783 173.711 34.8086 173.869 34.8086C174.033 34.8086 174.178 34.7796 174.304 34.7216C174.43 34.6636 174.528 34.5833 174.6 34.4805C174.671 34.3778 174.707 34.2593 174.707 34.125C174.707 33.9892 174.668 33.869 174.592 33.7646C174.518 33.6585 174.41 33.5757 174.269 33.516C174.13 33.4564 173.964 33.4265 173.772 33.4265H173.297V32.6361H173.772C173.934 32.6361 174.078 32.6079 174.202 32.5515C174.328 32.4952 174.426 32.4173 174.495 32.3179C174.565 32.2168 174.6 32.0991 174.6 31.9649C174.6 31.8373 174.569 31.7254 174.508 31.6293C174.448 31.5315 174.364 31.4553 174.254 31.4006C174.146 31.3459 174.021 31.3186 173.876 31.3186C173.731 31.3186 173.597 31.3451 173.476 31.3981C173.355 31.4495 173.258 31.5232 173.185 31.6194C173.112 31.7155 173.073 31.8282 173.068 31.9574H172.037C172.042 31.6641 172.126 31.4056 172.288 31.1819C172.45 30.9581 172.669 30.7833 172.944 30.6574C173.221 30.5298 173.533 30.466 173.881 30.466C174.233 30.466 174.54 30.5298 174.804 30.6574C175.067 30.785 175.272 30.9573 175.418 31.1744C175.565 31.3898 175.638 31.6318 175.636 31.9003C175.638 32.1853 175.549 32.4231 175.37 32.6137C175.193 32.8043 174.962 32.9252 174.677 32.9766V33.0164C175.051 33.0644 175.336 33.1945 175.532 33.4066C175.729 33.6171 175.827 33.8806 175.825 34.1971C175.827 34.4871 175.743 34.7448 175.574 34.9702C175.407 35.1956 175.176 35.3729 174.881 35.5022C174.586 35.6314 174.248 35.6961 173.866 35.6961Z" fill="#805EE9"/>
<rect x="183.966" y="29.7979" width="40" height="7.2693" fill="#805EE9" fill-opacity="0.4"/>
<rect x="183.966" y="43.2148" width="43.65" height="2.90772" fill="#805EE9" fill-opacity="0.4"/>
<rect x="183.966" y="49.0303" width="43.6508" height="2.90772" fill="#805EE9" fill-opacity="0.4"/>
<rect x="183.966" y="54.8457" width="43.6508" height="2.90772" fill="#805EE9" fill-opacity="0.4"/>
<rect x="183.966" y="60.6611" width="39.1507" height="2.90772" fill="#805EE9" fill-opacity="0.4"/>
<rect x="183.966" y="66.4766" width="23.2614" height="2.90772" fill="#805EE9" fill-opacity="0.4"/>
</svg>
