<svg width="150" height="150" viewBox="0 0 150 150" fill="none" xmlns="http://www.w3.org/2000/svg">
<path d="M96.7094 92.814C92.8995 96.1952 88.1415 100.402 79.5143 100.402H74.3554C68.1124 100.402 62.4341 98.1332 58.3698 94.0201C54.3995 90.001 52.214 84.5005 52.214 78.5294V71.4708C52.214 65.4997 54.3995 59.9993 58.3698 55.9802C62.4341 51.867 68.1124 49.6013 74.3554 49.6013H79.5143C88.1519 49.6013 92.8995 53.8051 96.7094 57.1863C100.666 60.672 104.078 63.7185 113.18 63.7185C114.568 63.7182 115.953 63.6073 117.324 63.3874L117.293 63.3072C116.748 61.9534 116.108 60.6396 115.379 59.3753L109.296 48.8379C103.721 39.1817 93.3833 33.2145 82.2331 33.2148H70.0644C58.9143 33.2145 48.5769 39.1817 43.0012 48.8379L36.9186 59.3753C31.3449 69.0325 31.3449 80.9677 36.9186 90.6249L43.0012 101.162C48.5769 110.819 58.9143 116.786 70.0644 116.785H82.2331C93.3833 116.786 103.721 110.819 109.296 101.162L115.379 90.6424C116.108 89.3781 116.748 88.0643 117.293 86.7105L117.324 86.6338C115.954 86.4062 114.568 86.2897 113.18 86.2852C104.078 86.2852 100.666 89.3143 96.7094 92.8175" fill="#006BFF"/>
<path d="M79.5143 55.9976H74.3554C64.8533 55.9976 58.6104 62.7843 58.6104 71.4707V78.5294C58.6104 87.2158 64.8533 94.0026 74.3554 94.0026H79.5143C93.3597 94.0026 92.2721 79.8853 113.18 79.8853C115.161 79.8832 117.137 80.0652 119.084 80.4291C119.719 76.8377 119.719 73.1624 119.084 69.571C117.137 69.9332 115.161 70.1151 113.18 70.1148C92.2651 70.1148 93.3597 55.9976 79.5143 55.9976Z" fill="#006BFF"/>
<path d="M131.095 85.5879C127.535 82.9802 123.429 81.2151 119.087 80.4256V80.5301C118.713 82.6115 118.129 84.6492 117.344 86.6127C120.93 87.168 124.334 88.57 127.271 90.7015C127.271 90.7294 127.254 90.7642 127.243 90.7956C120.334 113.168 99.5113 128.53 76.0966 128.53C46.7306 128.53 22.5661 104.366 22.5661 75C22.5661 45.6341 46.7306 21.4695 76.0966 21.4695C99.5113 21.4695 120.334 36.8322 127.243 59.2044C127.243 59.2357 127.261 59.2706 127.271 59.2985C124.334 61.4304 120.931 62.8309 117.344 63.3838C118.128 65.3497 118.712 67.3899 119.087 69.4734C119.085 69.5058 119.085 69.5385 119.087 69.571C123.428 68.7828 127.535 67.0187 131.095 64.4121C134.518 61.8779 133.856 59.0161 133.337 57.3221C125.601 32.2328 102.255 15 76 15C43.0849 15 16 42.0849 16 75C16 107.915 43.0849 135 76 135C102.255 135 125.601 117.767 133.337 92.6779C133.856 90.9838 134.518 88.1221 131.095 85.5879Z" fill="#006BFF"/>
<path d="M117.323 63.3837C115.953 63.6113 114.567 63.7278 113.178 63.7323C104.077 63.7323 100.665 60.7032 96.7118 57.2C92.8984 53.8189 88.1508 49.6116 79.5132 49.6116H74.3543C68.1079 49.6116 62.4331 51.8808 58.3687 55.994C54.3984 60.013 52.2129 65.5135 52.2129 71.4846V78.5432C52.2129 84.5143 54.3984 90.0148 58.3687 94.0338C62.4331 98.147 68.1079 100.413 74.3543 100.413H79.5132C88.1508 100.413 92.8984 96.2089 96.7118 92.8277C100.665 89.342 104.077 86.2955 113.178 86.2955C114.566 86.2958 115.952 86.4067 117.323 86.6266C118.11 84.6638 118.694 82.6257 119.066 80.544C119.068 80.5091 119.068 80.4743 119.066 80.4394C117.118 80.0783 115.142 79.8974 113.161 79.8991C92.2466 79.8991 93.3411 94.0199 79.4958 94.0199H74.3369C64.8347 94.0199 58.5918 87.2296 58.5918 78.5432V71.4706C58.5918 62.7842 64.8347 55.9974 74.3369 55.9974H79.4958C93.3411 55.9974 92.2536 70.1112 113.161 70.1112C115.142 70.1147 117.119 69.9338 119.066 69.5709V69.4733C118.691 67.3899 118.107 65.3497 117.323 63.3837Z" fill="#0AE8F0"/>
<path d="M117.323 63.3837C115.953 63.6113 114.567 63.7278 113.178 63.7323C104.077 63.7323 100.665 60.7032 96.7118 57.2C92.8984 53.8189 88.1508 49.6116 79.5132 49.6116H74.3543C68.1079 49.6116 62.4331 51.8808 58.3687 55.994C54.3984 60.013 52.2129 65.5135 52.2129 71.4846V78.5432C52.2129 84.5143 54.3984 90.0148 58.3687 94.0338C62.4331 98.147 68.1079 100.413 74.3543 100.413H79.5132C88.1508 100.413 92.8984 96.2089 96.7118 92.8277C100.665 89.342 104.077 86.2955 113.178 86.2955C114.566 86.2958 115.952 86.4067 117.323 86.6266C118.11 84.6638 118.694 82.6257 119.066 80.544C119.068 80.5091 119.068 80.4743 119.066 80.4394C117.118 80.0783 115.142 79.8974 113.161 79.8991C92.2466 79.8991 93.3411 94.0199 79.4958 94.0199H74.3369C64.8347 94.0199 58.5918 87.2296 58.5918 78.5432V71.4706C58.5918 62.7842 64.8347 55.9974 74.3369 55.9974H79.4958C93.3411 55.9974 92.2536 70.1112 113.161 70.1112C115.142 70.1147 117.119 69.9338 119.066 69.5709V69.4733C118.691 67.3899 118.107 65.3497 117.323 63.3837Z" fill="#0AE8F0"/>
</svg>
