<svg width="253" height="83" viewBox="0 0 253 83" fill="none" xmlns="http://www.w3.org/2000/svg">
    <rect x="37" y="60.7627" width="50" height="2.8" fill="#805EE9" fill-opacity="0.4" />
    <rect x="40" y="65.5625" width="43" height="2.8" fill="#805EE9" fill-opacity="0.4" />
    <path
        d="M56.8947 26.5582L58.1863 28.741H58.2363L59.5341 26.5582H61.0634L59.1088 29.7605L61.1072 32.9629H59.5498L58.2363 30.7769H58.1863L56.8728 32.9629H55.3217L57.3263 29.7605L55.3592 26.5582H56.8947ZM65.3884 31.762V31.4243C65.3884 31.1678 65.4426 30.9322 65.551 30.7175C65.6615 30.5007 65.821 30.3276 66.0295 30.1984C66.2401 30.067 66.4965 30.0013 66.7988 30.0013C67.1053 30.0013 67.3628 30.066 67.5713 30.1952C67.7818 30.3245 67.9403 30.4975 68.0466 30.7144C68.155 30.9291 68.2092 31.1657 68.2092 31.4243V31.762C68.2092 32.0184 68.155 32.2551 68.0466 32.4719C67.9382 32.6866 67.7787 32.8586 67.5681 32.9879C67.3576 33.1193 67.1011 33.1849 66.7988 33.1849C66.4924 33.1849 66.2349 33.1193 66.0264 32.9879C65.8179 32.8586 65.6595 32.6866 65.551 32.4719C65.4426 32.2551 65.3884 32.0184 65.3884 31.762ZM66.2985 31.4243V31.762C66.2985 31.91 66.3339 32.0497 66.4048 32.1811C66.4778 32.3124 66.6091 32.3781 66.7988 32.3781C66.9886 32.3781 67.1178 32.3135 67.1866 32.1842C67.2575 32.0549 67.2929 31.9142 67.2929 31.762V31.4243C67.2929 31.2721 67.2596 31.1303 67.1929 30.999C67.1262 30.8676 66.9948 30.8019 66.7988 30.8019C66.6112 30.8019 66.4809 30.8676 66.4079 30.999C66.3349 31.1303 66.2985 31.2721 66.2985 31.4243ZM62.1016 28.0968V27.7591C62.1016 27.5006 62.1569 27.2639 62.2674 27.0492C62.3779 26.8324 62.5374 26.6593 62.7459 26.5301C62.9564 26.4008 63.2108 26.3362 63.5089 26.3362C63.8175 26.3362 64.076 26.4008 64.2845 26.5301C64.493 26.6593 64.6514 26.8324 64.7598 27.0492C64.8682 27.2639 64.9225 27.5006 64.9225 27.7591V28.0968C64.9225 28.3553 64.8672 28.592 64.7567 28.8067C64.6483 29.0215 64.4888 29.1935 64.2782 29.3227C64.0697 29.4499 63.8133 29.5135 63.5089 29.5135C63.2045 29.5135 62.947 29.4489 62.7365 29.3196C62.528 29.1883 62.3695 29.0162 62.2611 28.8036C62.1548 28.5889 62.1016 28.3533 62.1016 28.0968ZM63.0179 27.7591V28.0968C63.0179 28.249 63.0534 28.3897 63.1243 28.519C63.1972 28.6483 63.3255 28.7129 63.5089 28.7129C63.7007 28.7129 63.831 28.6483 63.8998 28.519C63.9707 28.3897 64.0062 28.249 64.0062 28.0968V27.7591C64.0062 27.6069 63.9728 27.4651 63.9061 27.3338C63.8394 27.2024 63.707 27.1367 63.5089 27.1367C63.3234 27.1367 63.1951 27.2035 63.1243 27.3369C63.0534 27.4703 63.0179 27.6111 63.0179 27.7591ZM62.5144 32.9629L66.9177 26.5582H67.737L63.3338 32.9629H62.5144Z"
        fill="#805EE9" />
    <rect x="37" y="55.9629" width="50" height="2.8" fill="#805EE9" fill-opacity="0.4" />
    <path
        d="M45 30C45 33.3623 45.997 36.6491 47.865 39.4447C49.733 42.2403 52.388 44.4193 55.4944 45.706C58.6007 46.9926 62.0189 47.3293 65.3165 46.6733C68.6142 46.0174 71.6433 44.3983 74.0208 42.0208C76.3983 39.6433 78.0174 36.6142 78.6733 33.3165C79.3293 30.0189 78.9926 26.6007 77.706 23.4944C76.4193 20.388 74.2403 17.733 71.4447 15.865C68.6491 13.997 65.3623 13 62 13L62 16.57C64.6562 16.57 67.2528 17.3577 69.4613 18.8334C71.6699 20.3091 73.3912 22.4065 74.4077 24.8606C75.4242 27.3146 75.6901 30.0149 75.1719 32.6201C74.6537 35.2252 73.3747 37.6182 71.4964 39.4964C69.6182 41.3747 67.2252 42.6537 64.6201 43.1719C62.0149 43.6901 59.3146 43.4242 56.8606 42.4077C54.4065 41.3912 52.3091 39.6699 50.8334 37.4613C49.3577 35.2528 48.57 32.6562 48.57 30H45Z"
        fill="#805EE9" />
    <path
        d="M45 30C45 25.4913 46.7911 21.1673 49.9792 17.9792C53.1673 14.7911 57.4913 13 62 13L62 16.57C58.4381 16.57 55.0222 17.9849 52.5036 20.5036C49.9849 23.0222 48.57 26.4381 48.57 30L45 30Z"
        fill="#805EE9" fill-opacity="0.4" />
    <rect x="101" y="60.7627" width="50" height="2.8" fill="#805EE9" fill-opacity="0.4" />
    <rect x="104" y="65.563" width="43" height="2.8" fill="#805EE9" fill-opacity="0.4" />
    <path
        d="M120.895 26.5582L122.186 28.741H122.236L123.534 26.5582H125.063L123.109 29.7605L125.107 32.9629H123.55L122.236 30.7769H122.186L120.873 32.9629H119.322L121.326 29.7605L119.359 26.5582H120.895ZM129.388 31.762V31.4243C129.388 31.1678 129.443 30.9322 129.551 30.7175C129.662 30.5007 129.821 30.3276 130.03 30.1984C130.24 30.067 130.497 30.0013 130.799 30.0013C131.105 30.0013 131.363 30.066 131.571 30.1952C131.782 30.3245 131.94 30.4975 132.047 30.7144C132.155 30.9291 132.209 31.1657 132.209 31.4243V31.762C132.209 32.0184 132.155 32.2551 132.047 32.4719C131.938 32.6866 131.779 32.8586 131.568 32.9879C131.358 33.1193 131.101 33.1849 130.799 33.1849C130.492 33.1849 130.235 33.1193 130.026 32.9879C129.818 32.8586 129.659 32.6866 129.551 32.4719C129.443 32.2551 129.388 32.0184 129.388 31.762ZM130.298 31.4243V31.762C130.298 31.91 130.334 32.0497 130.405 32.1811C130.478 32.3124 130.609 32.3781 130.799 32.3781C130.989 32.3781 131.118 32.3135 131.187 32.1842C131.257 32.0549 131.293 31.9142 131.293 31.762V31.4243C131.293 31.2721 131.26 31.1303 131.193 30.999C131.126 30.8676 130.995 30.8019 130.799 30.8019C130.611 30.8019 130.481 30.8676 130.408 30.999C130.335 31.1303 130.298 31.2721 130.298 31.4243ZM126.102 28.0968V27.7591C126.102 27.5006 126.157 27.2639 126.267 27.0492C126.378 26.8324 126.537 26.6593 126.746 26.5301C126.956 26.4008 127.211 26.3362 127.509 26.3362C127.817 26.3362 128.076 26.4008 128.284 26.5301C128.493 26.6593 128.651 26.8324 128.76 27.0492C128.868 27.2639 128.922 27.5006 128.922 27.7591V28.0968C128.922 28.3553 128.867 28.592 128.757 28.8067C128.648 29.0215 128.489 29.1935 128.278 29.3227C128.07 29.4499 127.813 29.5135 127.509 29.5135C127.205 29.5135 126.947 29.4489 126.736 29.3196C126.528 29.1883 126.37 29.0162 126.261 28.8036C126.155 28.5889 126.102 28.3533 126.102 28.0968ZM127.018 27.7591V28.0968C127.018 28.249 127.053 28.3897 127.124 28.519C127.197 28.6483 127.325 28.7129 127.509 28.7129C127.701 28.7129 127.831 28.6483 127.9 28.519C127.971 28.3897 128.006 28.249 128.006 28.0968V27.7591C128.006 27.6069 127.973 27.4651 127.906 27.3338C127.839 27.2024 127.707 27.1367 127.509 27.1367C127.323 27.1367 127.195 27.2035 127.124 27.3369C127.053 27.4703 127.018 27.6111 127.018 27.7591ZM126.514 32.9629L130.918 26.5582H131.737L127.334 32.9629H126.514Z"
        fill="#805EE9" />
    <rect x="101" y="55.9629" width="50" height="2.8" fill="#805EE9" fill-opacity="0.4" />
    <path
        d="M143 30C143 39.3888 135.389 47 126 47C116.611 47 109 39.3888 109 30C109 20.6112 116.611 13 126 13C135.389 13 143 20.6112 143 30ZM112.57 30C112.57 37.4172 118.583 43.43 126 43.43C133.417 43.43 139.43 37.4172 139.43 30C139.43 22.5828 133.417 16.57 126 16.57C118.583 16.57 112.57 22.5828 112.57 30Z"
        fill="#805EE9" fill-opacity="0.4" />
    <path
        d="M126 13C130.509 13 134.833 14.7911 138.021 17.9792C141.209 21.1673 143 25.4913 143 30C143 34.5087 141.209 38.8327 138.021 42.0208C134.833 45.2089 130.509 47 126 47L126 43.43C129.562 43.43 132.978 42.0151 135.496 39.4964C138.015 36.9778 139.43 33.5619 139.43 30C139.43 26.4381 138.015 23.0222 135.496 20.5036C132.978 17.9849 129.562 16.57 126 16.57L126 13Z"
        fill="#805EE9" />
    <rect x="165" y="60.7627" width="50" height="2.8" fill="#805EE9" fill-opacity="0.4" />
    <rect x="168" y="65.563" width="43" height="2.8" fill="#805EE9" fill-opacity="0.4" />
    <path
        d="M184.895 26.5582L186.186 28.741H186.236L187.534 26.5582H189.063L187.109 29.7605L189.107 32.9629H187.55L186.236 30.7769H186.186L184.873 32.9629H183.322L185.326 29.7605L183.359 26.5582H184.895ZM193.388 31.762V31.4243C193.388 31.1678 193.443 30.9322 193.551 30.7175C193.662 30.5007 193.821 30.3276 194.03 30.1984C194.24 30.067 194.497 30.0013 194.799 30.0013C195.105 30.0013 195.363 30.066 195.571 30.1952C195.782 30.3245 195.94 30.4975 196.047 30.7144C196.155 30.9291 196.209 31.1657 196.209 31.4243V31.762C196.209 32.0184 196.155 32.2551 196.047 32.4719C195.938 32.6866 195.779 32.8586 195.568 32.9879C195.358 33.1193 195.101 33.1849 194.799 33.1849C194.492 33.1849 194.235 33.1193 194.026 32.9879C193.818 32.8586 193.659 32.6866 193.551 32.4719C193.443 32.2551 193.388 32.0184 193.388 31.762ZM194.298 31.4243V31.762C194.298 31.91 194.334 32.0497 194.405 32.1811C194.478 32.3124 194.609 32.3781 194.799 32.3781C194.989 32.3781 195.118 32.3135 195.187 32.1842C195.257 32.0549 195.293 31.9142 195.293 31.762V31.4243C195.293 31.2721 195.26 31.1303 195.193 30.999C195.126 30.8676 194.995 30.8019 194.799 30.8019C194.611 30.8019 194.481 30.8676 194.408 30.999C194.335 31.1303 194.298 31.2721 194.298 31.4243ZM190.102 28.0968V27.7591C190.102 27.5006 190.157 27.2639 190.267 27.0492C190.378 26.8324 190.537 26.6593 190.746 26.5301C190.956 26.4008 191.211 26.3362 191.509 26.3362C191.817 26.3362 192.076 26.4008 192.284 26.5301C192.493 26.6593 192.651 26.8324 192.76 27.0492C192.868 27.2639 192.922 27.5006 192.922 27.7591V28.0968C192.922 28.3553 192.867 28.592 192.757 28.8067C192.648 29.0215 192.489 29.1935 192.278 29.3227C192.07 29.4499 191.813 29.5135 191.509 29.5135C191.205 29.5135 190.947 29.4489 190.736 29.3196C190.528 29.1883 190.37 29.0162 190.261 28.8036C190.155 28.5889 190.102 28.3533 190.102 28.0968ZM191.018 27.7591V28.0968C191.018 28.249 191.053 28.3897 191.124 28.519C191.197 28.6483 191.325 28.7129 191.509 28.7129C191.701 28.7129 191.831 28.6483 191.9 28.519C191.971 28.3897 192.006 28.249 192.006 28.0968V27.7591C192.006 27.6069 191.973 27.4651 191.906 27.3338C191.839 27.2024 191.707 27.1367 191.509 27.1367C191.323 27.1367 191.195 27.2035 191.124 27.3369C191.053 27.4703 191.018 27.6111 191.018 27.7591ZM190.514 32.9629L194.918 26.5582H195.737L191.334 32.9629H190.514Z"
        fill="#805EE9" />
    <rect x="165" y="55.9629" width="50" height="2.8" fill="#805EE9" fill-opacity="0.4" />
    <path
        d="M207 30C207 39.3888 199.389 47 190 47C180.611 47 173 39.3888 173 30C173 20.6112 180.611 13 190 13C199.389 13 207 20.6112 207 30ZM176.57 30C176.57 37.4172 182.583 43.43 190 43.43C197.417 43.43 203.43 37.4172 203.43 30C203.43 22.5828 197.417 16.57 190 16.57C182.583 16.57 176.57 22.5828 176.57 30Z"
        fill="#805EE9" fill-opacity="0.4" />
    <path
        d="M190 13C193.59 13 197.088 14.1365 199.992 16.2467C202.897 18.3569 205.059 21.3324 206.168 24.7467C207.277 28.1611 207.277 31.839 206.168 35.2533C205.059 38.6676 202.897 41.6431 199.992 43.7533L197.894 40.8651C200.188 39.1981 201.896 36.8474 202.773 34.1501C203.649 31.4528 203.649 28.5472 202.773 25.8499C201.896 23.1526 200.188 20.8019 197.894 19.1349C195.599 17.4679 192.836 16.57 190 16.57L190 13Z"
        fill="#805EE9" />
</svg>