<svg width="254" height="96" viewBox="0 0 254 96" fill="none" xmlns="http://www.w3.org/2000/svg">
<path fill-rule="evenodd" clip-rule="evenodd" d="M118.591 25.3683V27.674L124.821 24.0771L121.671 22.2581V22.2206C121.654 22.2237 121.638 22.2269 121.622 22.2301L118.591 20.4802V23.0161C109.302 26.034 102.293 34.1109 100.817 43.9956H103.07C104.486 35.348 110.539 28.26 118.591 25.3683ZM101.531 55.0834L99.2693 55.0888L102.851 48.8502L106.463 55.0714L103.853 55.0777C106.416 63.2223 113.217 69.4879 121.671 71.2882V73.5595C111.986 71.6813 104.208 64.4582 101.531 55.0834ZM130.572 24.2825C139.997 25.8256 147.57 32.8768 149.876 42.0224L147.478 42.0166L151.06 48.2553L154.671 42.034L152.166 42.028C149.789 31.6466 141.232 23.6214 130.572 22.0298V24.2825ZM133.872 75.5199V73.0364C143.246 70.3596 150.469 62.5821 152.347 52.8971H150.076C148.276 61.3487 142.013 68.1487 133.872 70.7125V68.3262L127.642 71.923L133.872 75.5199Z" fill="#805EE9"/>
</svg>
