<svg width="253" height="94" viewBox="0 0 253 94" fill="none" xmlns="http://www.w3.org/2000/svg">
    <g clip-path="url(#clip0_404_891)">
        <rect width="65.2865" height="2.82209" transform="matrix(1 0 0 -1 119 69)" fill="#805EE9"
            fill-opacity="0.4" />
        <rect width="55.6757" height="2.82209" transform="matrix(1 0 0 -1 119 64.1777)"
            fill="#805EE9" fill-opacity="0.4" />
        <rect width="62" height="2.82209" transform="matrix(1 0 0 -1 130 48.1777)" fill="#805EE9"
            fill-opacity="0.4" />
        <rect width="52.8729" height="2.82209" transform="matrix(1 0 0 -1 130 43.3555)"
            fill="#805EE9" fill-opacity="0.4" />
        <rect width="54" height="2.82209" transform="matrix(1 0 0 -1 141 29)" fill="#805EE9"
            fill-opacity="0.4" />
        <rect width="46.0506" height="2.82209" transform="matrix(1 0 0 -1 141 24.1777)"
            fill="#805EE9" fill-opacity="0.4" />
        <path
            d="M92.2717 78.8726C92.8176 79.8181 94.1823 79.8181 94.7282 78.8726L129.078 19.3775C129.624 18.432 128.941 17.2501 127.849 17.2501H59.1504C58.0587 17.2501 57.3763 18.432 57.9222 19.3775L92.2717 78.8726Z"
            stroke="#805EE9" />
        <line y1="-0.5" x2="52.2601" y2="-0.5" transform="matrix(1 0 0 -1 67.5703 35.1133)"
            stroke="#805EE9" />
        <path d="M78 54L109 54" stroke="#805EE9" stroke-linecap="round" />
        <path
            d="M93.4857 68.2148C93.0614 68.2148 92.6836 68.1419 92.3522 67.996C92.0226 67.8483 91.7622 67.6457 91.5709 67.3881C91.3815 67.1286 91.284 66.8294 91.2783 66.4904H92.5169C92.5245 66.6324 92.5709 66.7574 92.6561 66.8654C92.7433 66.9714 92.8588 67.0538 93.0027 67.1125C93.1467 67.1712 93.3086 67.2006 93.4885 67.2006C93.676 67.2006 93.8417 67.1675 93.9857 67.1012C94.1296 67.0349 94.2423 66.943 94.3238 66.8256C94.4052 66.7082 94.4459 66.5728 94.4459 66.4193C94.4459 66.264 94.4024 66.1267 94.3152 66.0074C94.23 65.8862 94.1069 65.7915 93.9459 65.7233C93.7868 65.6551 93.5974 65.621 93.3777 65.621H92.8351V64.7176H93.3777C93.5633 64.7176 93.7272 64.6854 93.8692 64.621C94.0131 64.5567 94.1249 64.4676 94.2044 64.354C94.284 64.2385 94.3238 64.104 94.3238 63.9506C94.3238 63.8048 94.2887 63.6769 94.2186 63.5671C94.1505 63.4553 94.0539 63.3682 93.9289 63.3057C93.8058 63.2432 93.6618 63.212 93.497 63.212C93.3304 63.212 93.1779 63.2423 93.0397 63.3029C92.9014 63.3616 92.7906 63.4459 92.7073 63.5557C92.6239 63.6656 92.5794 63.7943 92.5738 63.9421H91.3948C91.4005 63.6068 91.4961 63.3114 91.6817 63.0557C91.8673 62.8 92.1173 62.6002 92.4317 62.4563C92.748 62.3104 93.105 62.2375 93.5027 62.2375C93.9042 62.2375 94.2556 62.3104 94.5567 62.4563C94.8578 62.6021 95.0917 62.7991 95.2584 63.0472C95.427 63.2934 95.5103 63.5699 95.5084 63.8767C95.5103 64.2025 95.409 64.4743 95.2044 64.6921C95.0018 64.9099 94.7376 65.0481 94.4118 65.1068V65.1523C94.8399 65.2072 95.1656 65.3559 95.3891 65.5983C95.6145 65.8389 95.7262 66.14 95.7243 66.5017C95.7262 66.8332 95.6306 67.1277 95.4374 67.3853C95.2461 67.6428 94.9819 67.8455 94.6448 67.9932C94.3077 68.1409 93.9213 68.2148 93.4857 68.2148Z"
            fill="#805EE9" />
        <path
            d="M91.4523 49.231V48.3446L93.5233 46.427C93.6995 46.2565 93.8472 46.1031 93.9665 45.9668C94.0877 45.8304 94.1796 45.6969 94.2421 45.5662C94.3046 45.4336 94.3358 45.2906 94.3358 45.1372C94.3358 44.9668 94.297 44.82 94.2194 44.6969C94.1417 44.5719 94.0356 44.4762 93.9012 44.4099C93.7667 44.3418 93.6142 44.3077 93.4438 44.3077C93.2658 44.3077 93.1104 44.3436 92.9779 44.4156C92.8453 44.4876 92.743 44.5908 92.6711 44.7253C92.5991 44.8597 92.5631 45.0198 92.5631 45.2054H91.3955C91.3955 44.8247 91.4817 44.4942 91.654 44.2139C91.8264 43.9336 92.0678 43.7168 92.3784 43.5633C92.689 43.4099 93.047 43.3332 93.4523 43.3332C93.869 43.3332 94.2317 43.4071 94.5404 43.5548C94.851 43.7007 95.0925 43.9033 95.2648 44.1628C95.4372 44.4222 95.5233 44.7196 95.5233 45.0548C95.5233 45.2745 95.4798 45.4914 95.3926 45.7054C95.3074 45.9194 95.155 46.1571 94.9353 46.4185C94.7156 46.6779 94.4059 46.9895 94.0063 47.3531L93.1569 48.1855V48.2253H95.6V49.231H91.4523Z"
            fill="#805EE9" />
        <path
            d="M94.5461 24.0456V29.8638H93.316V25.2132H93.2819L91.9495 26.0484V24.9575L93.3899 24.0456H94.5461Z"
            fill="#805EE9" />
    </g>
    <defs>
        <clipPath id="clip0_404_891">
            <rect width="253" height="94" fill="white" />
        </clipPath>
    </defs>
</svg>