<svg width="253" height="96" viewBox="0 0 253 96" fill="none" xmlns="http://www.w3.org/2000/svg">
<path d="M59.3165 31.1783C58.5014 31.1783 57.8406 31.8636 57.8406 32.709C57.8406 33.5544 58.5014 34.2397 59.3165 34.2397C60.1316 34.2397 60.7923 33.5544 60.7923 32.709C60.7923 31.8636 60.1313 31.1783 59.3165 31.1783ZM68.39 28.3721H56.583C55.5238 28.3721 54.6426 29.2857 54.6426 30.413V40.6175C54.6426 41.7448 55.5235 42.6584 56.5827 42.6584H68.3898C69.4767 42.6584 70.3576 41.7448 70.3576 40.6175V30.413C70.3579 29.2857 69.5031 28.3721 68.39 28.3721ZM68.882 40.4039L64.6757 34.4757C64.5989 34.329 64.4236 34.2397 64.2361 34.2397C64.0481 34.2397 63.8726 34.328 63.7684 34.475L60.4907 39.0702L59.3503 37.6001C59.2445 37.4637 59.0756 37.383 58.8962 37.383C58.7165 37.383 58.5478 37.4637 58.4417 37.6001L56.1197 40.5917C56.1197 40.5907 56.1197 40.5926 56.1197 40.5917L56.1184 30.413C56.1184 30.1317 56.3391 29.9028 56.6104 29.9028H68.4174C68.6887 29.9028 68.9094 30.1317 68.9094 30.413V40.4039H68.882Z" fill="#805EE9"/>
<rect x="36.5" y="17.5151" width="52" height="36" rx="1.5" stroke="#805EE9" stroke-opacity="0.4"/>
<rect x="36.0022" y="70.3101" width="52.9954" height="2.82209" fill="#805EE9" fill-opacity="0.4"/>
<rect x="36.0022" y="58.606" width="52.9954" height="2.82209" fill="#805EE9" fill-opacity="0.4"/>
<rect x="36" y="64.458" width="53" height="2.82209" fill="#805EE9" fill-opacity="0.4"/>
<rect x="42.418" y="76.1621" width="40.164" height="2.82209" fill="#805EE9" fill-opacity="0.4"/>
<path d="M123.316 31.1783C122.501 31.1783 121.841 31.8636 121.841 32.709C121.841 33.5544 122.501 34.2397 123.316 34.2397C124.132 34.2397 124.792 33.5544 124.792 32.709C124.792 31.8636 124.131 31.1783 123.316 31.1783ZM132.39 28.3721H120.583C119.524 28.3721 118.643 29.2857 118.643 30.413V40.6175C118.643 41.7448 119.523 42.6584 120.583 42.6584H132.39C133.477 42.6584 134.358 41.7448 134.358 40.6175V30.413C134.358 29.2857 133.503 28.3721 132.39 28.3721ZM132.882 40.4039L128.676 34.4757C128.599 34.329 128.424 34.2397 128.236 34.2397C128.048 34.2397 127.873 34.328 127.768 34.475L124.491 39.0702L123.35 37.6001C123.244 37.4637 123.076 37.383 122.896 37.383C122.717 37.383 122.548 37.4637 122.442 37.6001L120.12 40.5917C120.12 40.5907 120.12 40.5926 120.12 40.5917L120.118 30.413C120.118 30.1317 120.339 29.9028 120.61 29.9028H132.417C132.689 29.9028 132.909 30.1317 132.909 30.413V40.4039H132.882Z" fill="#805EE9"/>
<rect x="100.5" y="17.5151" width="52" height="36" rx="1.5" stroke="#805EE9" stroke-opacity="0.4"/>
<rect x="100.002" y="70.3101" width="52.9954" height="2.82209" fill="#805EE9" fill-opacity="0.4"/>
<rect x="100.002" y="58.606" width="52.9954" height="2.82209" fill="#805EE9" fill-opacity="0.4"/>
<rect x="100" y="64.458" width="53" height="2.82209" fill="#805EE9" fill-opacity="0.4"/>
<rect x="106.418" y="76.1621" width="40.164" height="2.82209" fill="#805EE9" fill-opacity="0.4"/>
<path d="M187.316 31.1783C186.501 31.1783 185.841 31.8636 185.841 32.709C185.841 33.5544 186.501 34.2397 187.316 34.2397C188.132 34.2397 188.792 33.5544 188.792 32.709C188.792 31.8636 188.131 31.1783 187.316 31.1783ZM196.39 28.3721H184.583C183.524 28.3721 182.643 29.2857 182.643 30.413V40.6175C182.643 41.7448 183.523 42.6584 184.583 42.6584H196.39C197.477 42.6584 198.358 41.7448 198.358 40.6175V30.413C198.358 29.2857 197.503 28.3721 196.39 28.3721ZM196.882 40.4039L192.676 34.4757C192.599 34.329 192.424 34.2397 192.236 34.2397C192.048 34.2397 191.873 34.328 191.768 34.475L188.491 39.0702L187.35 37.6001C187.244 37.4637 187.076 37.383 186.896 37.383C186.717 37.383 186.548 37.4637 186.442 37.6001L184.12 40.5917C184.12 40.5907 184.12 40.5926 184.12 40.5917L184.118 30.413C184.118 30.1317 184.339 29.9028 184.61 29.9028H196.417C196.689 29.9028 196.909 30.1317 196.909 30.413V40.4039H196.882Z" fill="#805EE9"/>
<rect x="164.5" y="17.5151" width="52" height="36" rx="1.5" stroke="#805EE9" stroke-opacity="0.4"/>
<rect x="164.002" y="70.3101" width="52.9954" height="2.82209" fill="#805EE9" fill-opacity="0.4"/>
<rect x="164.002" y="58.606" width="52.9954" height="2.82209" fill="#805EE9" fill-opacity="0.4"/>
<rect x="164" y="64.458" width="53" height="2.82209" fill="#805EE9" fill-opacity="0.4"/>
<rect x="170.418" y="76.1621" width="40.164" height="2.82209" fill="#805EE9" fill-opacity="0.4"/>
</svg>
