<svg width="253" height="97" viewBox="0 0 253 97" fill="none" xmlns="http://www.w3.org/2000/svg">
<rect x="50.9512" y="63.8799" width="43.03" height="2.82209" fill="#805EE9" fill-opacity="0.4"/>
<rect x="50.9512" y="52.1758" width="43.03" height="2.82209" fill="#805EE9" fill-opacity="0.4"/>
<rect x="50.9492" y="58.0278" width="43.0338" height="2.82209" fill="#805EE9" fill-opacity="0.4"/>
<rect x="56.1604" y="69.7319" width="32.6115" height="2.82209" fill="#805EE9" fill-opacity="0.4"/>
<rect x="104.985" y="63.8799" width="43.03" height="2.82209" fill="#805EE9" fill-opacity="0.4"/>
<rect x="104.985" y="52.1758" width="43.03" height="2.82209" fill="#805EE9" fill-opacity="0.4"/>
<rect x="104.983" y="58.0278" width="43.0338" height="2.82209" fill="#805EE9" fill-opacity="0.4"/>
<rect x="110.194" y="69.7319" width="32.6115" height="2.82209" fill="#805EE9" fill-opacity="0.4"/>
<rect x="159.019" y="63.8799" width="43.03" height="2.82209" fill="#805EE9" fill-opacity="0.4"/>
<rect x="159.019" y="52.1758" width="43.03" height="2.82209" fill="#805EE9" fill-opacity="0.4"/>
<rect x="159.017" y="58.0278" width="43.0338" height="2.82209" fill="#805EE9" fill-opacity="0.4"/>
<rect x="164.228" y="69.7319" width="32.6115" height="2.82209" fill="#805EE9" fill-opacity="0.4"/>
<path d="M73.2931 27.2783C73.1406 26.956 72.8182 26.751 72.4643 26.751C72.1103 26.751 71.7908 26.956 71.6354 27.2783L69.7849 31.1538L65.6521 31.7748C65.3068 31.8276 65.019 32.0736 64.9125 32.4105C64.806 32.7474 64.8923 33.1194 65.1398 33.3684L68.1387 36.3886L67.4307 40.6566C67.3731 41.0082 67.517 41.3656 67.8019 41.5735C68.0869 41.7815 68.4639 41.8079 68.7747 41.6409L72.4671 39.6343L76.1596 41.6409C76.4704 41.8079 76.8474 41.7845 77.1323 41.5735C77.4172 41.3626 77.5611 41.0082 77.5036 40.6566L76.7927 36.3886L79.7916 33.3684C80.0391 33.1194 80.1283 32.7474 80.0189 32.4105C79.9096 32.0736 79.6246 31.8276 79.2793 31.7748L75.1436 31.1538L73.2931 27.2783Z" fill="#805EE9"/>
<path d="M127.327 27.2783C127.174 26.956 126.852 26.751 126.498 26.751C126.144 26.751 125.825 26.956 125.669 27.2783L123.819 31.1538L119.686 31.7748C119.34 31.8276 119.053 32.0736 118.946 32.4105C118.84 32.7474 118.926 33.1194 119.174 33.3684L122.172 36.3886L121.464 40.6566C121.407 41.0082 121.551 41.3656 121.836 41.5735C122.121 41.7815 122.498 41.8079 122.808 41.6409L126.501 39.6343L130.193 41.6409C130.504 41.8079 130.881 41.7845 131.166 41.5735C131.451 41.3626 131.595 41.0082 131.537 40.6566L130.826 36.3886L133.825 33.3684C134.073 33.1194 134.162 32.7474 134.053 32.4105C133.943 32.0736 133.658 31.8276 133.313 31.7748L129.177 31.1538L127.327 27.2783Z" fill="#805EE9"/>
<path d="M181.36 27.2783C181.208 26.956 180.886 26.751 180.532 26.751C180.178 26.751 179.858 26.956 179.703 27.2783L177.852 31.1538L173.719 31.7748C173.374 31.8276 173.086 32.0736 172.98 32.4105C172.873 32.7474 172.96 33.1194 173.207 33.3684L176.206 36.3886L175.498 40.6566C175.441 41.0082 175.584 41.3656 175.869 41.5735C176.154 41.7815 176.531 41.8079 176.842 41.6409L180.535 39.6343L184.227 41.6409C184.538 41.8079 184.915 41.7845 185.2 41.5735C185.485 41.3626 185.629 41.0082 185.571 40.6566L184.86 36.3886L187.859 33.3684C188.106 33.1194 188.196 32.7474 188.086 32.4105C187.977 32.0736 187.692 31.8276 187.347 31.7748L183.211 31.1538L181.36 27.2783Z" fill="#805EE9"/>
</svg>
