<svg width="253" height="97" viewBox="0 0 253 97" fill="none" xmlns="http://www.w3.org/2000/svg">
<path d="M72.045 36.6863C73.0289 36.6863 73.9724 36.2955 74.6681 35.5998C75.3638 34.9041 75.7547 33.9606 75.7547 32.9767C75.7547 31.9929 75.3638 31.0493 74.6681 30.3536C73.9724 29.6579 73.0289 29.2671 72.045 29.2671C71.0612 29.2671 70.1176 29.6579 69.422 30.3536C68.7263 31.0493 68.3354 31.9929 68.3354 32.9767C68.3354 33.9606 68.7263 34.9041 69.422 35.5998C70.1176 36.2955 71.0612 36.6863 72.045 36.6863ZM70.7206 38.0774C67.8659 38.0774 65.5532 40.3901 65.5532 43.2448C65.5532 43.7201 65.9387 44.1055 66.414 44.1055H77.6761C78.1514 44.1055 78.5369 43.7201 78.5369 43.2448C78.5369 40.3901 76.2242 38.0774 73.3695 38.0774H70.7206Z" fill="#805EE9"/>
<rect x="57.4939" y="22.7119" width="29.1023" height="27.9489" rx="1.5" stroke="#805EE9" stroke-opacity="0.4"/>
<path d="M126.5 36.6863C127.484 36.6863 128.428 36.2955 129.123 35.5998C129.819 34.9041 130.21 33.9606 130.21 32.9767C130.21 31.9929 129.819 31.0493 129.123 30.3536C128.428 29.6579 127.484 29.2671 126.5 29.2671C125.516 29.2671 124.573 29.6579 123.877 30.3536C123.181 31.0493 122.791 31.9929 122.791 32.9767C122.791 33.9606 123.181 34.9041 123.877 35.5998C124.573 36.2955 125.516 36.6863 126.5 36.6863ZM125.176 38.0774C122.321 38.0774 120.008 40.3901 120.008 43.2448C120.008 43.7201 120.394 44.1055 120.869 44.1055H132.131C132.606 44.1055 132.992 43.7201 132.992 43.2448C132.992 40.3901 130.679 38.0774 127.825 38.0774H125.176Z" fill="#805EE9"/>
<rect x="111.949" y="22.7119" width="29.1023" height="27.9489" rx="1.5" stroke="#805EE9" stroke-opacity="0.4"/>
<path d="M180.955 36.6863C181.939 36.6863 182.882 36.2955 183.578 35.5998C184.274 34.9041 184.665 33.9606 184.665 32.9767C184.665 31.9929 184.274 31.0493 183.578 30.3536C182.882 29.6579 181.939 29.2671 180.955 29.2671C179.971 29.2671 179.028 29.6579 178.332 30.3536C177.636 31.0493 177.245 31.9929 177.245 32.9767C177.245 33.9606 177.636 34.9041 178.332 35.5998C179.028 36.2955 179.971 36.6863 180.955 36.6863ZM179.631 38.0774C176.776 38.0774 174.463 40.3901 174.463 43.2448C174.463 43.7201 174.849 44.1055 175.324 44.1055H186.586C187.061 44.1055 187.447 43.7201 187.447 43.2448C187.447 40.3901 185.134 38.0774 182.279 38.0774H179.631Z" fill="#805EE9"/>
<rect x="166.404" y="22.7119" width="29.1023" height="27.9489" rx="1.5" stroke="#805EE9" stroke-opacity="0.4"/>
<rect x="50.9512" y="59.7588" width="43.03" height="2.82209" fill="#805EE9" fill-opacity="0.4"/>
<rect x="56.1604" y="65.6108" width="32.6115" height="2.82209" fill="#805EE9" fill-opacity="0.4"/>
<rect x="104.985" y="59.7588" width="43.03" height="2.82209" fill="#805EE9" fill-opacity="0.4"/>
<rect x="110.194" y="65.6108" width="32.6115" height="2.82209" fill="#805EE9" fill-opacity="0.4"/>
<rect x="159.019" y="59.7588" width="43.03" height="2.82209" fill="#805EE9" fill-opacity="0.4"/>
<rect x="164.228" y="65.6108" width="32.6115" height="2.82209" fill="#805EE9" fill-opacity="0.4"/>
</svg>
