<svg width="304" height="334" viewBox="0 0 304 334" fill="none" xmlns="http://www.w3.org/2000/svg">
    <g clip-path="url(#clip0_239_7391)">
        <path
            d="M83.2875 317.612C89.6015 323.733 85.1395 334.221 76.1735 334.221H20.0605C8.98947 334.221 -0.0195312 325.488 -0.0195312 314.756V260.358C-0.0195312 251.666 10.7995 247.341 17.1135 253.462L83.2875 317.612Z"
            fill="#0A1551" />
        <path
            d="M171.003 321.845C154.393 305.343 154.394 278.589 171.003 262.088L230.947 202.535C247.557 186.033 274.486 186.033 291.096 202.535C307.705 219.036 307.705 245.79 291.096 262.292L231.152 321.845C214.542 338.346 187.613 338.346 171.003 321.845Z"
            fill="#FFB629" />
        <path
            d="M12.6403 172.204C-3.96866 155.703 -3.96866 128.949 12.6403 112.447L113.52 12.1551C130.129 -4.34694 157.059 -4.34694 173.669 12.1551C190.278 28.6561 190.278 55.4101 173.669 71.9121L72.7893 172.204C56.1793 188.705 29.2503 188.705 12.6403 172.204Z"
            fill="#0099FF" />
        <path
            d="M95.1079 243.686C78.4979 227.185 78.4979 200.43 95.1079 183.929L231.414 48.511C248.024 32.009 274.953 32.009 291.563 48.511C308.173 65.012 308.173 91.766 291.563 108.268L155.256 243.686C138.647 260.187 111.717 260.187 95.1079 243.686Z"
            fill="#FF6100" />
    </g>
    <defs>
        <clipPath id="clip0_239_7391">
            <rect width="304" height="334" fill="white" />
        </clipPath>
    </defs>
</svg>