<svg width="253" height="96" viewBox="0 0 253 96" fill="none" xmlns="http://www.w3.org/2000/svg">
<line x1="23.9336" y1="10.9565" x2="23.9336" y2="88.3398" stroke="#805EE9"/>
<line x1="65.1602" y1="10.9565" x2="65.1602" y2="88.3398" stroke="#805EE9"/>
<line x1="106.387" y1="10.9565" x2="106.387" y2="88.3398" stroke="#805EE9"/>
<line x1="147.613" y1="10.9565" x2="147.613" y2="88.3398" stroke="#805EE9"/>
<line x1="188.84" y1="10.9565" x2="188.84" y2="88.3398" stroke="#805EE9"/>
<line x1="230.066" y1="10.9565" x2="230.066" y2="88.3398" stroke="#805EE9"/>
<rect x="26.9712" y="25.647" width="34.7378" height="8.57959" fill="#CCBFF6"/>
<rect x="26.9712" y="36.4868" width="34.7378" height="8.57959" fill="#CCBFF6"/>
<rect x="26.9712" y="47.3267" width="34.7378" height="8.57959" fill="#805EE9"/>
<rect x="68.3232" y="25.647" width="34.7378" height="8.57959" fill="#CCBFF6"/>
<rect x="109.675" y="25.647" width="34.7378" height="8.57959" fill="#805EE9"/>
<rect x="151.027" y="25.647" width="34.7378" height="8.57959" fill="#CCBFF6"/>
<rect x="192.375" y="25.647" width="34.7378" height="8.57959" fill="#CCBFF6"/>
<rect x="68.3232" y="36.4868" width="34.7378" height="8.57959" fill="#CCBFF6"/>
<rect x="109.675" y="36.4868" width="34.7378" height="8.57959" fill="#CCBFF6"/>
<rect x="192.375" y="36.4868" width="34.7378" height="8.57959" fill="#805EE9"/>
<rect x="109.675" y="47.3267" width="34.7378" height="8.57959" fill="#CCBFF6"/>
<rect x="192.375" y="47.3267" width="34.7378" height="8.57959" fill="#CCBFF6"/>
<rect x="26.9712" y="58.1665" width="34.7378" height="8.57959" fill="#CCBFF6"/>
<path d="M40.122 11.1924H42.5872L45.1909 17.5447H45.3017L47.9054 11.1924H50.3706V20.647H48.4317V14.4932H48.3532L45.9065 20.6008H44.5862L42.1394 14.4701H42.0609V20.647H40.122V11.1924Z" fill="#805EE9"/>
<path d="M80.4919 12.8405V11.1924H88.2568V12.8405H85.3623V20.647H83.3865V12.8405H80.4919Z" fill="#805EE9"/>
<path d="M120.711 20.647L118.006 11.1924H120.189L121.754 17.7617H121.833L123.56 11.1924H125.429L127.151 17.7755H127.234L128.799 11.1924H130.983L128.278 20.647H126.329L124.529 14.4655H124.455L122.659 20.647H120.711Z" fill="#805EE9"/>
<path d="M160.684 12.8405V11.1924H168.449V12.8405H165.554V20.647H163.578V12.8405H160.684ZM171.657 16.5475V20.647H169.691V11.1924H171.602V14.8071H171.685C171.845 14.3886 172.103 14.0608 172.46 13.8238C172.817 13.5838 173.265 13.4637 173.804 13.4637C174.296 13.4637 174.726 13.5715 175.092 13.7869C175.461 13.9992 175.747 14.3055 175.951 14.7056C176.157 15.1026 176.258 15.5781 176.255 16.1321V20.647H174.289V16.4829C174.292 16.0459 174.181 15.7058 173.956 15.4627C173.735 15.2195 173.424 15.098 173.024 15.098C172.756 15.098 172.519 15.1549 172.313 15.2688C172.11 15.3826 171.95 15.5488 171.833 15.7674C171.719 15.9828 171.66 16.2429 171.657 16.5475Z" fill="#805EE9"/>
<path d="M206.763 20.647V11.1924H213.023V12.8405H208.762V15.0934H212.608V16.7414H208.762V20.647H206.763Z" fill="#805EE9"/>
</svg>
