<svg width="600" height="315" viewBox="0 0 600 315" fill="none" xmlns="http://www.w3.org/2000/svg">
<rect width="600" height="315" fill="#E5E0DF"/>
<g style="mix-blend-mode:multiply" opacity="0.5">
<path d="M299.869 204.885V224.411L239.479 190.229V121.865L299.869 87.6837L317.124 97.4682L256.734 131.65V180.487L299.869 204.885Z" fill="#A6A6A6"/>
<path d="M256.734 180.487L299.869 204.885V224.411L239.479 190.229" fill="#B3B3B3"/>
<path d="M299.869 156.047V175.616L343.005 151.176V180.487L299.869 204.885V224.411L360.259 190.229V121.865L299.869 156.047Z" fill="#BFBFBF"/>
<path d="M317.124 97.4682V116.995L273.988 141.435V170.703L256.734 180.487V131.65L317.124 97.4682Z" fill="#CCCCCC"/>
<path d="M325.751 160.961V170.703L343.005 180.487V151.176L325.751 160.961Z" fill="#CCCCCC"/>
<path d="M282.615 146.305V165.832L299.869 175.616V156.047L282.615 146.305Z" fill="#E6E6E6"/>
<path d="M282.615 146.305L299.869 156.047L360.259 121.865L343.005 112.124L282.615 146.305Z" fill="#D9D9D9"/>
<path d="M256.734 180.487L299.869 204.885L343.005 180.487L325.751 170.703L299.869 185.358L273.988 170.703L256.734 180.487Z" fill="#E6E6E6"/>
</g>
</svg>
