<svg width="25" height="30" viewBox="0 0 25 30" fill="none" xmlns="http://www.w3.org/2000/svg">
  <path fill-rule="evenodd" clip-rule="evenodd"
    d="M12.6765 27.6334C19.6775 27.6334 25.3529 21.9564 25.3529 14.9534C25.3529 7.95047 19.6775 2.27344 12.6765 2.27344C5.67545 2.27344 0 7.95047 0 14.9534C0 21.9564 5.67545 27.6334 12.6765 27.6334ZM11.7 5.51295C11.7 4.96067 12.1477 4.51295 12.7 4.51295C13.2523 4.51295 13.7 4.96066 13.7 5.51295V24.3977C13.7 24.9499 13.2523 25.3977 12.7 25.3977C12.1477 25.3977 11.7 24.9499 11.7 24.3977V5.51295ZM9.69334 8.11642C7.06009 9.26754 5.21992 11.896 5.21992 14.9543C5.21992 18.0127 7.06009 20.6411 9.69334 21.7922V8.11642ZM15.6587 21.7928C18.2926 20.642 20.1334 18.0132 20.1334 14.9543C20.1334 11.8955 18.2926 9.26671 15.6587 8.11587V21.7928Z"
    fill="black" />
</svg>
  