<svg width="253" height="94" viewBox="0 0 253 94" fill="none" xmlns="http://www.w3.org/2000/svg">
    <g clip-path="url(#clip0_404_833)">
        <rect x="119" y="27" width="65.2865" height="2.82209" fill="#805EE9" fill-opacity="0.4" />
        <rect x="119" y="31.8223" width="55.6757" height="2.82209" fill="#805EE9" fill-opacity="0.4" />
        <rect x="130" y="47.8223" width="62" height="2.82209" fill="#805EE9" fill-opacity="0.4" />
        <rect x="130" y="52.6445" width="52.8729" height="2.82209" fill="#805EE9" fill-opacity="0.4" />
        <rect x="141" y="67" width="54" height="2.82209" fill="#805EE9" fill-opacity="0.4" />
        <rect x="141" y="71.8223" width="46.0506" height="2.82209" fill="#805EE9" fill-opacity="0.4" />
        <path
            d="M92.2717 17.1274C92.8176 16.1819 94.1823 16.1819 94.7282 17.1274L129.078 76.6225C129.624 77.568 128.941 78.7499 127.849 78.7499H59.1504C58.0587 78.7499 57.3763 77.568 57.9222 76.6225L92.2717 17.1274Z"
            stroke="#805EE9" />
        <line x1="67.5703" y1="60.3867" x2="119.83" y2="60.3867" stroke="#805EE9" />
        <path d="M78 42L109 42" stroke="#805EE9" stroke-linecap="round" />
        <path
            d="M93.4857 34.25C93.0614 34.25 92.6836 34.177 92.3522 34.0312C92.0226 33.8835 91.7622 33.6808 91.5709 33.4233C91.3815 33.1638 91.284 32.8645 91.2783 32.5255H92.5169C92.5245 32.6676 92.5709 32.7926 92.6561 32.9005C92.7433 33.0066 92.8588 33.089 93.0027 33.1477C93.1467 33.2064 93.3086 33.2358 93.4885 33.2358C93.676 33.2358 93.8417 33.2026 93.9857 33.1363C94.1296 33.07 94.2423 32.9782 94.3238 32.8608C94.4052 32.7433 94.4459 32.6079 94.4459 32.4545C94.4459 32.2992 94.4024 32.1619 94.3152 32.0426C94.23 31.9214 94.1069 31.8267 93.9459 31.7585C93.7868 31.6903 93.5974 31.6562 93.3777 31.6562H92.8351V30.7528H93.3777C93.5633 30.7528 93.7272 30.7206 93.8692 30.6562C94.0131 30.5918 94.1249 30.5028 94.2044 30.3892C94.284 30.2736 94.3238 30.1392 94.3238 29.9858C94.3238 29.8399 94.2887 29.7121 94.2186 29.6022C94.1505 29.4905 94.0539 29.4034 93.9289 29.3409C93.8058 29.2784 93.6618 29.2471 93.497 29.2471C93.3304 29.2471 93.1779 29.2774 93.0397 29.338C92.9014 29.3967 92.7906 29.481 92.7073 29.5909C92.6239 29.7007 92.5794 29.8295 92.5738 29.9772H91.3948C91.4005 29.642 91.4961 29.3465 91.6817 29.0909C91.8673 28.8352 92.1173 28.6354 92.4317 28.4914C92.748 28.3456 93.105 28.2727 93.5027 28.2727C93.9042 28.2727 94.2556 28.3456 94.5567 28.4914C94.8578 28.6373 95.0917 28.8342 95.2584 29.0823C95.427 29.3286 95.5103 29.6051 95.5084 29.9119C95.5103 30.2376 95.409 30.5094 95.2044 30.7272C95.0018 30.945 94.7376 31.0833 94.4118 31.142V31.1875C94.8399 31.2424 95.1656 31.3911 95.3891 31.6335C95.6145 31.874 95.7262 32.1751 95.7243 32.5369C95.7262 32.8683 95.6306 33.1628 95.4374 33.4204C95.2461 33.678 94.9819 33.8806 94.6448 34.0284C94.3077 34.1761 93.9213 34.25 93.4857 34.25Z"
            fill="#805EE9" />
        <path
            d="M91.4523 53.0747V52.1883L93.5233 50.2707C93.6995 50.1003 93.8472 49.9469 93.9665 49.8105C94.0877 49.6741 94.1796 49.5406 94.2421 49.4099C94.3046 49.2774 94.3358 49.1344 94.3358 48.981C94.3358 48.8105 94.297 48.6637 94.2194 48.5406C94.1417 48.4156 94.0356 48.32 93.9012 48.2537C93.7667 48.1855 93.6142 48.1514 93.4438 48.1514C93.2658 48.1514 93.1104 48.1874 92.9779 48.2594C92.8453 48.3313 92.743 48.4346 92.6711 48.569C92.5991 48.7035 92.5631 48.8635 92.5631 49.0491H91.3955C91.3955 48.6685 91.4817 48.338 91.654 48.0577C91.8264 47.7774 92.0678 47.5605 92.3784 47.4071C92.689 47.2537 93.047 47.177 93.4523 47.177C93.869 47.177 94.2317 47.2508 94.5404 47.3986C94.851 47.5444 95.0925 47.7471 95.2648 48.0065C95.4372 48.266 95.5233 48.5633 95.5233 48.8986C95.5233 49.1183 95.4798 49.3351 95.3926 49.5491C95.3074 49.7632 95.155 50.0008 94.9353 50.2622C94.7156 50.5217 94.4059 50.8332 94.0063 51.1969L93.1569 52.0293V52.069H95.6V53.0747H91.4523Z"
            fill="#805EE9" />
        <path
            d="M94.5461 66.6237V72.4419H93.316V67.7913H93.2819L91.9495 68.6266V67.5356L93.3899 66.6237H94.5461Z"
            fill="#805EE9" />
    </g>
    <defs>
        <clipPath id="clip0_404_833">
            <rect width="253" height="94" fill="white" />
        </clipPath>
    </defs>
</svg>