<svg xmlns="http://www.w3.org/2000/svg" xmlns:xlink="http://www.w3.org/1999/xlink" width="112" height="112">
	<path d="M0 0L18.2797 0L93.6802 0L112 0L112 18.8194L112 93.4519L112 112L93.6907 112L18.3175 112L0 112L0 93.6721L0 18.2383L0 0ZM93.6907 112L112 112L112 93.4519C111.235 95.0589 110.803 96.8027 110.072 98.4311C107.37 104.452 103.107 108.566 96.878 110.779C95.9528 111.108 94.4623 111.413 93.6907 112ZM93.6802 0C95.321 0.88183 97.184 1.21143 98.8658 2.00425C105.676 5.21447 109.385 10.3832 111.516 17.4642C111.655 17.9272 111.769 18.3914 112 18.8194L112 0L93.6802 0ZM0 93.6721L0 112L18.3175 112C16.8652 110.995 13.379 110.052 11.5281 109.095C7.36448 106.943 3.49939 103.092 1.78356 98.6646C1.16244 97.0621 0.855989 95.231 0.0311466 93.728L0 93.6721ZM0 0L0 18.2383C0.895119 16.8619 1.22998 14.9181 1.86676 13.3867Q2.26151 12.4448 2.74344 11.5443Q3.22536 10.6439 3.79016 9.79295Q4.35495 8.94203 4.99756 8.14824Q5.64017 7.35445 6.35487 6.62488Q7.06956 5.89531 7.84995 5.23648Q8.63033 4.57765 9.46944 3.99545Q10.3085 3.41325 11.1989 2.91287Q12.0892 2.4125 13.0228 1.99843C14.7344 1.2275 16.5478 0.723814 18.2797 0L0 0Z"/>
	<path fill="#FEFEFE" d="M49.5385 17.3047C56.3059 16.9374 63.4522 19.251 68.8673 23.2854C74.2009 27.2591 77.9635 33.1369 78.9281 39.7563C79.838 46.0004 78.0227 52.4075 74.2597 57.4387C69.2905 64.0825 61.9865 67.4568 53.9516 68.6052C62.4237 69.32 71.2493 68.8316 79.7599 68.8312L90.9202 88.7402C82.7746 88.9895 74.5881 88.8354 66.4375 88.8424L61.4377 88.8014C58.0612 81.8172 53.0784 75.3354 50.2443 68.1299L50.254 88.7828C40.5446 88.9948 30.7886 88.8326 21.0763 88.8012C24.2134 76.8594 28.0998 65.1113 31.1793 53.1546L40.9178 53.163C39.5623 43.6093 39.8624 30.7182 44.432 22.1412C45.5862 19.9749 47.1095 18.0495 49.5385 17.3047Z"/>
	<path d="M49.7487 21.8895C50.4864 21.9492 51.0071 22.047 51.5527 22.5982C55.2503 26.3342 55.538 38.2718 55.52 43.5422C55.5003 49.3534 55.1102 59.9726 50.9305 64.1248Q50.8589 64.1216 50.7873 64.1176C49.8987 64.0672 49.4099 63.9044 48.8074 63.2209C44.777 58.6489 44.9347 43.2605 45.3131 37.0931C45.5888 32.6012 46.1571 25.0658 49.7487 21.8895Z"/>
</svg>
