<svg width="253" height="94" viewBox="0 0 253 94" fill="none" xmlns="http://www.w3.org/2000/svg">
    <rect width="65.2865" height="2.82209" transform="matrix(1 0 0 -1 134 70.644)" fill="#805EE9"
        fill-opacity="0.4" />
    <rect width="55.6757" height="2.82209" transform="matrix(1 0 0 -1 134 65.8218)" fill="#805EE9"
        fill-opacity="0.4" />
    <rect width="62" height="2.82209" transform="matrix(1 0 0 -1 110 50.644)" fill="#805EE9"
        fill-opacity="0.4" />
    <rect width="52.8729" height="2.82209" transform="matrix(1 0 0 -1 110 45.8218)" fill="#805EE9"
        fill-opacity="0.4" />
    <rect width="54" height="2.82209" transform="matrix(1 0 0 -1 88 31.644)" fill="#805EE9"
        fill-opacity="0.4" />
    <rect width="46.0506" height="2.82209" transform="matrix(1 0 0 -1 88 26.8218)" fill="#805EE9"
        fill-opacity="0.4" />
    <rect x="53" y="21" width="28" height="16" rx="2" stroke="#805EE9" stroke-linejoin="round" />
    <rect x="53" y="40" width="49" height="16" rx="2" stroke="#805EE9" stroke-linejoin="round" />
    <rect x="53" y="59" width="73" height="16" rx="2" stroke="#805EE9" stroke-linejoin="round" />
    <path
        d="M62.409 70.351C61.9848 70.351 61.6069 70.2781 61.2755 70.1323C60.946 69.9846 60.6855 69.7819 60.4943 69.5243C60.3049 69.2649 60.2073 68.9656 60.2016 68.6266H61.4403C61.4479 68.7686 61.4943 68.8936 61.5795 69.0016C61.6666 69.1077 61.7821 69.19 61.9261 69.2488C62.07 69.3075 62.2319 69.3368 62.4119 69.3368C62.5994 69.3368 62.7651 69.3037 62.909 69.2374C63.053 69.1711 63.1657 69.0792 63.2471 68.9618C63.3285 68.8444 63.3693 68.709 63.3693 68.5556C63.3693 68.4003 63.3257 68.263 63.2386 68.1436C63.1533 68.0224 63.0302 67.9277 62.8693 67.8596C62.7102 67.7914 62.5208 67.7573 62.3011 67.7573H61.7585V66.8539H62.3011C62.4867 66.8539 62.6505 66.8217 62.7925 66.7573C62.9365 66.6929 63.0482 66.6039 63.1278 66.4902C63.2073 66.3747 63.2471 66.2402 63.2471 66.0868C63.2471 65.941 63.2121 65.8132 63.142 65.7033C63.0738 65.5916 62.9772 65.5044 62.8522 65.4419C62.7291 65.3794 62.5852 65.3482 62.4204 65.3482C62.2537 65.3482 62.1013 65.3785 61.963 65.4391C61.8247 65.4978 61.7139 65.5821 61.6306 65.6919C61.5473 65.8018 61.5028 65.9306 61.4971 66.0783H60.3181C60.3238 65.7431 60.4194 65.4476 60.605 65.1919C60.7907 64.9363 61.0407 64.7364 61.355 64.5925C61.6713 64.4467 62.0283 64.3738 62.4261 64.3738C62.8276 64.3738 63.1789 64.4467 63.48 64.5925C63.7812 64.7383 64.0151 64.9353 64.1818 65.1834C64.3503 65.4296 64.4336 65.7061 64.4318 66.013C64.4336 66.3387 64.3323 66.6105 64.1278 66.8283C63.9251 67.0461 63.6609 67.1844 63.3352 67.2431V67.2885C63.7632 67.3435 64.089 67.4921 64.3124 67.7346C64.5378 67.9751 64.6496 68.2762 64.6477 68.638C64.6496 68.9694 64.5539 69.2639 64.3607 69.5215C64.1694 69.7791 63.9052 69.9817 63.5681 70.1294C63.231 70.2772 62.8446 70.351 62.409 70.351Z"
        fill="#805EE9" />
    <path
        d="M60.3756 51.3672V50.4808L62.4467 48.5632C62.6228 48.3928 62.7705 48.2393 62.8898 48.103C63.0111 47.9666 63.1029 47.8331 63.1654 47.7024C63.2279 47.5698 63.2592 47.4268 63.2592 47.2734C63.2592 47.103 63.2203 46.9562 63.1427 46.8331C63.065 46.7081 62.959 46.6125 62.8245 46.5462C62.69 46.478 62.5376 46.4439 62.3671 46.4439C62.1891 46.4439 62.0338 46.4799 61.9012 46.5518C61.7686 46.6238 61.6664 46.727 61.5944 46.8615C61.5224 46.996 61.4864 47.156 61.4864 47.3416H60.3188C60.3188 46.9609 60.405 46.6304 60.5773 46.3501C60.7497 46.0698 60.9912 45.853 61.3018 45.6996C61.6124 45.5462 61.9703 45.4695 62.3756 45.4695C62.7923 45.4695 63.155 45.5433 63.4637 45.6911C63.7743 45.8369 64.0158 46.0395 64.1881 46.299C64.3605 46.5585 64.4467 46.8558 64.4467 47.1911C64.4467 47.4107 64.4031 47.6276 64.316 47.8416C64.2308 48.0556 64.0783 48.2933 63.8586 48.5547C63.6389 48.8142 63.3292 49.1257 62.9296 49.4893L62.0802 50.3217V50.3615H64.5234V51.3672H60.3756Z"
        fill="#805EE9" />
    <path
        d="M63.4695 26.1818V32H62.2394V27.3494H62.2053L60.8729 28.1847V27.0938L62.3132 26.1818H63.4695Z"
        fill="#805EE9" />
</svg>