<svg width="2144" height="1534" viewBox="0 0 2144 1534" fill="none" xmlns="http://www.w3.org/2000/svg">
<g clip-path="url(#clip0_21_154)">
<path d="M1574 348.979C1573.43 349.056 1573.06 349.092 1572.69 349.159C1571.23 349.428 1569.74 349.594 1568.33 350.004C1564.94 350.987 1562.67 353.138 1561.53 356.362C1561 357.867 1560.7 359.416 1560.56 360.994C1560.54 361.326 1560.52 361.659 1560.39 362C1560.26 361.025 1560.15 360.047 1559.99 359.076C1559.75 357.602 1559.32 356.178 1558.61 354.838C1557.16 352.069 1554.72 350.508 1551.67 349.763C1550.45 349.467 1549.19 349.345 1547.94 349.147C1547.63 349.096 1547.31 349.059 1547 348.946C1548.18 348.785 1549.36 348.675 1550.53 348.446C1551.5 348.253 1552.48 347.988 1553.41 347.638C1556.25 346.563 1558.15 344.589 1559.19 341.85C1559.75 340.388 1560.06 338.874 1560.21 337.325C1560.26 336.879 1560.34 336.436 1560.4 336C1560.62 337.36 1560.79 338.714 1561.08 340.042C1562.12 344.787 1565.24 347.521 1570.16 348.432C1571.36 348.653 1572.58 348.779 1574 348.979Z" fill="white"/>
<path d="M2068 57.9792C2067.43 58.0557 2067.06 58.0915 2066.69 58.1591C2065.23 58.4278 2063.74 58.5939 2062.33 59.0042C2058.94 59.9871 2056.67 62.1379 2055.53 65.3622C2055 66.8673 2054.7 68.4157 2054.56 69.9944C2054.54 70.3261 2054.52 70.6588 2054.39 71C2054.26 70.0251 2054.15 69.0467 2053.99 68.0763C2053.75 66.6021 2053.32 65.1783 2052.61 63.8376C2051.16 61.069 2048.72 59.5082 2045.67 58.7634C2044.45 58.4665 2043.19 58.3451 2041.94 58.1468C2041.63 58.0963 2041.31 58.0585 2041 57.9458C2042.18 57.7846 2043.36 57.6751 2044.53 57.4462C2045.5 57.2532 2046.48 56.9884 2047.41 56.6383C2050.25 55.5635 2052.15 53.5895 2053.19 50.8503C2053.75 49.3879 2054.06 47.8735 2054.21 46.3251C2054.26 45.8788 2054.34 45.4358 2054.4 45C2054.62 46.3598 2054.79 47.714 2055.08 49.0423C2056.12 53.7873 2059.24 56.5207 2064.16 57.4316C2065.36 57.6533 2066.58 57.7786 2068 57.9792Z" fill="white"/>
<path d="M1636 587.979C1635.43 588.056 1635.06 588.092 1634.69 588.159C1633.23 588.428 1631.74 588.594 1630.33 589.004C1626.94 589.987 1624.67 592.138 1623.53 595.362C1623 596.867 1622.7 598.416 1622.56 599.994C1622.54 600.326 1622.52 600.659 1622.39 601C1622.26 600.025 1622.15 599.047 1621.99 598.076C1621.75 596.602 1621.32 595.178 1620.61 593.838C1619.16 591.069 1616.72 589.508 1613.67 588.763C1612.45 588.467 1611.19 588.345 1609.94 588.147C1609.63 588.096 1609.31 588.059 1609 587.946C1610.18 587.785 1611.36 587.675 1612.53 587.446C1613.5 587.253 1614.48 586.988 1615.41 586.638C1618.25 585.563 1620.15 583.589 1621.19 580.85C1621.75 579.388 1622.06 577.874 1622.21 576.325C1622.26 575.879 1622.34 575.436 1622.4 575C1622.62 576.36 1622.79 577.714 1623.08 579.042C1624.12 583.787 1627.24 586.521 1632.16 587.432C1633.36 587.653 1634.58 587.779 1636 587.979Z" fill="white"/>
<path d="M1756 1102.47C1755.24 1102.58 1754.74 1102.62 1754.25 1102.71C1752.31 1103.08 1750.32 1103.3 1748.43 1103.85C1743.92 1105.17 1740.89 1108.07 1739.37 1112.41C1738.66 1114.44 1738.27 1116.52 1738.09 1118.65C1738.05 1119.09 1738.03 1119.54 1737.86 1120C1737.68 1118.69 1737.54 1117.37 1737.32 1116.06C1736.99 1114.08 1736.42 1112.16 1735.48 1110.36C1733.54 1106.63 1730.29 1104.53 1726.22 1103.53C1724.6 1103.13 1722.92 1102.96 1721.26 1102.7C1720.84 1102.63 1720.42 1102.58 1720 1102.43C1721.57 1102.21 1723.15 1102.06 1724.7 1101.75C1726 1101.49 1727.31 1101.14 1728.54 1100.67C1732.34 1099.22 1734.87 1096.56 1736.25 1092.88C1737 1090.91 1737.42 1088.87 1737.62 1086.78C1737.68 1086.18 1737.78 1085.59 1737.87 1085C1738.17 1086.83 1738.38 1088.65 1738.77 1090.44C1740.17 1096.83 1744.32 1100.51 1750.88 1101.73C1752.48 1102.03 1754.1 1102.2 1756 1102.47Z" fill="white"/>
<path d="M1986 962.465C1985.24 962.568 1984.74 962.616 1984.25 962.707C1982.31 963.069 1980.32 963.292 1978.43 963.845C1973.92 965.168 1970.89 968.063 1969.37 972.403C1968.66 974.429 1968.27 976.514 1968.09 978.639C1968.05 979.086 1968.03 979.533 1967.86 979.993C1967.68 978.68 1967.54 977.363 1967.32 976.057C1966.99 974.073 1966.42 972.156 1965.48 970.351C1963.54 966.624 1960.29 964.523 1956.22 963.52C1954.6 963.121 1952.92 962.957 1951.26 962.69C1950.84 962.622 1950.42 962.572 1950 962.42C1951.57 962.203 1953.15 962.055 1954.7 961.747C1956 961.487 1957.31 961.131 1958.54 960.66C1962.34 959.213 1964.87 956.556 1966.25 952.868C1967 950.899 1967.42 948.861 1967.62 946.777C1967.68 946.176 1967.78 945.579 1967.87 944.993C1968.17 946.823 1968.38 948.646 1968.77 950.434C1970.17 956.822 1974.32 960.501 1980.88 961.728C1982.48 962.026 1984.1 962.195 1986 962.465Z" fill="white"/>
<path d="M2134 773.48C2133.45 773.554 2133.09 773.588 2132.74 773.653C2131.33 773.911 2129.9 774.071 2128.54 774.466C2125.27 775.411 2123.09 777.479 2121.99 780.579C2121.48 782.026 2121.2 783.515 2121.06 785.033C2121.03 785.352 2121.02 785.672 2120.9 786C2120.77 785.063 2120.66 784.122 2120.51 783.189C2120.27 781.771 2119.86 780.402 2119.18 779.113C2117.78 776.451 2115.43 774.95 2112.5 774.234C2111.32 773.949 2110.11 773.832 2108.91 773.641C2108.61 773.593 2108.3 773.556 2108 773.448C2109.13 773.293 2110.28 773.188 2111.4 772.968C2112.34 772.782 2113.28 772.527 2114.17 772.191C2116.91 771.157 2118.74 769.259 2119.74 766.625C2120.27 765.219 2120.58 763.763 2120.72 762.274C2120.77 761.845 2120.84 761.419 2120.9 761C2121.12 762.307 2121.28 763.61 2121.56 764.887C2122.56 769.449 2125.57 772.078 2130.3 772.953C2131.46 773.167 2132.63 773.287 2134 773.48Z" fill="white"/>
<path d="M1527 1311.48C1526.5 1311.55 1526.16 1311.58 1525.84 1311.64C1524.54 1311.88 1523.21 1312.03 1521.96 1312.39C1518.94 1313.26 1516.93 1315.16 1515.91 1318.01C1515.44 1319.34 1515.18 1320.71 1515.06 1322.11C1515.03 1322.4 1515.02 1322.7 1514.91 1323C1514.79 1322.14 1514.69 1321.27 1514.55 1320.41C1514.33 1319.11 1513.95 1317.85 1513.32 1316.66C1512.03 1314.21 1509.86 1312.83 1507.15 1312.18C1506.07 1311.91 1504.94 1311.81 1503.84 1311.63C1503.56 1311.59 1503.28 1311.55 1503 1311.45C1504.05 1311.31 1505.1 1311.21 1506.13 1311.01C1507 1310.84 1507.87 1310.61 1508.7 1310.3C1511.22 1309.34 1512.91 1307.6 1513.84 1305.18C1514.33 1303.88 1514.61 1302.54 1514.75 1301.17C1514.79 1300.78 1514.86 1300.39 1514.91 1300C1515.11 1301.2 1515.26 1302.4 1515.52 1303.58C1516.44 1307.77 1519.22 1310.19 1523.59 1311C1524.65 1311.19 1525.73 1311.3 1527 1311.48Z" fill="white"/>
<path d="M1119 1455.48C1118.5 1455.55 1118.16 1455.58 1117.84 1455.64C1116.54 1455.88 1115.21 1456.03 1113.96 1456.39C1110.94 1457.26 1108.93 1459.16 1107.91 1462.01C1107.44 1463.34 1107.18 1464.71 1107.06 1466.11C1107.03 1466.4 1107.02 1466.7 1106.91 1467C1106.79 1466.14 1106.69 1465.27 1106.55 1464.41C1106.33 1463.11 1105.95 1461.85 1105.32 1460.66C1104.03 1458.21 1101.86 1456.83 1099.15 1456.18C1098.07 1455.91 1096.94 1455.81 1095.84 1455.63C1095.56 1455.59 1095.28 1455.55 1095 1455.45C1096.05 1455.31 1097.1 1455.21 1098.13 1455.01C1099 1454.84 1099.87 1454.61 1100.7 1454.3C1103.22 1453.34 1104.91 1451.6 1105.84 1449.18C1106.33 1447.88 1106.61 1446.54 1106.75 1445.17C1106.79 1444.78 1106.86 1444.39 1106.91 1444C1107.11 1445.2 1107.26 1446.4 1107.52 1447.58C1108.44 1451.77 1111.22 1454.19 1115.59 1455C1116.65 1455.19 1117.73 1455.3 1119 1455.48Z" fill="white"/>
<path d="M1789 1171.47C1788.5 1171.54 1788.16 1171.57 1787.84 1171.63C1786.54 1171.87 1785.21 1172.02 1783.96 1172.38C1780.94 1173.25 1778.93 1175.15 1777.91 1178.01C1777.44 1179.34 1777.18 1180.71 1777.06 1182.1C1777.03 1182.4 1777.02 1182.69 1776.91 1182.99C1776.79 1182.13 1776.69 1181.26 1776.55 1180.41C1776.33 1179.1 1775.95 1177.84 1775.32 1176.66C1774.03 1174.21 1771.86 1172.83 1769.15 1172.17C1768.07 1171.91 1766.94 1171.8 1765.84 1171.62C1765.56 1171.58 1765.28 1171.54 1765 1171.44C1766.05 1171.3 1767.1 1171.21 1768.13 1171C1769 1170.83 1769.87 1170.6 1770.7 1170.29C1773.22 1169.34 1774.91 1167.59 1775.84 1165.17C1776.33 1163.87 1776.61 1162.53 1776.75 1161.16C1776.79 1160.77 1776.86 1160.38 1776.91 1159.99C1777.11 1161.2 1777.26 1162.39 1777.52 1163.57C1778.44 1167.77 1781.22 1170.18 1785.59 1170.99C1786.65 1171.19 1787.73 1171.3 1789 1171.47Z" fill="white"/>
<circle cx="1920.5" cy="380.5" r="3.5" fill="white"/>
<circle cx="1584.5" cy="393.5" r="3.5" fill="white"/>
<circle cx="1515.5" cy="513.5" r="3.5" fill="white"/>
<circle cx="2025.5" cy="214.5" r="3.5" fill="white"/>
<circle cx="1639.5" cy="831.5" r="3.5" fill="white"/>
<circle cx="1495.5" cy="980.5" r="3.5" fill="white"/>
<circle cx="2067.19" cy="1103.51" r="3.5" fill="white"/>
<circle cx="2037.5" cy="681.5" r="3.5" fill="white"/>
<circle cx="1757.5" cy="840.493" r="3.5" fill="white"/>
<circle cx="1588.5" cy="1187.5" r="3.5" fill="white"/>
<circle cx="1818.5" cy="1047.49" r="3.5" fill="white"/>
<circle cx="1391.5" cy="1187.5" r="3.5" fill="white"/>
<circle cx="1933.5" cy="888.5" r="3.5" fill="white"/>
<circle cx="1653.5" cy="1047.49" r="3.5" fill="white"/>
<circle cx="1165.5" cy="1273.5" r="3.5" fill="white"/>
<circle cx="1451.5" cy="1133.49" r="3.5" fill="white"/>
<circle cx="2023.19" cy="1256.5" r="3.5" fill="white"/>
<circle cx="1993.5" cy="834.493" r="3.5" fill="white"/>
<circle cx="1204.5" cy="1113.5" r="3.5" fill="white"/>
<circle cx="1714.5" cy="782.5" r="3.5" fill="white"/>
<circle cx="1490.5" cy="941.493" r="3.5" fill="white"/>
<circle cx="2062.19" cy="1064.5" r="3.5" fill="white"/>
<circle cx="2032.5" cy="642.493" r="3.5" fill="white"/>
<circle cx="1034.5" cy="1082.5" r="3.5" fill="white"/>
<circle cx="1352.5" cy="910.493" r="3.5" fill="white"/>
<circle cx="1862.5" cy="611.493" r="3.5" fill="white"/>
<circle cx="957.5" cy="1184.5" r="3.5" fill="white"/>
<circle cx="885.5" cy="1015.5" r="3.5" fill="white"/>
<circle cx="1495.5" cy="722.5" r="3.5" fill="white"/>
<circle cx="2037.5" cy="423.5" r="3.5" fill="white"/>
<circle cx="1626.5" cy="223.5" r="3.5" fill="white"/>
<path d="M488.389 226.498C489.011 226.582 489.423 226.622 489.828 226.696C491.43 226.991 493.07 227.174 494.624 227.624C498.347 228.704 500.841 231.067 502.091 234.61C502.675 236.263 502.998 237.965 503.151 239.699C503.183 240.064 503.2 240.429 503.337 240.804C503.483 239.733 503.604 238.658 503.781 237.592C504.05 235.972 504.521 234.408 505.295 232.935C506.895 229.893 509.573 228.178 512.925 227.36C514.262 227.034 515.65 226.9 517.016 226.682C517.362 226.627 517.71 226.585 518.054 226.461C516.761 226.284 515.456 226.164 514.179 225.913C513.106 225.701 512.034 225.41 511.014 225.025C507.889 223.844 505.801 221.675 504.659 218.666C504.049 217.059 503.7 215.395 503.535 213.694C503.487 213.204 503.399 212.717 503.332 212.238C503.084 213.732 502.906 215.22 502.584 216.679C501.436 221.893 498.011 224.896 492.605 225.897C491.29 226.14 489.954 226.278 488.389 226.498Z" fill="white"/>
<path d="M405 496.48C405.524 496.554 405.872 496.588 406.212 496.653C407.563 496.911 408.945 497.071 410.254 497.466C413.392 498.411 415.494 500.479 416.548 503.579C417.04 505.026 417.312 506.515 417.44 508.033C417.468 508.352 417.482 508.672 417.597 509C417.72 508.063 417.823 507.122 417.972 506.189C418.199 504.771 418.596 503.402 419.248 502.113C420.596 499.451 422.853 497.95 425.678 497.234C426.804 496.949 427.974 496.832 429.125 496.641C429.417 496.593 429.71 496.556 430 496.448C428.91 496.293 427.811 496.188 426.735 495.968C425.83 495.782 424.927 495.527 424.068 495.191C421.434 494.157 419.674 492.259 418.712 489.625C418.198 488.219 417.904 486.763 417.764 485.274C417.724 484.845 417.65 484.419 417.593 484C417.385 485.307 417.234 486.61 416.963 487.887C415.996 492.449 413.109 495.078 408.553 495.953C407.445 496.167 406.319 496.287 405 496.48Z" fill="white"/>
<path d="M612 1307.2C612.829 1307.31 613.379 1307.36 613.918 1307.46C616.055 1307.86 618.241 1308.11 620.313 1308.71C625.277 1310.17 628.602 1313.35 630.27 1318.12C631.048 1320.34 631.478 1322.63 631.682 1324.97C631.725 1325.46 631.748 1325.95 631.93 1326.45C632.125 1325.01 632.287 1323.57 632.523 1322.13C632.882 1319.95 633.51 1317.84 634.542 1315.86C636.674 1311.77 640.245 1309.46 644.714 1308.36C646.497 1307.92 648.348 1307.74 650.169 1307.44C650.63 1307.37 651.094 1307.31 651.553 1307.15C649.829 1306.91 648.089 1306.75 646.387 1306.41C644.955 1306.12 643.526 1305.73 642.167 1305.21C638 1303.62 635.216 1300.7 633.694 1296.65C632.88 1294.49 632.415 1292.25 632.195 1289.96C632.131 1289.3 632.014 1288.64 631.923 1288C631.594 1290.01 631.355 1292.01 630.927 1293.98C629.396 1301 624.829 1305.04 617.621 1306.39C615.868 1306.71 614.087 1306.9 612 1307.2Z" fill="white"/>
<path d="M802 805.196C802.829 805.31 803.379 805.362 803.918 805.463C806.055 805.86 808.241 806.106 810.313 806.712C815.277 808.166 818.602 811.347 820.27 816.116C821.048 818.342 821.478 820.632 821.682 822.967C821.725 823.458 821.748 823.95 821.93 824.454C822.125 823.012 822.287 821.565 822.523 820.13C822.882 817.95 823.51 815.844 824.542 813.861C826.674 809.766 830.245 807.458 834.714 806.356C836.497 805.917 838.348 805.738 840.169 805.444C840.63 805.37 841.094 805.314 841.553 805.147C839.829 804.909 838.089 804.747 836.387 804.408C834.955 804.123 833.526 803.731 832.167 803.213C828 801.624 825.216 798.704 823.694 794.653C822.88 792.49 822.415 790.25 822.195 787.96C822.131 787.3 822.014 786.645 821.923 786C821.594 788.011 821.355 790.014 820.927 791.979C819.396 798.996 814.829 803.039 807.621 804.386C805.868 804.714 804.087 804.9 802 805.196Z" fill="white"/>
<path d="M202 634.976C202.65 635.064 203.081 635.106 203.503 635.184C205.178 635.494 206.891 635.685 208.515 636.159C212.406 637.293 215.012 639.775 216.319 643.495C216.929 645.231 217.267 647.018 217.426 648.84C217.46 649.222 217.478 649.606 217.621 650C217.773 648.875 217.9 647.746 218.085 646.626C218.366 644.926 218.858 643.283 219.667 641.736C221.339 638.541 224.138 636.74 227.64 635.881C229.037 635.538 230.488 635.398 231.915 635.169C232.277 635.111 232.641 635.068 233 634.937C231.649 634.751 230.285 634.625 228.951 634.361C227.829 634.138 226.709 633.833 225.644 633.429C222.378 632.189 220.196 629.911 219.003 626.75C218.365 625.063 218 623.316 217.828 621.529C217.778 621.014 217.686 620.503 217.615 620C217.357 621.569 217.17 623.131 216.834 624.664C215.634 630.139 212.055 633.293 206.406 634.344C205.032 634.6 203.636 634.745 202 634.976Z" fill="white"/>
<path d="M487.291 1275.2C487.844 1275.28 488.21 1275.31 488.569 1275.38C489.994 1275.64 491.451 1275.8 492.833 1276.2C496.142 1277.16 498.359 1279.25 499.47 1282.38C499.989 1283.84 500.276 1285.35 500.412 1286.88C500.441 1287.2 500.456 1287.53 500.577 1287.86C500.707 1286.91 500.815 1285.96 500.973 1285.02C501.212 1283.58 501.63 1282.2 502.318 1280.9C503.74 1278.21 506.121 1276.69 509.1 1275.97C510.289 1275.68 511.523 1275.56 512.737 1275.37C513.044 1275.32 513.354 1275.28 513.659 1275.17C512.51 1275.01 511.35 1274.91 510.215 1274.69C509.261 1274.5 508.308 1274.24 507.402 1273.9C504.624 1272.86 502.768 1270.94 501.753 1268.28C501.211 1266.85 500.9 1265.38 500.754 1263.88C500.711 1263.44 500.633 1263.01 500.573 1262.59C500.353 1263.91 500.194 1265.23 499.908 1266.52C498.888 1271.13 495.843 1273.79 491.038 1274.67C489.87 1274.89 488.682 1275.01 487.291 1275.2Z" fill="white"/>
<circle cx="3.84543" cy="3.84543" r="3.84543" transform="matrix(-1 0 0 1 1122.95 306.417)" fill="white"/>
<circle cx="3.84543" cy="3.84543" r="3.84543" transform="matrix(-1 0 0 1 463.119 262.778)" fill="white"/>
<circle cx="3.84543" cy="3.84543" r="3.84543" transform="matrix(-1 0 0 1 1031.69 616)" fill="white"/>
<circle cx="3.84543" cy="3.84543" r="3.84543" transform="matrix(-1 0 0 1 402.69 744.006)" fill="white"/>
<circle cx="3.84543" cy="3.84543" r="3.84543" transform="matrix(-1 0 0 1 631.69 744)" fill="white"/>
<circle cx="3.84543" cy="3.84543" r="3.84543" transform="matrix(-1 0 0 1 1348.69 456)" fill="white"/>
<circle cx="3.84543" cy="3.84543" r="3.84543" transform="matrix(-1 0 0 1 1274.69 270)" fill="white"/>
<circle cx="3.84543" cy="3.84543" r="3.84543" transform="matrix(-1 0 0 1 1416.69 304)" fill="white"/>
<circle cx="3.84543" cy="3.84543" r="3.84543" transform="matrix(-1 0 0 1 1677.69 344)" fill="white"/>
<circle cx="3.84543" cy="3.84543" r="3.84543" transform="matrix(-1 0 0 1 1774.69 383)" fill="white"/>
<circle cx="3.84543" cy="3.84543" r="3.84543" transform="matrix(-1 0 0 1 458.725 1135.14)" fill="white"/>
<circle cx="4" cy="4" r="4" transform="matrix(-1 0 0 1 640 1135)" fill="white"/>
<ellipse cx="4" cy="3.5" rx="4" ry="3.5" transform="matrix(-1 0 0 1 827 1230)" fill="white"/>
<ellipse cx="4" cy="3.5" rx="4" ry="3.5" transform="matrix(-1 0 0 1 784 1051)" fill="white"/>
<circle cx="3.84543" cy="3.84543" r="3.84543" transform="matrix(-1 0 0 1 1985.69 429)" fill="white"/>
<circle cx="3.84543" cy="3.84543" r="3.84543" transform="matrix(-1 0 0 1 325.691 1426)" fill="white"/>
<circle cx="3.84543" cy="3.84543" r="3.84543" transform="matrix(-1 0 0 1 726.691 175)" fill="white"/>
<ellipse cx="4" cy="3.5" rx="4" ry="3.5" transform="matrix(-1 0 0 1 971 1017)" fill="white"/>
<circle cx="4" cy="4" r="4" transform="matrix(-1 0 0 1 1064 1132)" fill="white"/>
<circle cx="3.84543" cy="3.84543" r="3.84543" transform="matrix(-1 0 0 1 1382 991.837)" fill="white"/>
<circle cx="3.84543" cy="3.84543" r="3.84543" transform="matrix(-1 0 0 1 1921.69 1114.84)" fill="white"/>
<circle cx="3.84543" cy="3.84543" r="3.84543" transform="matrix(-1 0 0 1 1892 692.837)" fill="white"/>
<circle cx="3.84543" cy="3.84543" r="3.84543" transform="matrix(-1 0 0 1 1046.42 911.007)" fill="white"/>
<circle cx="3.84543" cy="3.84543" r="3.84543" transform="matrix(-1 0 0 1 1364.42 771)" fill="white"/>
<circle cx="3.84543" cy="3.84543" r="3.84543" transform="matrix(-1 0 0 1 1874.42 472)" fill="white"/>
<path d="M1756 1102.47C1755.24 1102.58 1754.74 1102.62 1754.25 1102.71C1752.31 1103.08 1750.32 1103.3 1748.43 1103.85C1743.92 1105.17 1740.89 1108.07 1739.37 1112.41C1738.66 1114.44 1738.27 1116.52 1738.09 1118.65C1738.05 1119.09 1738.03 1119.54 1737.86 1120C1737.68 1118.69 1737.54 1117.37 1737.32 1116.06C1736.99 1114.08 1736.42 1112.16 1735.48 1110.36C1733.54 1106.63 1730.29 1104.53 1726.22 1103.53C1724.6 1103.13 1722.92 1102.96 1721.26 1102.7C1720.84 1102.63 1720.42 1102.58 1720 1102.43C1721.57 1102.21 1723.15 1102.06 1724.7 1101.75C1726 1101.49 1727.31 1101.14 1728.54 1100.67C1732.34 1099.22 1734.87 1096.56 1736.25 1092.88C1737 1090.91 1737.42 1088.87 1737.62 1086.78C1737.68 1086.18 1737.78 1085.59 1737.87 1085C1738.17 1086.83 1738.38 1088.65 1738.77 1090.44C1740.17 1096.83 1744.32 1100.51 1750.88 1101.73C1752.48 1102.03 1754.1 1102.2 1756 1102.47Z" fill="white"/>
<path d="M993 1463.47C992.245 1463.58 991.745 1463.62 991.254 1463.71C989.309 1464.08 987.32 1464.3 985.434 1464.85C980.916 1466.17 977.889 1469.07 976.371 1473.41C975.663 1475.44 975.271 1477.52 975.086 1479.65C975.047 1480.09 975.026 1480.54 974.86 1481C974.683 1479.69 974.535 1478.37 974.321 1477.06C973.994 1475.08 973.422 1473.16 972.483 1471.36C970.542 1467.63 967.292 1465.53 963.224 1464.53C961.602 1464.13 959.917 1463.96 958.26 1463.7C957.84 1463.63 957.417 1463.58 957 1463.43C958.569 1463.21 960.153 1463.06 961.702 1462.75C963.005 1462.49 964.305 1462.14 965.543 1461.67C969.336 1460.22 971.869 1457.56 973.255 1453.88C973.995 1451.91 974.419 1449.87 974.619 1447.78C974.678 1447.18 974.784 1446.59 974.866 1446C975.166 1447.83 975.383 1449.65 975.773 1451.44C977.166 1457.83 981.323 1461.51 987.883 1462.73C989.479 1463.03 991.1 1463.2 993 1463.47Z" fill="white"/>
<path d="M1743 1484.47C1742.24 1484.58 1741.74 1484.62 1741.25 1484.71C1739.31 1485.08 1737.32 1485.3 1735.43 1485.85C1730.92 1487.17 1727.89 1490.07 1726.37 1494.41C1725.66 1496.44 1725.27 1498.52 1725.09 1500.65C1725.05 1501.09 1725.03 1501.54 1724.86 1502C1724.68 1500.69 1724.54 1499.37 1724.32 1498.06C1723.99 1496.08 1723.42 1494.16 1722.48 1492.36C1720.54 1488.63 1717.29 1486.53 1713.22 1485.53C1711.6 1485.13 1709.92 1484.96 1708.26 1484.7C1707.84 1484.63 1707.42 1484.58 1707 1484.43C1708.57 1484.21 1710.15 1484.06 1711.7 1483.75C1713 1483.49 1714.31 1483.14 1715.54 1482.67C1719.34 1481.22 1721.87 1478.56 1723.25 1474.88C1724 1472.91 1724.42 1470.87 1724.62 1468.78C1724.68 1468.18 1724.78 1467.59 1724.87 1467C1725.17 1468.83 1725.38 1470.65 1725.77 1472.44C1727.17 1478.83 1731.32 1482.51 1737.88 1483.73C1739.48 1484.03 1741.1 1484.2 1743 1484.47Z" fill="white"/>
<path d="M1986 962.465C1985.24 962.568 1984.74 962.616 1984.25 962.707C1982.31 963.069 1980.32 963.292 1978.43 963.845C1973.92 965.168 1970.89 968.063 1969.37 972.403C1968.66 974.429 1968.27 976.514 1968.09 978.639C1968.05 979.086 1968.03 979.533 1967.86 979.993C1967.68 978.68 1967.54 977.363 1967.32 976.057C1966.99 974.073 1966.42 972.156 1965.48 970.351C1963.54 966.624 1960.29 964.523 1956.22 963.52C1954.6 963.121 1952.92 962.957 1951.26 962.69C1950.84 962.622 1950.42 962.572 1950 962.42C1951.57 962.203 1953.15 962.055 1954.7 961.747C1956 961.487 1957.31 961.131 1958.54 960.66C1962.34 959.213 1964.87 956.556 1966.25 952.868C1967 950.899 1967.42 948.861 1967.62 946.777C1967.68 946.176 1967.78 945.579 1967.87 944.993C1968.17 946.823 1968.38 948.646 1968.77 950.434C1970.17 956.822 1974.32 960.501 1980.88 961.728C1982.48 962.026 1984.1 962.195 1986 962.465Z" fill="white"/>
<path d="M1571 223.472C1570.24 223.575 1569.74 223.623 1569.25 223.714C1567.31 224.076 1565.32 224.299 1563.43 224.852C1558.92 226.175 1555.89 229.07 1554.37 233.411C1553.66 235.437 1553.27 237.521 1553.09 239.646C1553.05 240.093 1553.03 240.541 1552.86 241C1552.68 239.688 1552.54 238.37 1552.32 237.064C1551.99 235.08 1551.42 233.163 1550.48 231.358C1548.54 227.631 1545.29 225.53 1541.22 224.528C1539.6 224.128 1537.92 223.965 1536.26 223.698C1535.84 223.63 1535.42 223.579 1535 223.427C1536.57 223.21 1538.15 223.063 1539.7 222.755C1541 222.495 1542.31 222.138 1543.54 221.667C1547.34 220.22 1549.87 217.563 1551.25 213.875C1552 211.907 1552.42 209.868 1552.62 207.784C1552.68 207.183 1552.78 206.587 1552.87 206C1553.17 207.83 1553.38 209.653 1553.77 211.442C1555.17 217.829 1559.32 221.509 1565.88 222.735C1567.48 223.033 1569.1 223.202 1571 223.472Z" fill="white"/>
<path d="M1799 196.465C1798.24 196.568 1797.74 196.616 1797.25 196.707C1795.31 197.069 1793.32 197.292 1791.43 197.845C1786.92 199.168 1783.89 202.063 1782.37 206.403C1781.66 208.429 1781.27 210.514 1781.09 212.639C1781.05 213.086 1781.03 213.533 1780.86 213.993C1780.68 212.68 1780.54 211.363 1780.32 210.057C1779.99 208.073 1779.42 206.156 1778.48 204.351C1776.54 200.624 1773.29 198.523 1769.22 197.52C1767.6 197.121 1765.92 196.957 1764.26 196.69C1763.84 196.622 1763.42 196.572 1763 196.42C1764.57 196.203 1766.15 196.055 1767.7 195.747C1769 195.487 1770.31 195.131 1771.54 194.66C1775.34 193.213 1777.87 190.556 1779.25 186.868C1780 184.899 1780.42 182.861 1780.62 180.777C1780.68 180.176 1780.78 179.579 1780.87 178.993C1781.17 180.823 1781.38 182.646 1781.77 184.434C1783.17 190.822 1787.32 194.501 1793.88 195.728C1795.48 196.026 1797.1 196.195 1799 196.465Z" fill="white"/>
<circle cx="1495.5" cy="980.5" r="3.5" fill="white"/>
<circle cx="2067.19" cy="1103.51" r="3.5" fill="white"/>
<circle cx="2037.5" cy="681.5" r="3.5" fill="white"/>
<circle cx="1757.5" cy="840.493" r="3.5" fill="white"/>
<circle cx="1076.5" cy="365.493" r="3.5" fill="white"/>
<circle cx="1588.5" cy="1187.5" r="3.5" fill="white"/>
<circle cx="1818.5" cy="1047.49" r="3.5" fill="white"/>
<circle cx="1121.5" cy="580.493" r="3.5" fill="white"/>
<circle cx="1391.5" cy="1187.5" r="3.5" fill="white"/>
<circle cx="1933.5" cy="888.5" r="3.5" fill="white"/>
<circle cx="1653.5" cy="1047.49" r="3.5" fill="white"/>
<circle cx="956.5" cy="580.493" r="3.5" fill="white"/>
<circle cx="1204.5" cy="1113.5" r="3.5" fill="white"/>
<circle cx="1714.5" cy="782.5" r="3.5" fill="white"/>
<circle cx="1490.5" cy="941.493" r="3.5" fill="white"/>
<circle cx="2137.5" cy="1047.5" r="3.5" fill="white"/>
<circle cx="2032.5" cy="642.493" r="3.5" fill="white"/>
<circle cx="585.5" cy="597.5" r="3.5" fill="white"/>
<circle cx="1034.5" cy="1082.5" r="3.5" fill="white"/>
<circle cx="1352.5" cy="910.493" r="3.5" fill="white"/>
<circle cx="1455.5" cy="571.5" r="3.5" fill="white"/>
<circle cx="655.5" cy="459.493" r="3.5" fill="white"/>
<circle cx="957.5" cy="1184.5" r="3.5" fill="white"/>
<circle cx="61.5" cy="413.655" r="3.5" fill="white"/>
<circle cx="79.5" cy="116.5" r="3.5" fill="white"/>
<circle cx="885.5" cy="1015.5" r="3.5" fill="white"/>
<circle cx="529.5" cy="361.5" r="3.5" fill="white"/>
<circle cx="3.84543" cy="3.84543" r="3.84543" transform="matrix(-1 0 0 1 953.691 167)" fill="white"/>
<circle cx="3.84543" cy="3.84543" r="3.84543" transform="matrix(-1 0 0 1 503.715 377.612)" fill="white"/>
<circle cx="4" cy="4" r="4" transform="matrix(-1 0 0 1 1064 1132)" fill="white"/>
<circle cx="3.84543" cy="3.84543" r="3.84543" transform="matrix(-1 0 0 1 1382 991.837)" fill="white"/>
<circle cx="3.84543" cy="3.84543" r="3.84543" transform="matrix(-1 0 0 1 1200.69 844)" fill="white"/>
<circle cx="3.84543" cy="3.84543" r="3.84543" transform="matrix(-1 0 0 1 1328.69 1233)" fill="white"/>
<circle cx="3.84543" cy="3.84543" r="3.84543" transform="matrix(-1 0 0 1 1402.69 1349)" fill="white"/>
<circle cx="3.84543" cy="3.84543" r="3.84543" transform="matrix(-1 0 0 1 1921.69 1114.84)" fill="white"/>
<circle cx="3.84543" cy="3.84543" r="3.84543" transform="matrix(-1 0 0 1 1892 692.837)" fill="white"/>
<circle cx="3.84543" cy="3.84543" r="3.84543" transform="matrix(-1 0 0 1 256 361)" fill="white"/>
<circle cx="3.84543" cy="3.84543" r="3.84543" transform="matrix(-1 0 0 1 1046.42 911.007)" fill="white"/>
<circle cx="3.84543" cy="3.84543" r="3.84543" transform="matrix(-1 0 0 1 1364.42 771)" fill="white"/>
<circle cx="3.84543" cy="3.84543" r="3.84543" transform="matrix(-1 0 0 1 1874.42 472)" fill="white"/>
<circle cx="3.84543" cy="3.84543" r="3.84543" transform="matrix(-1 0 0 1 667.421 304)" fill="white"/>
<circle cx="1913.5" cy="54.5" r="3.5" fill="white"/>
<circle cx="1888.5" cy="597.5" r="3.5" fill="white"/>
<circle cx="3.84543" cy="3.84543" r="3.84543" transform="matrix(-1 0 0 1 1946.69 230)" fill="white"/>
<circle cx="3.84543" cy="3.84543" r="3.84543" transform="matrix(-1 0 0 1 2049.42 525.007)" fill="white"/>
<circle cx="3.84543" cy="3.84543" r="3.84543" transform="matrix(-1 0 0 1 96.7441 460.411)" fill="white"/>
<circle cx="3.84543" cy="3.84543" r="3.84543" transform="matrix(-1 0 0 1 416.974 76)" fill="white"/>
<circle cx="841.5" cy="881.5" r="3.5" fill="white"/>
<circle cx="728.5" cy="1424.5" r="3.5" fill="white"/>
<path d="M331.389 667.498C332.011 667.582 332.423 667.622 332.828 667.696C334.43 667.991 336.07 668.174 337.624 668.624C341.347 669.704 343.841 672.067 345.091 675.61C345.675 677.263 345.998 678.965 346.151 680.699C346.183 681.064 346.2 681.429 346.337 681.804C346.483 680.733 346.604 679.658 346.781 678.592C347.05 676.972 347.521 675.408 348.295 673.935C349.895 670.893 352.573 669.178 355.925 668.36C357.262 668.034 358.65 667.9 360.016 667.682C360.362 667.627 360.71 667.585 361.054 667.461C359.761 667.284 358.456 667.164 357.179 666.913C356.106 666.701 355.034 666.41 354.014 666.025C350.889 664.844 348.801 662.675 347.659 659.666C347.049 658.059 346.7 656.395 346.535 654.694C346.487 654.204 346.399 653.717 346.332 653.238C346.084 654.732 345.906 656.22 345.584 657.679C344.436 662.893 341.011 665.896 335.605 666.897C334.29 667.14 332.954 667.278 331.389 667.498Z" fill="white"/>
<path d="M245.691 921.296C246.313 921.381 246.725 921.42 247.129 921.494C248.732 921.789 250.371 921.972 251.925 922.423C255.648 923.503 258.142 925.866 259.393 929.408C259.977 931.062 260.3 932.763 260.452 934.497C260.485 934.862 260.502 935.227 260.638 935.602C260.785 934.531 260.906 933.456 261.083 932.39C261.352 930.77 261.823 929.206 262.597 927.733C264.196 924.691 266.875 922.976 270.227 922.158C271.563 921.832 272.952 921.698 274.318 921.481C274.663 921.425 275.012 921.384 275.355 921.26C274.062 921.083 272.758 920.962 271.481 920.711C270.407 920.499 269.336 920.208 268.316 919.823C265.191 918.642 263.103 916.473 261.961 913.464C261.351 911.857 261.002 910.193 260.837 908.492C260.789 908.002 260.701 907.515 260.633 907.036C260.386 908.53 260.207 910.018 259.886 911.478C258.738 916.691 255.313 919.694 249.907 920.695C248.592 920.938 247.256 921.076 245.691 921.296Z" fill="white"/>
<path d="M1875.97 1380.06C1876.8 1380.17 1877.35 1380.22 1877.88 1380.32C1880.02 1380.72 1882.21 1380.96 1884.28 1381.57C1889.24 1383.03 1892.57 1386.21 1894.24 1390.98C1895.01 1393.2 1895.45 1395.49 1895.65 1397.83C1895.69 1398.32 1895.71 1398.81 1895.9 1399.31C1896.09 1397.87 1896.25 1396.42 1896.49 1394.99C1896.85 1392.81 1897.48 1390.7 1898.51 1388.72C1900.64 1384.63 1904.21 1382.32 1908.68 1381.22C1910.46 1380.78 1912.31 1380.6 1914.14 1380.3C1914.6 1380.23 1915.06 1380.17 1915.52 1380.01C1913.8 1379.77 1912.06 1379.61 1910.35 1379.27C1908.92 1378.98 1907.49 1378.59 1906.13 1378.07C1901.97 1376.48 1899.18 1373.56 1897.66 1369.51C1896.85 1367.35 1896.38 1365.11 1896.16 1362.82C1896.1 1362.16 1895.98 1361.5 1895.89 1360.86C1895.56 1362.87 1895.32 1364.87 1894.89 1366.84C1893.36 1373.86 1888.8 1377.9 1881.59 1379.25C1879.84 1379.57 1878.05 1379.76 1875.97 1380.06Z" fill="white"/>
<path d="M45 1075.98C45.6502 1076.06 46.0808 1076.11 46.5035 1076.18C48.1781 1076.49 49.8913 1076.69 51.5154 1077.16C55.4058 1078.29 58.012 1080.77 59.3192 1084.49C59.9293 1086.23 60.2665 1088.02 60.4261 1089.84C60.4597 1090.22 60.4778 1090.61 60.6206 1091C60.7734 1089.88 60.9002 1088.75 61.0851 1087.63C61.3663 1085.93 61.8585 1084.28 62.6673 1082.74C64.3386 1079.54 67.1378 1077.74 70.6404 1076.88C72.0373 1076.54 73.4884 1076.4 74.9153 1076.17C75.2767 1076.11 75.6408 1076.07 76 1075.94C74.6488 1075.75 73.2853 1075.63 71.9513 1075.36C70.8291 1075.14 69.7092 1074.83 68.6437 1074.43C65.3777 1073.19 63.1958 1070.91 62.0027 1067.75C61.3654 1066.06 61.0003 1064.32 60.8279 1062.53C60.7777 1062.01 60.6861 1061.5 60.6154 1061C60.3569 1062.57 60.17 1064.13 59.8341 1065.66C58.6345 1071.14 55.0551 1074.29 49.4059 1075.34C48.032 1075.6 46.6358 1075.74 45 1075.98Z" fill="white"/>
<path d="M1698.26 1403.06C1698.81 1403.14 1699.18 1403.17 1699.54 1403.24C1700.96 1403.5 1702.42 1403.66 1703.8 1404.06C1707.11 1405.01 1709.33 1407.11 1710.44 1410.24C1710.96 1411.7 1711.24 1413.21 1711.38 1414.74C1711.41 1415.06 1711.42 1415.39 1711.54 1415.72C1711.67 1414.77 1711.78 1413.82 1711.94 1412.88C1712.18 1411.44 1712.6 1410.06 1713.29 1408.76C1714.71 1406.07 1717.09 1404.55 1720.07 1403.83C1721.26 1403.54 1722.49 1403.42 1723.7 1403.23C1724.01 1403.18 1724.32 1403.14 1724.63 1403.03C1723.48 1402.87 1722.32 1402.77 1721.18 1402.55C1720.23 1402.36 1719.27 1402.1 1718.37 1401.76C1715.59 1400.72 1713.73 1398.8 1712.72 1396.13C1712.18 1394.71 1711.87 1393.24 1711.72 1391.74C1711.68 1391.3 1711.6 1390.87 1711.54 1390.45C1711.32 1391.77 1711.16 1393.09 1710.88 1394.38C1709.85 1398.99 1706.81 1401.65 1702.01 1402.53C1700.84 1402.75 1699.65 1402.87 1698.26 1403.06Z" fill="white"/>
<circle cx="3.84543" cy="3.84543" r="3.84543" transform="matrix(-1 0 0 1 306.119 703.778)" fill="white"/>
<circle cx="3.84543" cy="3.84543" r="3.84543" transform="matrix(-1 0 0 1 245.691 1185.01)" fill="white"/>
<circle cx="3.84543" cy="3.84543" r="3.84543" transform="matrix(-1 0 0 1 1669.69 1263)" fill="white"/>
<circle cx="3.84543" cy="3.84543" r="3.84543" transform="matrix(-1 0 0 1 1850.98 1263)" fill="white"/>
<circle cx="3.84543" cy="3.84543" r="3.84543" transform="matrix(-1 0 0 1 2037.75 1357.49)" fill="white"/>
<circle cx="3.84543" cy="3.84543" r="3.84543" transform="matrix(-1 0 0 1 2120.69 1485)" fill="white"/>
<circle cx="3.84543" cy="3.84543" r="3.84543" transform="matrix(-1 0 0 1 2107.69 1326)" fill="white"/>
<circle cx="3.84543" cy="3.84543" r="3.84543" transform="matrix(-1 0 0 1 626.938 1459.68)" fill="white"/>
<circle cx="3.84543" cy="3.84543" r="3.84543" transform="matrix(-1 0 0 1 137.691 1356)" fill="white"/>
<circle cx="3.84543" cy="3.84543" r="3.84543" transform="matrix(-1 0 0 1 140.691 452.163)" fill="white"/>
<circle cx="3.84543" cy="3.84543" r="3.84543" transform="matrix(-1 0 0 1 813.715 1425.62)" fill="white"/>
<circle cx="731.5" cy="639.5" r="3.5" fill="white"/>
<circle cx="1580.5" cy="113.5" r="3.5" fill="white"/>
<circle cx="144.5" cy="156.5" r="3.5" fill="white"/>
<circle cx="668.5" cy="915.493" r="3.5" fill="white"/>
<circle cx="848.5" cy="315.5" r="3.5" fill="white"/>
<circle cx="608.5" cy="140.5" r="3.5" fill="white"/>
<circle cx="498.5" cy="884.493" r="3.5" fill="white"/>
<circle cx="333.5" cy="1018.49" r="3.5" fill="white"/>
<circle cx="728.5" cy="1424.5" r="3.5" fill="white"/>
<circle cx="372.5" cy="802.5" r="3.5" fill="white"/>
<circle cx="3.84543" cy="3.84543" r="3.84543" transform="matrix(-1 0 0 1 813.715 1425.62)" fill="white"/>
<circle cx="3.84543" cy="3.84543" r="3.84543" transform="matrix(-1 0 0 1 120.691 820)" fill="white"/>
<circle cx="3.84543" cy="3.84543" r="3.84543" transform="matrix(-1 0 0 1 528 965.837)" fill="white"/>
<circle cx="3.84543" cy="3.84543" r="3.84543" transform="matrix(-1 0 0 1 1071.69 870)" fill="white"/>
<circle cx="3.5" cy="3.5" r="3.5" transform="matrix(1 0 0 -1 1439 451)" fill="white"/>
<circle cx="3.5" cy="3.5" r="3.5" transform="matrix(1 0 0 -1 1269 482)" fill="white"/>
<circle cx="3.5" cy="3.5" r="3.5" transform="matrix(1 0 0 -1 1208 340)" fill="white"/>
<circle cx="1204.87" cy="540.535" r="3.84543" transform="rotate(-180 1204.87 540.535)" fill="white"/>
<circle cx="1298.15" cy="393.31" r="3.84543" transform="rotate(-180 1298.15 393.31)" fill="white"/>
<circle cx="1280.58" cy="614.147" r="3.84543" transform="rotate(-180 1280.58 614.147)" fill="white"/>
<circle cx="3.5" cy="3.5" r="3.5" transform="matrix(1 0 0 -1 1439 451)" fill="white"/>
<circle cx="3.5" cy="3.5" r="3.5" transform="matrix(1 0 0 -1 1269 482)" fill="white"/>
<circle cx="3.5" cy="3.5" r="3.5" transform="matrix(1 0 0 -1 1208 340)" fill="white"/>
<circle cx="1298.15" cy="393.31" r="3.84543" transform="rotate(-180 1298.15 393.31)" fill="white"/>
<circle cx="1402.84" cy="681.155" r="3.84543" transform="rotate(-180 1402.84 681.155)" fill="white"/>
<circle cx="1280.58" cy="614.147" r="3.84543" transform="rotate(-180 1280.58 614.147)" fill="white"/>
<circle cx="1305.85" cy="655.155" r="3.84543" transform="rotate(-180 1305.85 655.155)" fill="white"/>
<circle cx="3.84543" cy="3.84543" r="3.84543" transform="matrix(-1 0 0 1 368.744 1065.25)" fill="white"/>
<circle cx="3.84543" cy="3.84543" r="3.84543" transform="matrix(-1 0 0 1 259.974 517)" fill="white"/>
<path d="M311.838 263C311.392 269.043 314.28 273.011 320 276.624C313.267 276.698 309.42 279.87 306.479 285C305.944 278.813 304.592 273.295 298 270.734C304.877 272.183 309.227 269.465 311.838 263Z" fill="white"/>
<path d="M1395.84 84C1395.39 90.0431 1398.28 94.0112 1404 97.624C1397.27 97.6984 1393.42 100.87 1390.48 106C1389.94 99.8125 1388.59 94.2951 1382 91.7341C1388.88 93.1831 1393.23 90.4653 1395.84 84Z" fill="white"/>
<path d="M1727.84 1159C1727.39 1165.04 1730.28 1169.01 1736 1172.62C1729.27 1172.7 1725.42 1175.87 1722.48 1181C1721.94 1174.81 1720.59 1169.3 1714 1166.73C1720.88 1168.18 1725.23 1165.47 1727.84 1159Z" fill="white"/>
<path d="M1821.75 835.201C1821.81 835.436 1821.9 835.669 1821.92 835.907C1822.15 838.286 1822.38 840.666 1822.61 843.046C1822.67 843.721 1822.83 844.354 1823.25 844.906C1823.89 845.747 1824.75 846.153 1825.79 846.247C1828.33 846.477 1830.87 846.73 1833.41 846.973C1833.57 846.988 1833.73 847.002 1833.9 847.098C1833.72 847.12 1833.53 847.147 1833.34 847.165C1830.83 847.407 1828.31 847.646 1825.79 847.891C1823.89 848.076 1822.8 849.177 1822.61 851.076C1822.38 853.501 1822.15 855.927 1821.91 858.352C1821.88 858.569 1821.8 858.781 1821.75 858.995L1821.77 858.996C1821.74 858.773 1821.68 858.551 1821.66 858.326C1821.43 855.927 1821.16 853.531 1820.98 851.127C1820.83 849.218 1819.51 848.006 1817.7 847.87C1815.02 847.669 1812.35 847.377 1809.68 847.124L1809.69 847.141C1809.92 847.078 1810.15 846.98 1810.39 846.957C1812.88 846.709 1815.36 846.471 1817.85 846.237C1818.97 846.132 1819.87 845.659 1820.47 844.692C1820.79 844.194 1820.91 843.64 1820.97 843.061C1821.19 840.732 1821.41 838.403 1821.64 836.074C1821.67 835.782 1821.73 835.492 1821.77 835.202L1821.75 835.201Z" fill="white"/>
<path d="M439.077 596.201C439.134 596.436 439.218 596.669 439.242 596.907C439.478 599.286 439.706 601.666 439.931 604.046C439.995 604.721 440.155 605.354 440.577 605.906C441.218 606.747 442.072 607.153 443.113 607.247C445.655 607.477 448.194 607.73 450.734 607.973C450.893 607.988 451.052 608.002 451.225 608.098C451.04 608.12 450.854 608.147 450.668 608.165C448.151 608.407 445.634 608.646 443.117 608.891C441.216 609.076 440.119 610.177 439.936 612.076C439.701 614.501 439.47 616.927 439.229 619.352C439.207 619.569 439.128 619.781 439.076 619.995L439.097 619.996C439.059 619.773 439.008 619.551 438.986 619.326C438.752 616.927 438.486 614.531 438.302 612.127C438.156 610.218 436.83 609.006 435.026 608.87C432.348 608.669 429.677 608.377 427.004 608.124L427.013 608.141C427.245 608.078 427.474 607.98 427.711 607.957C430.199 607.709 432.687 607.471 435.177 607.237C436.297 607.132 437.191 606.659 437.798 605.692C438.11 605.194 438.234 604.64 438.289 604.061C438.508 601.732 438.733 599.403 438.961 597.074C438.989 596.782 439.051 596.492 439.098 596.202L439.077 596.201Z" fill="white"/>
<path d="M230.077 1037.2C230.134 1037.44 230.218 1037.67 230.242 1037.91C230.478 1040.29 230.706 1042.67 230.931 1045.05C230.995 1045.72 231.155 1046.35 231.577 1046.91C232.218 1047.75 233.072 1048.15 234.113 1048.25C236.655 1048.48 239.194 1048.73 241.734 1048.97C241.893 1048.99 242.052 1049 242.225 1049.1C242.04 1049.12 241.854 1049.15 241.668 1049.16C239.151 1049.41 236.634 1049.65 234.117 1049.89C232.216 1050.08 231.119 1051.18 230.936 1053.08C230.701 1055.5 230.47 1057.93 230.229 1060.35C230.207 1060.57 230.128 1060.78 230.076 1061L230.097 1061C230.059 1060.77 230.008 1060.55 229.986 1060.33C229.752 1057.93 229.486 1055.53 229.302 1053.13C229.156 1051.22 227.83 1050.01 226.026 1049.87C223.348 1049.67 220.677 1049.38 218.004 1049.12L218.013 1049.14C218.245 1049.08 218.474 1048.98 218.711 1048.96C221.199 1048.71 223.687 1048.47 226.177 1048.24C227.297 1048.13 228.191 1047.66 228.798 1046.69C229.11 1046.19 229.234 1045.64 229.289 1045.06C229.508 1042.73 229.733 1040.4 229.961 1038.07C229.989 1037.78 230.051 1037.49 230.098 1037.2L230.077 1037.2Z" fill="white"/>
<path d="M1889.08 1206.2C1889.13 1206.44 1889.22 1206.67 1889.24 1206.91C1889.48 1209.29 1889.71 1211.67 1889.93 1214.05C1889.99 1214.72 1890.16 1215.35 1890.58 1215.91C1891.22 1216.75 1892.07 1217.15 1893.11 1217.25C1895.65 1217.48 1898.19 1217.73 1900.73 1217.97C1900.89 1217.99 1901.05 1218 1901.23 1218.1C1901.04 1218.12 1900.85 1218.15 1900.67 1218.16C1898.15 1218.41 1895.63 1218.65 1893.12 1218.89C1891.22 1219.08 1890.12 1220.18 1889.94 1222.08C1889.7 1224.5 1889.47 1226.93 1889.23 1229.35C1889.21 1229.57 1889.13 1229.78 1889.08 1230L1889.1 1230C1889.06 1229.77 1889.01 1229.55 1888.99 1229.33C1888.75 1226.93 1888.49 1224.53 1888.3 1222.13C1888.16 1220.22 1886.83 1219.01 1885.03 1218.87C1882.35 1218.67 1879.68 1218.38 1877 1218.12L1877.01 1218.14C1877.25 1218.08 1877.47 1217.98 1877.71 1217.96C1880.2 1217.71 1882.69 1217.47 1885.18 1217.24C1886.3 1217.13 1887.19 1216.66 1887.8 1215.69C1888.11 1215.19 1888.23 1214.64 1888.29 1214.06C1888.51 1211.73 1888.73 1209.4 1888.96 1207.07C1888.99 1206.78 1889.05 1206.49 1889.1 1206.2L1889.08 1206.2Z" fill="white"/>
</g>
<defs>
<clipPath id="clip0_21_154">
<rect width="2144" height="1534" fill="white"/>
</clipPath>
</defs>
</svg>
