<svg width="253" height="94" viewBox="0 0 253 94" fill="none" xmlns="http://www.w3.org/2000/svg">
    <rect x="77" y="20" width="33" height="16" rx="2" stroke="#805EE9" stroke-linejoin="round" />
    <rect x="69" y="39" width="49" height="16" rx="2" stroke="#805EE9" stroke-linejoin="round" />
    <rect x="61" y="58" width="65" height="16" rx="2" stroke="#805EE9" stroke-linejoin="round" />
    <path
        d="M93.409 69.351C92.9848 69.351 92.6069 69.2781 92.2755 69.1323C91.946 68.9846 91.6855 68.7819 91.4943 68.5243C91.3049 68.2649 91.2073 67.9656 91.2016 67.6266H92.4403C92.4479 67.7686 92.4943 67.8936 92.5795 68.0016C92.6666 68.1077 92.7821 68.19 92.9261 68.2488C93.07 68.3075 93.2319 68.3368 93.4119 68.3368C93.5994 68.3368 93.7651 68.3037 93.909 68.2374C94.053 68.1711 94.1657 68.0792 94.2471 67.9618C94.3285 67.8444 94.3693 67.709 94.3693 67.5556C94.3693 67.4003 94.3257 67.263 94.2386 67.1436C94.1533 67.0224 94.0302 66.9277 93.8693 66.8596C93.7102 66.7914 93.5208 66.7573 93.3011 66.7573H92.7585V65.8539H93.3011C93.4867 65.8539 93.6505 65.8217 93.7925 65.7573C93.9365 65.6929 94.0482 65.6039 94.1278 65.4902C94.2073 65.3747 94.2471 65.2402 94.2471 65.0868C94.2471 64.941 94.2121 64.8132 94.142 64.7033C94.0738 64.5916 93.9772 64.5044 93.8522 64.4419C93.7291 64.3794 93.5852 64.3482 93.4204 64.3482C93.2537 64.3482 93.1013 64.3785 92.963 64.4391C92.8247 64.4978 92.7139 64.5821 92.6306 64.6919C92.5473 64.8018 92.5028 64.9306 92.4971 65.0783H91.3181C91.3238 64.7431 91.4194 64.4476 91.605 64.1919C91.7907 63.9363 92.0407 63.7364 92.355 63.5925C92.6713 63.4467 93.0283 63.3738 93.4261 63.3738C93.8276 63.3738 94.1789 63.4467 94.48 63.5925C94.7812 63.7383 95.0151 63.9353 95.1818 64.1834C95.3503 64.4296 95.4336 64.7061 95.4318 65.013C95.4336 65.3387 95.3323 65.6105 95.1278 65.8283C94.9251 66.0461 94.6609 66.1844 94.3352 66.2431V66.2885C94.7632 66.3435 95.089 66.4921 95.3124 66.7346C95.5378 66.9751 95.6496 67.2762 95.6477 67.638C95.6496 67.9694 95.5539 68.2639 95.3607 68.5215C95.1694 68.7791 94.9052 68.9817 94.5681 69.1294C94.231 69.2772 93.8446 69.351 93.409 69.351Z"
        fill="#805EE9" />
    <path
        d="M91.3756 50.3672V49.4808L93.4467 47.5632C93.6228 47.3928 93.7705 47.2393 93.8898 47.103C94.0111 46.9666 94.1029 46.8331 94.1654 46.7024C94.2279 46.5698 94.2592 46.4268 94.2592 46.2734C94.2592 46.103 94.2203 45.9562 94.1427 45.8331C94.065 45.7081 93.959 45.6125 93.8245 45.5462C93.69 45.478 93.5376 45.4439 93.3671 45.4439C93.1891 45.4439 93.0338 45.4799 92.9012 45.5518C92.7686 45.6238 92.6664 45.727 92.5944 45.8615C92.5224 45.996 92.4864 46.156 92.4864 46.3416H91.3188C91.3188 45.9609 91.405 45.6304 91.5773 45.3501C91.7497 45.0698 91.9912 44.853 92.3018 44.6996C92.6124 44.5462 92.9703 44.4695 93.3756 44.4695C93.7923 44.4695 94.155 44.5433 94.4637 44.6911C94.7743 44.8369 95.0158 45.0395 95.1881 45.299C95.3605 45.5585 95.4467 45.8558 95.4467 46.1911C95.4467 46.4107 95.4031 46.6276 95.316 46.8416C95.2308 47.0556 95.0783 47.2933 94.8586 47.5547C94.6389 47.8142 94.3292 48.1257 93.9296 48.4893L93.0802 49.3217V49.3615H95.5234V50.3672H91.3756Z"
        fill="#805EE9" />
    <path
        d="M94.4695 25.1818V31H93.2394V26.3494H93.2053L91.8729 27.1847V26.0938L93.3132 25.1818H94.4695Z"
        fill="#805EE9" />
    <rect x="118" y="26" width="65.2865" height="2.82209" fill="#805EE9" fill-opacity="0.4" />
    <rect x="118" y="30.8223" width="55.6757" height="2.82209" fill="#805EE9" fill-opacity="0.4" />
    <rect x="129" y="45" width="62" height="2.82209" fill="#805EE9" fill-opacity="0.4" />
    <rect x="129" y="49.8223" width="52.8729" height="2.82209" fill="#805EE9" fill-opacity="0.4" />
    <rect x="135" y="64" width="54" height="2.82209" fill="#805EE9" fill-opacity="0.4" />
    <rect x="135" y="68.8223" width="46.0506" height="2.82209" fill="#805EE9" fill-opacity="0.4" />
</svg>