<svg width="253" height="96" viewBox="0 0 253 96" fill="none" xmlns="http://www.w3.org/2000/svg">
<path d="M25.1063 54.1552C25.0835 53.926 24.986 53.748 24.8137 53.6211C24.6413 53.4942 24.4074 53.4307 24.1119 53.4307C23.9112 53.4307 23.7417 53.4591 23.6034 53.516C23.4652 53.5709 23.3591 53.6476 23.2852 53.7461C23.2133 53.8446 23.1773 53.9563 23.1773 54.0813C23.1735 54.1855 23.1953 54.2764 23.2426 54.354C23.2919 54.4317 23.3591 54.4989 23.4443 54.5557C23.5296 54.6107 23.628 54.659 23.7398 54.7006C23.8515 54.7404 23.9709 54.7745 24.0977 54.8029L24.6205 54.9279C24.8743 54.9847 25.1072 55.0605 25.3193 55.1552C25.5315 55.2499 25.7152 55.3663 25.8705 55.5046C26.0258 55.6429 26.146 55.8057 26.2313 55.9932C26.3184 56.1807 26.3629 56.3957 26.3648 56.6381C26.3629 56.9942 26.272 57.3029 26.0921 57.5643C25.914 57.8237 25.6565 58.0254 25.3193 58.1694C24.9841 58.3114 24.5798 58.3824 24.1063 58.3824C23.6366 58.3824 23.2275 58.3105 22.879 58.1665C22.5324 58.0226 22.2616 57.8095 22.0665 57.5273C21.8733 57.2432 21.772 56.8919 21.7625 56.4733H22.9529C22.9661 56.6684 23.022 56.8313 23.1205 56.962C23.2209 57.0908 23.3544 57.1883 23.521 57.2546C23.6896 57.319 23.8799 57.3512 24.0921 57.3512C24.3004 57.3512 24.4813 57.3209 24.6347 57.2603C24.79 57.1997 24.9102 57.1154 24.9955 57.0074C25.0807 56.8995 25.1233 56.7754 25.1233 56.6353C25.1233 56.5046 25.0845 56.3947 25.0068 56.3057C24.9311 56.2167 24.8193 56.141 24.6716 56.0785C24.5258 56.016 24.3468 55.9591 24.1347 55.908L23.5012 55.7489C23.0106 55.6296 22.6233 55.443 22.3392 55.1893C22.0551 54.9355 21.914 54.5936 21.9159 54.1637C21.914 53.8114 22.0078 53.5036 22.1972 53.2404C22.3885 52.9771 22.6508 52.7716 22.9841 52.6239C23.3174 52.4762 23.6962 52.4023 24.1205 52.4023C24.5523 52.4023 24.9292 52.4762 25.2512 52.6239C25.575 52.7716 25.8269 52.9771 26.0068 53.2404C26.1868 53.5036 26.2796 53.8086 26.2852 54.1552H25.1063ZM29.4905 53.9364V54.8455H26.8627V53.9364H29.4905ZM27.4593 52.891H28.6695V56.9591C28.6695 57.0709 28.6865 57.158 28.7206 57.2205C28.7547 57.2811 28.8021 57.3237 28.8627 57.3483C28.9252 57.373 28.9971 57.3853 29.0786 57.3853C29.1354 57.3853 29.1922 57.3805 29.249 57.3711C29.3058 57.3597 29.3494 57.3512 29.3797 57.3455L29.57 58.2461C29.5094 58.265 29.4242 58.2868 29.3144 58.3114C29.2045 58.3379 29.071 58.354 28.9138 58.3597C28.6221 58.3711 28.3664 58.3322 28.1468 58.2432C27.9289 58.1542 27.7594 58.016 27.6382 57.8285C27.517 57.641 27.4574 57.4042 27.4593 57.1182V52.891ZM32.2206 58.3853C31.7718 58.3853 31.3854 58.2944 31.0615 58.1125C30.7396 57.9288 30.4914 57.6694 30.3172 57.3341C30.143 56.997 30.0558 56.5983 30.0558 56.1381C30.0558 55.6893 30.143 55.2953 30.3172 54.9563C30.4914 54.6173 30.7367 54.3531 31.053 54.1637C31.3712 53.9743 31.7443 53.8796 32.1723 53.8796C32.4602 53.8796 32.7282 53.926 32.9763 54.0188C33.2263 54.1097 33.4441 54.247 33.6297 54.4307C33.8172 54.6144 33.963 54.8455 34.0672 55.1239C34.1714 55.4004 34.2235 55.7243 34.2235 56.0955V56.4279H30.5388V55.6779H33.0843C33.0843 55.5036 33.0464 55.3493 32.9706 55.2148C32.8949 55.0804 32.7897 54.9752 32.6553 54.8995C32.5227 54.8218 32.3683 54.783 32.1922 54.783C32.0085 54.783 31.8456 54.8256 31.7036 54.9108C31.5634 54.9942 31.4536 55.1069 31.374 55.2489C31.2945 55.3891 31.2538 55.5453 31.2519 55.7177V56.4307C31.2519 56.6466 31.2916 56.8332 31.3712 56.9904C31.4526 57.1476 31.5672 57.2688 31.7149 57.354C31.8627 57.4393 32.0378 57.4819 32.2405 57.4819C32.375 57.4819 32.4981 57.4629 32.6098 57.425C32.7216 57.3872 32.8172 57.3304 32.8968 57.2546C32.9763 57.1788 33.0369 57.086 33.0786 56.9762L34.1979 57.05C34.1411 57.319 34.0246 57.5538 33.8485 57.7546C33.6742 57.9535 33.4488 58.1088 33.1723 58.2205C32.8977 58.3304 32.5805 58.3853 32.2206 58.3853ZM35.0132 59.9364V53.9364H36.2064V54.6694H36.2604C36.3134 54.5519 36.3901 54.4326 36.4905 54.3114C36.5928 54.1883 36.7253 54.086 36.8882 54.0046C37.053 53.9213 37.2575 53.8796 37.5019 53.8796C37.82 53.8796 38.1136 53.9629 38.3825 54.1296C38.6515 54.2944 38.8664 54.5434 39.0274 54.8768C39.1884 55.2082 39.2689 55.6239 39.2689 56.1239C39.2689 56.6107 39.1903 57.0216 39.0331 57.3569C38.8778 57.6902 38.6657 57.943 38.3968 58.1154C38.1297 58.2858 37.8305 58.3711 37.499 58.3711C37.2642 58.3711 37.0644 58.3322 36.8996 58.2546C36.7367 58.1769 36.6032 58.0794 36.499 57.962C36.3949 57.8427 36.3153 57.7224 36.2604 57.6012H36.2235V59.9364H35.0132ZM36.1979 56.1182C36.1979 56.3777 36.2339 56.604 36.3058 56.7972C36.3778 56.9904 36.482 57.141 36.6183 57.2489C36.7547 57.355 36.9204 57.408 37.1155 57.408C37.3125 57.408 37.4791 57.354 37.6155 57.2461C37.7519 57.1362 37.8551 56.9847 37.9252 56.7915C37.9971 56.5965 38.0331 56.372 38.0331 56.1182C38.0331 55.8663 37.9981 55.6447 37.928 55.4535C37.8579 55.2622 37.7547 55.1125 37.6183 55.0046C37.482 54.8966 37.3144 54.8427 37.1155 54.8427C36.9185 54.8427 36.7519 54.8947 36.6155 54.9989C36.481 55.1031 36.3778 55.2508 36.3058 55.4421C36.2339 55.6334 36.1979 55.8588 36.1979 56.1182ZM44.4472 52.4819V58.3H43.2171V53.6495H43.183L41.8506 54.4847V53.3938L43.2909 52.4819H44.4472Z" fill="#805EE9"/>
<rect x="21.4443" y="34.8" width="56" height="8" rx="1" stroke="#805EE9" stroke-linejoin="round"/>
<rect x="21.5557" y="71.5999" width="50" height="2.8" fill="#805EE9" fill-opacity="0.4"/>
<rect x="21.5557" y="76.3997" width="43" height="2.8" fill="#805EE9" fill-opacity="0.4"/>
<rect x="21.5557" y="66.8" width="50" height="2.8" fill="#805EE9" fill-opacity="0.4"/>
<path d="M102.106 44.1552C102.084 43.926 101.986 43.748 101.814 43.6211C101.641 43.4942 101.407 43.4307 101.112 43.4307C100.911 43.4307 100.742 43.4591 100.603 43.516C100.465 43.5709 100.359 43.6476 100.285 43.7461C100.213 43.8446 100.177 43.9563 100.177 44.0813C100.174 44.1855 100.195 44.2764 100.243 44.354C100.292 44.4317 100.359 44.4989 100.444 44.5557C100.53 44.6107 100.628 44.659 100.74 44.7006C100.852 44.7404 100.971 44.7745 101.098 44.8029L101.62 44.9279C101.874 44.9847 102.107 45.0605 102.319 45.1552C102.531 45.2499 102.715 45.3663 102.87 45.5046C103.026 45.6429 103.146 45.8057 103.231 45.9932C103.318 46.1807 103.363 46.3957 103.365 46.6381C103.363 46.9942 103.272 47.3029 103.092 47.5643C102.914 47.8237 102.656 48.0254 102.319 48.1694C101.984 48.3114 101.58 48.3824 101.106 48.3824C100.637 48.3824 100.227 48.3105 99.879 48.1665C99.5324 48.0226 99.2616 47.8095 99.0665 47.5273C98.8733 47.2432 98.772 46.8919 98.7625 46.4733H99.9529C99.9661 46.6684 100.022 46.8313 100.12 46.962C100.221 47.0908 100.354 47.1883 100.521 47.2546C100.69 47.319 100.88 47.3512 101.092 47.3512C101.3 47.3512 101.481 47.3209 101.635 47.2603C101.79 47.1997 101.91 47.1154 101.995 47.0074C102.081 46.8995 102.123 46.7754 102.123 46.6353C102.123 46.5046 102.084 46.3947 102.007 46.3057C101.931 46.2167 101.819 46.141 101.672 46.0785C101.526 46.016 101.347 45.9591 101.135 45.908L100.501 45.7489C100.011 45.6296 99.6233 45.443 99.3392 45.1893C99.0551 44.9355 98.914 44.5936 98.9159 44.1637C98.914 43.8114 99.0078 43.5036 99.1972 43.2404C99.3885 42.9771 99.6508 42.7716 99.9841 42.6239C100.317 42.4762 100.696 42.4023 101.12 42.4023C101.552 42.4023 101.929 42.4762 102.251 42.6239C102.575 42.7716 102.827 42.9771 103.007 43.2404C103.187 43.5036 103.28 43.8086 103.285 44.1552H102.106ZM106.491 43.9364V44.8455H103.863V43.9364H106.491ZM104.459 42.891H105.669V46.9591C105.669 47.0709 105.687 47.158 105.721 47.2205C105.755 47.2811 105.802 47.3237 105.863 47.3483C105.925 47.373 105.997 47.3853 106.079 47.3853C106.135 47.3853 106.192 47.3805 106.249 47.3711C106.306 47.3597 106.349 47.3512 106.38 47.3455L106.57 48.2461C106.509 48.265 106.424 48.2868 106.314 48.3114C106.205 48.3379 106.071 48.354 105.914 48.3597C105.622 48.3711 105.366 48.3322 105.147 48.2432C104.929 48.1542 104.759 48.016 104.638 47.8285C104.517 47.641 104.457 47.4042 104.459 47.1182V42.891ZM109.221 48.3853C108.772 48.3853 108.385 48.2944 108.062 48.1125C107.74 47.9288 107.491 47.6694 107.317 47.3341C107.143 46.997 107.056 46.5983 107.056 46.1381C107.056 45.6893 107.143 45.2953 107.317 44.9563C107.491 44.6173 107.737 44.3531 108.053 44.1637C108.371 43.9743 108.744 43.8796 109.172 43.8796C109.46 43.8796 109.728 43.926 109.976 44.0188C110.226 44.1097 110.444 44.247 110.63 44.4307C110.817 44.6144 110.963 44.8455 111.067 45.1239C111.171 45.4004 111.223 45.7243 111.223 46.0955V46.4279H107.539V45.6779H110.084C110.084 45.5036 110.046 45.3493 109.971 45.2148C109.895 45.0804 109.79 44.9752 109.655 44.8995C109.523 44.8218 109.368 44.783 109.192 44.783C109.008 44.783 108.846 44.8256 108.704 44.9108C108.563 44.9942 108.454 45.1069 108.374 45.2489C108.294 45.3891 108.254 45.5453 108.252 45.7177V46.4307C108.252 46.6466 108.292 46.8332 108.371 46.9904C108.453 47.1476 108.567 47.2688 108.715 47.354C108.863 47.4393 109.038 47.4819 109.241 47.4819C109.375 47.4819 109.498 47.4629 109.61 47.425C109.722 47.3872 109.817 47.3304 109.897 47.2546C109.976 47.1788 110.037 47.086 110.079 46.9762L111.198 47.05C111.141 47.319 111.025 47.5538 110.848 47.7546C110.674 47.9535 110.449 48.1088 110.172 48.2205C109.898 48.3304 109.58 48.3853 109.221 48.3853ZM112.013 49.9364V43.9364H113.206V44.6694H113.26C113.313 44.5519 113.39 44.4326 113.491 44.3114C113.593 44.1883 113.725 44.086 113.888 44.0046C114.053 43.9213 114.258 43.8796 114.502 43.8796C114.82 43.8796 115.114 43.9629 115.383 44.1296C115.651 44.2944 115.866 44.5434 116.027 44.8768C116.188 45.2082 116.269 45.6239 116.269 46.1239C116.269 46.6107 116.19 47.0216 116.033 47.3569C115.878 47.6902 115.666 47.943 115.397 48.1154C115.13 48.2858 114.83 48.3711 114.499 48.3711C114.264 48.3711 114.064 48.3322 113.9 48.2546C113.737 48.1769 113.603 48.0794 113.499 47.962C113.395 47.8427 113.315 47.7224 113.26 47.6012H113.223V49.9364H112.013ZM113.198 46.1182C113.198 46.3777 113.234 46.604 113.306 46.7972C113.378 46.9904 113.482 47.141 113.618 47.2489C113.755 47.355 113.92 47.408 114.116 47.408C114.312 47.408 114.479 47.354 114.616 47.2461C114.752 47.1362 114.855 46.9847 114.925 46.7915C114.997 46.5965 115.033 46.372 115.033 46.1182C115.033 45.8663 114.998 45.6447 114.928 45.4535C114.858 45.2622 114.755 45.1125 114.618 45.0046C114.482 44.8966 114.314 44.8427 114.116 44.8427C113.919 44.8427 113.752 44.8947 113.616 44.9989C113.481 45.1031 113.378 45.2508 113.306 45.4421C113.234 45.6334 113.198 45.8588 113.198 46.1182ZM118.916 48.3V47.4137L120.987 45.4961C121.163 45.3256 121.311 45.1722 121.43 45.0358C121.551 44.8995 121.643 44.766 121.706 44.6353C121.768 44.5027 121.799 44.3597 121.799 44.2063C121.799 44.0358 121.761 43.8891 121.683 43.766C121.605 43.641 121.499 43.5453 121.365 43.479C121.23 43.4108 121.078 43.3768 120.907 43.3768C120.729 43.3768 120.574 43.4127 120.441 43.4847C120.309 43.5567 120.207 43.6599 120.135 43.7944C120.063 43.9288 120.027 44.0889 120.027 44.2745H118.859C118.859 43.8938 118.945 43.5633 119.118 43.283C119.29 43.0027 119.531 42.7858 119.842 42.6324C120.153 42.479 120.511 42.4023 120.916 42.4023C121.333 42.4023 121.695 42.4762 122.004 42.6239C122.315 42.7697 122.556 42.9724 122.728 43.2319C122.901 43.4913 122.987 43.7887 122.987 44.1239C122.987 44.3436 122.943 44.5605 122.856 44.7745C122.771 44.9885 122.619 45.2262 122.399 45.4875C122.179 45.747 121.87 46.0586 121.47 46.4222L120.62 47.2546V47.2944H123.064V48.3H118.916Z" fill="#805EE9"/>
<rect x="98.4443" y="25.8" width="56" height="8" rx="1" stroke="#805EE9" stroke-linejoin="round"/>
<rect x="98.4443" y="61.5618" width="50" height="2.8" fill="#805EE9" fill-opacity="0.4"/>
<rect x="98.4443" y="66.3616" width="43" height="2.8" fill="#805EE9" fill-opacity="0.4"/>
<rect x="98.4443" y="56.762" width="50" height="2.8" fill="#805EE9" fill-opacity="0.4"/>
<path d="M179.218 34.1552C179.195 33.926 179.097 33.748 178.925 33.6211C178.753 33.4942 178.519 33.4307 178.223 33.4307C178.023 33.4307 177.853 33.4591 177.715 33.516C177.576 33.5709 177.47 33.6476 177.397 33.7461C177.325 33.8446 177.289 33.9563 177.289 34.0813C177.285 34.1855 177.307 34.2764 177.354 34.354C177.403 34.4317 177.47 34.4989 177.556 34.5557C177.641 34.6107 177.739 34.659 177.851 34.7006C177.963 34.7404 178.082 34.7745 178.209 34.8029L178.732 34.9279C178.986 34.9847 179.219 35.0605 179.431 35.1552C179.643 35.2499 179.826 35.3663 179.982 35.5046C180.137 35.6429 180.257 35.8057 180.343 35.9932C180.43 36.1807 180.474 36.3957 180.476 36.6381C180.474 36.9942 180.383 37.3029 180.203 37.5643C180.025 37.8237 179.768 38.0254 179.431 38.1694C179.095 38.3114 178.691 38.3824 178.218 38.3824C177.748 38.3824 177.339 38.3105 176.99 38.1665C176.644 38.0226 176.373 37.8095 176.178 37.5273C175.985 37.2432 175.883 36.8919 175.874 36.4733H177.064C177.077 36.6684 177.133 36.8313 177.232 36.962C177.332 37.0908 177.466 37.1883 177.632 37.2546C177.801 37.319 177.991 37.3512 178.203 37.3512C178.412 37.3512 178.593 37.3209 178.746 37.2603C178.901 37.1997 179.022 37.1154 179.107 37.0074C179.192 36.8995 179.235 36.7754 179.235 36.6353C179.235 36.5046 179.196 36.3947 179.118 36.3057C179.042 36.2167 178.931 36.141 178.783 36.0785C178.637 36.016 178.458 35.9591 178.246 35.908L177.612 35.7489C177.122 35.6296 176.735 35.443 176.451 35.1893C176.166 34.9355 176.025 34.5936 176.027 34.1637C176.025 33.8114 176.119 33.5036 176.309 33.2404C176.5 32.9771 176.762 32.7716 177.095 32.6239C177.429 32.4762 177.808 32.4023 178.232 32.4023C178.664 32.4023 179.041 32.4762 179.362 32.6239C179.686 32.7716 179.938 32.9771 180.118 33.2404C180.298 33.5036 180.391 33.8086 180.397 34.1552H179.218ZM183.602 33.9364V34.8455H180.974V33.9364H183.602ZM181.571 32.891H182.781V36.9591C182.781 37.0709 182.798 37.158 182.832 37.2205C182.866 37.2811 182.913 37.3237 182.974 37.3483C183.036 37.373 183.108 37.3853 183.19 37.3853C183.247 37.3853 183.304 37.3805 183.36 37.3711C183.417 37.3597 183.461 37.3512 183.491 37.3455L183.681 38.2461C183.621 38.265 183.536 38.2868 183.426 38.3114C183.316 38.3379 183.182 38.354 183.025 38.3597C182.733 38.3711 182.478 38.3322 182.258 38.2432C182.04 38.1542 181.871 38.016 181.75 37.8285C181.628 37.641 181.569 37.4042 181.571 37.1182V32.891ZM186.332 38.3853C185.883 38.3853 185.497 38.2944 185.173 38.1125C184.851 37.9288 184.603 37.6694 184.429 37.3341C184.254 36.997 184.167 36.5983 184.167 36.1381C184.167 35.6893 184.254 35.2953 184.429 34.9563C184.603 34.6173 184.848 34.3531 185.164 34.1637C185.483 33.9743 185.856 33.8796 186.284 33.8796C186.572 33.8796 186.84 33.926 187.088 34.0188C187.338 34.1097 187.555 34.247 187.741 34.4307C187.929 34.6144 188.074 34.8455 188.179 35.1239C188.283 35.4004 188.335 35.7243 188.335 36.0955V36.4279H184.65V35.6779H187.196C187.196 35.5036 187.158 35.3493 187.082 35.2148C187.006 35.0804 186.901 34.9752 186.767 34.8995C186.634 34.8218 186.48 34.783 186.304 34.783C186.12 34.783 185.957 34.8256 185.815 34.9108C185.675 34.9942 185.565 35.1069 185.485 35.2489C185.406 35.3891 185.365 35.5453 185.363 35.7177V36.4307C185.363 36.6466 185.403 36.8332 185.483 36.9904C185.564 37.1476 185.679 37.2688 185.826 37.354C185.974 37.4393 186.149 37.4819 186.352 37.4819C186.486 37.4819 186.609 37.4629 186.721 37.425C186.833 37.3872 186.929 37.3304 187.008 37.2546C187.088 37.1788 187.148 37.086 187.19 36.9762L188.309 37.05C188.252 37.319 188.136 37.5538 187.96 37.7546C187.786 37.9535 187.56 38.1088 187.284 38.2205C187.009 38.3304 186.692 38.3853 186.332 38.3853ZM189.125 39.9364V33.9364H190.318V34.6694H190.372C190.425 34.5519 190.501 34.4326 190.602 34.3114C190.704 34.1883 190.837 34.086 191 34.0046C191.164 33.9213 191.369 33.8796 191.613 33.8796C191.931 33.8796 192.225 33.9629 192.494 34.1296C192.763 34.2944 192.978 34.5434 193.139 34.8768C193.3 35.2082 193.38 35.6239 193.38 36.1239C193.38 36.6107 193.302 37.0216 193.144 37.3569C192.989 37.6902 192.777 37.943 192.508 38.1154C192.241 38.2858 191.942 38.3711 191.61 38.3711C191.376 38.3711 191.176 38.3322 191.011 38.2546C190.848 38.1769 190.715 38.0794 190.61 37.962C190.506 37.8427 190.427 37.7224 190.372 37.6012H190.335V39.9364H189.125ZM190.309 36.1182C190.309 36.3777 190.345 36.604 190.417 36.7972C190.489 36.9904 190.593 37.141 190.73 37.2489C190.866 37.355 191.032 37.408 191.227 37.408C191.424 37.408 191.59 37.354 191.727 37.2461C191.863 37.1362 191.966 36.9847 192.036 36.7915C192.108 36.5965 192.144 36.372 192.144 36.1182C192.144 35.8663 192.109 35.6447 192.039 35.4535C191.969 35.2622 191.866 35.1125 191.73 35.0046C191.593 34.8966 191.426 34.8427 191.227 34.8427C191.03 34.8427 190.863 34.8947 190.727 34.9989C190.592 35.1031 190.489 35.2508 190.417 35.4421C190.345 35.6334 190.309 35.8588 190.309 36.1182ZM198.178 38.3796C197.754 38.3796 197.376 38.3067 197.044 38.1608C196.715 38.0131 196.454 37.8105 196.263 37.5529C196.074 37.2934 195.976 36.9942 195.97 36.6552H197.209C197.217 36.7972 197.263 36.9222 197.348 37.0302C197.435 37.1362 197.551 37.2186 197.695 37.2773C197.839 37.336 198.001 37.3654 198.181 37.3654C198.368 37.3654 198.534 37.3322 198.678 37.266C198.822 37.1997 198.934 37.1078 199.016 36.9904C199.097 36.873 199.138 36.7375 199.138 36.5841C199.138 36.4288 199.094 36.2915 199.007 36.1722C198.922 36.051 198.799 35.9563 198.638 35.8881C198.479 35.8199 198.29 35.7858 198.07 35.7858H197.527V34.8824H198.07C198.255 34.8824 198.419 34.8502 198.561 34.7858C198.705 34.7215 198.817 34.6324 198.897 34.5188C198.976 34.4033 199.016 34.2688 199.016 34.1154C199.016 33.9696 198.981 33.8417 198.911 33.7319C198.843 33.6201 198.746 33.533 198.621 33.4705C198.498 33.408 198.354 33.3768 198.189 33.3768C198.023 33.3768 197.87 33.4071 197.732 33.4677C197.594 33.5264 197.483 33.6107 197.399 33.7205C197.316 33.8304 197.272 33.9591 197.266 34.1069H196.087C196.093 33.7716 196.188 33.4762 196.374 33.2205C196.559 32.9648 196.809 32.765 197.124 32.6211C197.44 32.4752 197.797 32.4023 198.195 32.4023C198.596 32.4023 198.948 32.4752 199.249 32.6211C199.55 32.7669 199.784 32.9639 199.951 33.212C200.119 33.4582 200.202 33.7347 200.201 34.0415C200.202 34.3673 200.101 34.6391 199.897 34.8569C199.694 35.0747 199.43 35.2129 199.104 35.2716V35.3171C199.532 35.372 199.858 35.5207 200.081 35.7631C200.307 36.0036 200.418 36.3048 200.416 36.6665C200.418 36.998 200.323 37.2925 200.13 37.55C199.938 37.8076 199.674 38.0103 199.337 38.158C199 38.3057 198.613 38.3796 198.178 38.3796Z" fill="#805EE9"/>
<rect x="175.556" y="16.8" width="56" height="8" rx="1" stroke="#805EE9" stroke-linejoin="round"/>
<rect x="175.444" y="51.4985" width="50" height="2.8" fill="#805EE9" fill-opacity="0.4"/>
<rect x="175.444" y="56.2983" width="43" height="2.8" fill="#805EE9" fill-opacity="0.4"/>
<rect x="175.444" y="46.6987" width="50" height="2.8" fill="#805EE9" fill-opacity="0.4"/>
</svg>
