<svg width="253" height="96" viewBox="0 0 253 96" fill="none" xmlns="http://www.w3.org/2000/svg">
<circle cx="96.8438" cy="45.9678" r="25.0357" stroke="#805EE9"/>
<circle cx="96.8437" cy="45.9678" r="33.4853" stroke="#805EE9"/>
<circle cx="96.8438" cy="45.9678" r="17.1524" stroke="#805EE9"/>
<circle cx="96.8437" cy="45.9678" r="8.8325" fill="#805EE9"/>
<line x1="98.838" y1="45.4792" x2="143.469" y2="35.7697" stroke="#805EE9"/>
<rect x="147.867" y="44.2275" width="37.4681" height="2.45085" fill="#805EE9" fill-opacity="0.4"/>
<rect x="147.867" y="53.7031" width="37.4681" height="2.45085" fill="#805EE9" fill-opacity="0.4"/>
<rect x="147.867" y="49.1299" width="41.7749" height="2.45085" fill="#805EE9" fill-opacity="0.4"/>
<path d="M150.718 31.3038L152.625 34.5261H152.698L154.614 31.3038H156.872L153.986 36.031L156.936 40.7583H154.637L152.698 37.5314H152.625L150.686 40.7583H148.396L151.355 36.031L148.451 31.3038H150.718ZM163.256 38.9856V38.487C163.256 38.1084 163.336 37.7607 163.496 37.4437C163.66 37.1236 163.895 36.8681 164.203 36.6773C164.514 36.4834 164.892 36.3865 165.338 36.3865C165.791 36.3865 166.171 36.4819 166.479 36.6727C166.789 36.8635 167.023 37.119 167.18 37.4391C167.34 37.7561 167.42 38.1054 167.42 38.487V38.9856C167.42 39.3641 167.34 39.7134 167.18 40.0335C167.02 40.3505 166.785 40.6044 166.474 40.7952C166.163 40.9891 165.785 41.0861 165.338 41.0861C164.886 41.0861 164.506 40.9891 164.198 40.7952C163.89 40.6044 163.656 40.3505 163.496 40.0335C163.336 39.7134 163.256 39.3641 163.256 38.9856ZM164.6 38.487V38.9856C164.6 39.2041 164.652 39.4103 164.757 39.6042C164.864 39.7981 165.058 39.895 165.338 39.895C165.618 39.895 165.809 39.7996 165.911 39.6088C166.015 39.418 166.068 39.2102 166.068 38.9856V38.487C166.068 38.2623 166.019 38.053 165.92 37.8592C165.822 37.6653 165.628 37.5683 165.338 37.5683C165.061 37.5683 164.869 37.6653 164.761 37.8592C164.654 38.053 164.6 38.2623 164.6 38.487ZM158.404 33.5751V33.0765C158.404 32.6949 158.486 32.3455 158.649 32.0285C158.812 31.7085 159.048 31.453 159.355 31.2622C159.666 31.0714 160.042 30.976 160.482 30.976C160.937 30.976 161.319 31.0714 161.627 31.2622C161.934 31.453 162.168 31.7085 162.328 32.0285C162.488 32.3455 162.568 32.6949 162.568 33.0765V33.5751C162.568 33.9567 162.487 34.306 162.324 34.623C162.164 34.94 161.928 35.1939 161.617 35.3847C161.31 35.5725 160.931 35.6663 160.482 35.6663C160.033 35.6663 159.652 35.5709 159.342 35.3801C159.034 35.1862 158.8 34.9323 158.64 34.6184C158.483 34.3014 158.404 33.9536 158.404 33.5751ZM159.757 33.0765V33.5751C159.757 33.7997 159.809 34.0075 159.914 34.1983C160.022 34.3891 160.211 34.4845 160.482 34.4845C160.765 34.4845 160.957 34.3891 161.059 34.1983C161.164 34.0075 161.216 33.7997 161.216 33.5751V33.0765C161.216 32.8518 161.167 32.6425 161.068 32.4486C160.97 32.2547 160.774 32.1578 160.482 32.1578C160.208 32.1578 160.019 32.2563 159.914 32.4533C159.809 32.6502 159.757 32.858 159.757 33.0765ZM159.014 40.7583L165.514 31.3038H166.723L160.223 40.7583H159.014Z" fill="#805EE9"/>
</svg>
