<svg width="253" height="97" viewBox="0 0 253 97" fill="none" xmlns="http://www.w3.org/2000/svg">
<rect x="53.2544" y="23.4351" width="43.8315" height="50.4517" rx="1.5" stroke="#805EE9" stroke-opacity="0.4"/>
<rect x="63.3896" y="55.3276" width="23.3041" height="2.45085" fill="#805EE9" fill-opacity="0.4"/>
<rect x="63.3896" y="64.8032" width="23.3041" height="2.45085" fill="#805EE9" fill-opacity="0.4"/>
<rect x="62.0503" y="60.2295" width="25.9828" height="2.45085" fill="#805EE9" fill-opacity="0.4"/>
<path d="M67.6338 36.4981L69.5404 39.7204H69.6142L71.5301 36.4981H73.7875L70.9022 41.2254L73.8522 45.9526H71.5532L69.6142 42.7257H69.5404L67.6015 45.9526H65.3117L68.2708 41.2254L65.3671 36.4981H67.6338ZM80.1721 44.1799V43.6813C80.1721 43.3028 80.2521 42.955 80.4122 42.638C80.5753 42.3179 80.8107 42.0625 81.1185 41.8717C81.4293 41.6778 81.8079 41.5808 82.2542 41.5808C82.7066 41.5808 83.0867 41.6762 83.3944 41.8671C83.7053 42.0579 83.9392 42.3133 84.0961 42.6334C84.2562 42.9504 84.3362 43.2997 84.3362 43.6813V44.1799C84.3362 44.5585 84.2562 44.9078 84.0961 45.2278C83.9361 45.5448 83.7006 45.7988 83.3898 45.9896C83.079 46.1835 82.7004 46.2804 82.2542 46.2804C81.8017 46.2804 81.4216 46.1835 81.1139 45.9896C80.8061 45.7988 80.5722 45.5448 80.4122 45.2278C80.2521 44.9078 80.1721 44.5585 80.1721 44.1799ZM81.5155 43.6813V44.1799C81.5155 44.3984 81.5678 44.6046 81.6725 44.7985C81.7802 44.9924 81.9741 45.0894 82.2542 45.0894C82.5342 45.0894 82.725 44.9939 82.8266 44.8031C82.9312 44.6123 82.9836 44.4046 82.9836 44.1799V43.6813C82.9836 43.4567 82.9343 43.2474 82.8358 43.0535C82.7373 42.8596 82.5434 42.7627 82.2542 42.7627C81.9772 42.7627 81.7848 42.8596 81.6771 43.0535C81.5694 43.2474 81.5155 43.4567 81.5155 43.6813ZM75.3202 38.7694V38.2708C75.3202 37.8892 75.4018 37.5399 75.5649 37.2229C75.728 36.9028 75.9634 36.6474 76.2712 36.4565C76.582 36.2657 76.9575 36.1703 77.3976 36.1703C77.8531 36.1703 78.2347 36.2657 78.5425 36.4565C78.8503 36.6474 79.0842 36.9028 79.2442 37.2229C79.4042 37.5399 79.4843 37.8892 79.4843 38.2708V38.7694C79.4843 39.151 79.4027 39.5003 79.2396 39.8173C79.0796 40.1343 78.8441 40.3882 78.5333 40.5791C78.2255 40.7668 77.847 40.8607 77.3976 40.8607C76.9483 40.8607 76.5682 40.7653 76.2573 40.5744C75.9496 40.3805 75.7157 40.1266 75.5556 39.8127C75.3987 39.4957 75.3202 39.1479 75.3202 38.7694ZM76.6728 38.2708V38.7694C76.6728 38.9941 76.7251 39.2018 76.8298 39.3926C76.9375 39.5834 77.1268 39.6788 77.3976 39.6788C77.6808 39.6788 77.8731 39.5834 77.9747 39.3926C78.0793 39.2018 78.1316 38.9941 78.1316 38.7694V38.2708C78.1316 38.0461 78.0824 37.8369 77.9839 37.643C77.8854 37.4491 77.69 37.3521 77.3976 37.3521C77.1237 37.3521 76.9344 37.4506 76.8298 37.6476C76.7251 37.8446 76.6728 38.0523 76.6728 38.2708ZM75.9296 45.9526L82.4296 36.4981H83.6391L77.1391 45.9526H75.9296Z" fill="#805EE9"/>
<rect x="104.584" y="23.4351" width="43.8315" height="50.4517" rx="1.5" stroke="#805EE9" stroke-opacity="0.4"/>
<rect x="114.719" y="55.3276" width="23.3041" height="2.45085" fill="#805EE9" fill-opacity="0.4"/>
<rect x="114.719" y="64.8032" width="23.3041" height="2.45085" fill="#805EE9" fill-opacity="0.4"/>
<rect x="113.38" y="60.2295" width="25.9828" height="2.45085" fill="#805EE9" fill-opacity="0.4"/>
<path d="M118.963 36.4981L120.87 39.7204H120.944L122.86 36.4981H125.117L122.232 41.2254L125.182 45.9526H122.883L120.944 42.7257H120.87L118.931 45.9526H116.641L119.6 41.2254L116.697 36.4981H118.963ZM131.502 44.1799V43.6813C131.502 43.3028 131.582 42.955 131.742 42.638C131.905 42.3179 132.14 42.0625 132.448 41.8717C132.759 41.6778 133.137 41.5808 133.584 41.5808C134.036 41.5808 134.416 41.6762 134.724 41.8671C135.035 42.0579 135.269 42.3133 135.426 42.6334C135.586 42.9504 135.666 43.2997 135.666 43.6813V44.1799C135.666 44.5585 135.586 44.9078 135.426 45.2278C135.266 45.5448 135.03 45.7988 134.719 45.9896C134.409 46.1835 134.03 46.2804 133.584 46.2804C133.131 46.2804 132.751 46.1835 132.443 45.9896C132.136 45.7988 131.902 45.5448 131.742 45.2278C131.582 44.9078 131.502 44.5585 131.502 44.1799ZM132.845 43.6813V44.1799C132.845 44.3984 132.897 44.6046 133.002 44.7985C133.11 44.9924 133.304 45.0894 133.584 45.0894C133.864 45.0894 134.055 44.9939 134.156 44.8031C134.261 44.6123 134.313 44.4046 134.313 44.1799V43.6813C134.313 43.4567 134.264 43.2474 134.165 43.0535C134.067 42.8596 133.873 42.7627 133.584 42.7627C133.307 42.7627 133.114 42.8596 133.007 43.0535C132.899 43.2474 132.845 43.4567 132.845 43.6813ZM126.65 38.7694V38.2708C126.65 37.8892 126.731 37.5399 126.894 37.2229C127.058 36.9028 127.293 36.6474 127.601 36.4565C127.912 36.2657 128.287 36.1703 128.727 36.1703C129.183 36.1703 129.564 36.2657 129.872 36.4565C130.18 36.6474 130.414 36.9028 130.574 37.2229C130.734 37.5399 130.814 37.8892 130.814 38.2708V38.7694C130.814 39.151 130.732 39.5003 130.569 39.8173C130.409 40.1343 130.174 40.3882 129.863 40.5791C129.555 40.7668 129.177 40.8607 128.727 40.8607C128.278 40.8607 127.898 40.7653 127.587 40.5744C127.279 40.3805 127.045 40.1266 126.885 39.8127C126.728 39.4957 126.65 39.1479 126.65 38.7694ZM128.002 38.2708V38.7694C128.002 38.9941 128.055 39.2018 128.159 39.3926C128.267 39.5834 128.456 39.6788 128.727 39.6788C129.01 39.6788 129.203 39.5834 129.304 39.3926C129.409 39.2018 129.461 38.9941 129.461 38.7694V38.2708C129.461 38.0461 129.412 37.8369 129.313 37.643C129.215 37.4491 129.02 37.3521 128.727 37.3521C128.453 37.3521 128.264 37.4506 128.159 37.6476C128.055 37.8446 128.002 38.0523 128.002 38.2708ZM127.259 45.9526L133.759 36.4981H134.969L128.469 45.9526H127.259Z" fill="#805EE9"/>
<rect x="155.914" y="23.4351" width="43.8315" height="50.4517" rx="1.5" stroke="#805EE9" stroke-opacity="0.4"/>
<rect x="166.049" y="55.3276" width="23.3041" height="2.45085" fill="#805EE9" fill-opacity="0.4"/>
<rect x="166.049" y="64.8032" width="23.3041" height="2.45085" fill="#805EE9" fill-opacity="0.4"/>
<rect x="164.71" y="60.2295" width="25.9828" height="2.45085" fill="#805EE9" fill-opacity="0.4"/>
<path d="M170.293 36.4981L172.2 39.7204H172.274L174.189 36.4981H176.447L173.562 41.2254L176.512 45.9526H174.213L172.274 42.7257H172.2L170.261 45.9526H167.971L170.93 41.2254L168.027 36.4981H170.293ZM182.832 44.1799V43.6813C182.832 43.3028 182.912 42.955 183.072 42.638C183.235 42.3179 183.47 42.0625 183.778 41.8717C184.089 41.6778 184.467 41.5808 184.914 41.5808C185.366 41.5808 185.746 41.6762 186.054 41.8671C186.365 42.0579 186.599 42.3133 186.756 42.6334C186.916 42.9504 186.996 43.2997 186.996 43.6813V44.1799C186.996 44.5585 186.916 44.9078 186.756 45.2278C186.596 45.5448 186.36 45.7988 186.049 45.9896C185.738 46.1835 185.36 46.2804 184.914 46.2804C184.461 46.2804 184.081 46.1835 183.773 45.9896C183.466 45.7988 183.232 45.5448 183.072 45.2278C182.912 44.9078 182.832 44.5585 182.832 44.1799ZM184.175 43.6813V44.1799C184.175 44.3984 184.227 44.6046 184.332 44.7985C184.44 44.9924 184.634 45.0894 184.914 45.0894C185.194 45.0894 185.384 44.9939 185.486 44.8031C185.591 44.6123 185.643 44.4046 185.643 44.1799V43.6813C185.643 43.4567 185.594 43.2474 185.495 43.0535C185.397 42.8596 185.203 42.7627 184.914 42.7627C184.637 42.7627 184.444 42.8596 184.337 43.0535C184.229 43.2474 184.175 43.4567 184.175 43.6813ZM177.98 38.7694V38.2708C177.98 37.8892 178.061 37.5399 178.224 37.2229C178.387 36.9028 178.623 36.6474 178.931 36.4565C179.241 36.2657 179.617 36.1703 180.057 36.1703C180.513 36.1703 180.894 36.2657 181.202 36.4565C181.51 36.6474 181.744 36.9028 181.904 37.2229C182.064 37.5399 182.144 37.8892 182.144 38.2708V38.7694C182.144 39.151 182.062 39.5003 181.899 39.8173C181.739 40.1343 181.504 40.3882 181.193 40.5791C180.885 40.7668 180.506 40.8607 180.057 40.8607C179.608 40.8607 179.228 40.7653 178.917 40.5744C178.609 40.3805 178.375 40.1266 178.215 39.8127C178.058 39.4957 177.98 39.1479 177.98 38.7694ZM179.332 38.2708V38.7694C179.332 38.9941 179.385 39.2018 179.489 39.3926C179.597 39.5834 179.786 39.6788 180.057 39.6788C180.34 39.6788 180.533 39.5834 180.634 39.3926C180.739 39.2018 180.791 38.9941 180.791 38.7694V38.2708C180.791 38.0461 180.742 37.8369 180.643 37.643C180.545 37.4491 180.349 37.3521 180.057 37.3521C179.783 37.3521 179.594 37.4506 179.489 37.6476C179.385 37.8446 179.332 38.0523 179.332 38.2708ZM178.589 45.9526L185.089 36.4981H186.299L179.799 45.9526H178.589Z" fill="#805EE9"/>
</svg>
