<svg width="253" height="110" viewBox="0 0 253 110" fill="none" xmlns="http://www.w3.org/2000/svg">
<rect x="34.4678" y="9.625" width="86.6852" height="41.54" rx="1.5" stroke="#805EE9" stroke-opacity="0.4"/>
<rect x="34.4678" y="58.8184" width="86.6852" height="41.54" rx="1.5" stroke="#805EE9" stroke-opacity="0.4"/>
<rect x="42.3291" y="16.4175" width="57.9008" height="7.2693" fill="#805EE9" fill-opacity="0.4"/>
<rect x="42.3291" y="29.8345" width="68" height="2.90772" fill="#805EE9" fill-opacity="0.4"/>
<rect x="42.3291" y="35.6499" width="68" height="2.90772" fill="#805EE9" fill-opacity="0.4"/>
<rect x="42.3291" y="41.4653" width="51.2199" height="2.90772" fill="#805EE9" fill-opacity="0.4"/>
<rect x="42.3291" y="65.6108" width="57.9008" height="7.2693" fill="#805EE9" fill-opacity="0.4"/>
<rect x="42.3291" y="79.0278" width="68" height="2.90772" fill="#805EE9" fill-opacity="0.4"/>
<rect x="42.3291" y="84.8433" width="68" height="2.90772" fill="#805EE9" fill-opacity="0.4"/>
<rect x="42.3291" y="90.6587" width="51.2199" height="2.90772" fill="#805EE9" fill-opacity="0.4"/>
<rect x="131.847" y="9.625" width="86.6852" height="41.54" rx="1.5" stroke="#805EE9" stroke-opacity="0.4"/>
<rect x="131.847" y="58.8184" width="86.6852" height="41.54" rx="1.5" stroke="#805EE9" stroke-opacity="0.4"/>
<rect x="139.708" y="16.4175" width="57.9008" height="7.2693" fill="#805EE9" fill-opacity="0.4"/>
<rect x="139.708" y="29.8345" width="68" height="2.90772" fill="#805EE9" fill-opacity="0.4"/>
<rect x="139.708" y="35.6499" width="68" height="2.90772" fill="#805EE9" fill-opacity="0.4"/>
<rect x="139.708" y="41.4653" width="51.2199" height="2.90772" fill="#805EE9" fill-opacity="0.4"/>
<rect x="139.708" y="65.6108" width="57.9008" height="7.2693" fill="#805EE9" fill-opacity="0.4"/>
<rect x="139.708" y="79.0278" width="68" height="2.90772" fill="#805EE9" fill-opacity="0.4"/>
<rect x="139.708" y="84.8433" width="68" height="2.90772" fill="#805EE9" fill-opacity="0.4"/>
<rect x="139.708" y="90.6587" width="51.2199" height="2.90772" fill="#805EE9" fill-opacity="0.4"/>
</svg>
