<svg width="253" height="111" viewBox="0 0 253 111" fill="none" xmlns="http://www.w3.org/2000/svg">
<rect x="83.5718" y="34.998" width="102.568" height="2.82209" fill="#805EE9" fill-opacity="0.4"/>
<rect x="83.5718" y="19.3286" width="77.8472" height="6.51717" fill="#805EE9" fill-opacity="0.4"/>
<rect x="83.5718" y="29.146" width="105.926" height="2.82209" fill="#805EE9" fill-opacity="0.4"/>
<rect x="83.5718" y="64.0776" width="102.568" height="2.82209" fill="#805EE9" fill-opacity="0.4"/>
<rect x="83.5718" y="93.1572" width="102.568" height="2.82209" fill="#805EE9" fill-opacity="0.4"/>
<rect x="83.5718" y="48.4082" width="77.8472" height="6.51717" fill="#805EE9" fill-opacity="0.4"/>
<rect x="83.5718" y="77.4878" width="77.8472" height="6.51717" fill="#805EE9" fill-opacity="0.4"/>
<rect x="83.5718" y="58.2256" width="105.926" height="2.82209" fill="#805EE9" fill-opacity="0.4"/>
<rect x="83.5718" y="87.3052" width="105.926" height="2.82209" fill="#805EE9" fill-opacity="0.4"/>
<path d="M70.1216 10.625L70.1216 100.325" stroke="#805EE9" stroke-opacity="0.4" stroke-linejoin="round"/>
<rect width="13" height="13" rx="2" transform="matrix(1 0 0 -1 63.8203 61.4082)" fill="#F9F6F6" stroke="#805EE9" stroke-linejoin="round"/>
<path d="M68.1266 58.1611V57.2748L70.1976 55.3572C70.3738 55.1867 70.5215 55.0333 70.6408 54.8969C70.762 54.7606 70.8539 54.627 70.9164 54.4964C70.9789 54.3638 71.0101 54.2208 71.0101 54.0674C71.0101 53.8969 70.9713 53.7501 70.8937 53.627C70.816 53.502 70.71 53.4064 70.5755 53.3401C70.441 53.2719 70.2886 53.2378 70.1181 53.2378C69.9401 53.2378 69.7848 53.2738 69.6522 53.3458C69.5196 53.4178 69.4173 53.521 69.3454 53.6555C69.2734 53.7899 69.2374 53.95 69.2374 54.1356H68.0698C68.0698 53.7549 68.156 53.4244 68.3283 53.1441C68.5007 52.8638 68.7422 52.6469 69.0528 52.4935C69.3634 52.3401 69.7213 52.2634 70.1266 52.2634C70.5433 52.2634 70.906 52.3373 71.2147 52.485C71.5253 52.6308 71.7668 52.8335 71.9391 53.093C72.1115 53.3524 72.1976 53.6498 72.1976 53.985C72.1976 54.2047 72.1541 54.4215 72.067 54.6356C71.9817 54.8496 71.8293 55.0873 71.6096 55.3486C71.3899 55.6081 71.0802 55.9197 70.6806 56.2833L69.8312 57.1157V57.1555H72.2743V58.1611H68.1266Z" fill="#805EE9"/>
<rect x="63.8203" y="77.4878" width="13" height="13" rx="2" fill="#F9F6F6" stroke="#805EE9" stroke-linejoin="round"/>
<path d="M70.16 87.3203C69.7358 87.3203 69.3579 87.2474 69.0265 87.1015C68.6969 86.9538 68.4365 86.7511 68.2452 86.4936C68.0558 86.2341 67.9583 85.9349 67.9526 85.5958H69.1913C69.1988 85.7379 69.2452 85.8629 69.3305 85.9708C69.4176 86.0769 69.5331 86.1593 69.677 86.218C69.821 86.2767 69.9829 86.3061 70.1628 86.3061C70.3503 86.3061 70.5161 86.2729 70.66 86.2066C70.8039 86.1403 70.9166 86.0485 70.9981 85.9311C71.0795 85.8136 71.1202 85.6782 71.1202 85.5248C71.1202 85.3695 71.0767 85.2322 70.9895 85.1129C70.9043 84.9917 70.7812 84.897 70.6202 84.8288C70.4611 84.7606 70.2717 84.7265 70.052 84.7265H69.5094V83.8231H70.052C70.2377 83.8231 70.4015 83.7909 70.5435 83.7265C70.6875 83.6621 70.7992 83.5731 70.8788 83.4595C70.9583 83.3439 70.9981 83.2095 70.9981 83.0561C70.9981 82.9102 70.963 82.7824 70.893 82.6725C70.8248 82.5608 70.7282 82.4737 70.6032 82.4112C70.4801 82.3487 70.3361 82.3174 70.1714 82.3174C70.0047 82.3174 69.8522 82.3477 69.714 82.4083C69.5757 82.467 69.4649 82.5513 69.3816 82.6612C69.2983 82.771 69.2538 82.8998 69.2481 83.0475H68.0691C68.0748 82.7123 68.1704 82.4169 68.356 82.1612C68.5416 81.9055 68.7916 81.7057 69.106 81.5617C69.4223 81.4159 69.7793 81.343 70.177 81.343C70.5786 81.343 70.9299 81.4159 71.231 81.5617C71.5322 81.7076 71.7661 81.9045 71.9327 82.1527C72.1013 82.3989 72.1846 82.6754 72.1827 82.9822C72.1846 83.308 72.0833 83.5797 71.8788 83.7975C71.6761 84.0153 71.4119 84.1536 71.0861 84.2123V84.2578C71.5142 84.3127 71.8399 84.4614 72.0634 84.7038C72.2888 84.9443 72.4005 85.2455 72.3986 85.6072C72.4005 85.9386 72.3049 86.2331 72.1117 86.4907C71.9204 86.7483 71.6562 86.9509 71.3191 87.0987C70.982 87.2464 70.5956 87.3203 70.16 87.3203Z" fill="#805EE9"/>
<rect x="63.8203" y="19.3286" width="13" height="13" rx="2" fill="#F9F6F6" stroke="#805EE9" stroke-linejoin="round"/>
<path d="M71.2204 23.2634V29.0815H69.9903V24.431H69.9562L68.6238 25.2662V24.1753L70.0641 23.2634H71.2204Z" fill="#805EE9"/>
</svg>
