<svg width="253" height="151" viewBox="0 0 253 151" fill="none" xmlns="http://www.w3.org/2000/svg">
<rect x="154.921" y="33.4111" width="65.2865" height="2.82209" fill="#805EE9" fill-opacity="0.4"/>
<rect x="33.4688" y="62.4907" width="65.2865" height="2.82209" fill="#805EE9" fill-opacity="0.4"/>
<rect x="154.921" y="91.5703" width="65.2865" height="2.82209" fill="#805EE9" fill-opacity="0.4"/>
<rect x="33.4688" y="120.65" width="65.2865" height="2.82209" fill="#805EE9" fill-opacity="0.4"/>
<rect x="154.921" y="39.2632" width="55.6757" height="2.82209" fill="#805EE9" fill-opacity="0.4"/>
<rect x="43.0796" y="68.3428" width="55.6757" height="2.82209" fill="#805EE9" fill-opacity="0.4"/>
<rect x="154.921" y="97.4224" width="55.6757" height="2.82209" fill="#805EE9" fill-opacity="0.4"/>
<rect x="43.0796" y="126.502" width="55.6757" height="2.82209" fill="#805EE9" fill-opacity="0.4"/>
<rect x="154.921" y="17.7417" width="48.442" height="6.51717" fill="#805EE9" fill-opacity="0.4"/>
<rect x="50.3132" y="46.8213" width="48.442" height="6.51717" fill="#805EE9" fill-opacity="0.4"/>
<rect x="154.921" y="75.9009" width="48.442" height="6.51717" fill="#805EE9" fill-opacity="0.4"/>
<rect x="50.3132" y="104.98" width="48.442" height="6.51717" fill="#805EE9" fill-opacity="0.4"/>
<rect x="154.921" y="27.5591" width="65.2865" height="2.82209" fill="#805EE9" fill-opacity="0.4"/>
<rect x="33.4688" y="56.6387" width="65.2865" height="2.82209" fill="#805EE9" fill-opacity="0.4"/>
<rect x="154.921" y="85.7183" width="65.2865" height="2.82209" fill="#805EE9" fill-opacity="0.4"/>
<rect x="33.4688" y="114.798" width="65.2865" height="2.82209" fill="#805EE9" fill-opacity="0.4"/>
<path d="M127.007 9.03809L127.007 136.205" stroke="#805EE9" stroke-opacity="0.4" stroke-linejoin="round"/>
<rect width="9" height="9" rx="2" transform="matrix(1 0 0 -1 122.507 54.8213)" fill="#F9F6F6" stroke="#805EE9" stroke-linejoin="round"/>
<rect x="122.507" y="74.9009" width="9" height="9" rx="2" fill="#F9F6F6" stroke="#805EE9" stroke-linejoin="round"/>
<rect x="122.507" y="103.98" width="9" height="9" rx="2" fill="#F9F6F6" stroke="#805EE9" stroke-linejoin="round"/>
<rect x="122.507" y="16.7417" width="9" height="9" rx="2" fill="#F9F6F6" stroke="#805EE9" stroke-linejoin="round"/>
<line x1="131.507" y1="21.1692" x2="149.318" y2="21.1692" stroke="#805EE9" stroke-linejoin="round"/>
<line x1="131.507" y1="79.3135" x2="149.318" y2="79.3135" stroke="#805EE9" stroke-linejoin="round"/>
<line x1="104.697" y1="50.5574" x2="122.507" y2="50.5574" stroke="#805EE9" stroke-linejoin="round"/>
<line x1="104.697" y1="107.98" x2="122.507" y2="107.98" stroke="#805EE9" stroke-linejoin="round"/>
</svg>
