<svg width="253" height="97" viewBox="0 0 253 97" fill="none" xmlns="http://www.w3.org/2000/svg">
<rect x="17.1094" y="63.9775" width="30.4222" height="2.82209" fill="#805EE9" fill-opacity="0.4"/>
<rect x="64.1387" y="63.9775" width="30.4222" height="2.82209" fill="#805EE9" fill-opacity="0.4"/>
<rect x="111.743" y="63.9775" width="30.4222" height="2.82209" fill="#805EE9" fill-opacity="0.4"/>
<rect x="158.492" y="63.9775" width="30.4222" height="2.82209" fill="#805EE9" fill-opacity="0.4"/>
<rect x="205.742" y="63.9775" width="30.4222" height="2.82209" fill="#805EE9" fill-opacity="0.4"/>
<rect x="14.8206" y="46.9541" width="35" height="6.51717" fill="#805EE9" fill-opacity="0.4"/>
<rect x="61.8499" y="46.9541" width="35" height="6.51717" fill="#805EE9" fill-opacity="0.4"/>
<rect x="109.454" y="46.9541" width="35" height="6.51717" fill="#805EE9" fill-opacity="0.4"/>
<rect x="156.204" y="46.9541" width="35" height="6.51717" fill="#805EE9" fill-opacity="0.4"/>
<rect x="203.453" y="46.9541" width="35" height="6.51717" fill="#805EE9" fill-opacity="0.4"/>
<rect x="17.1082" y="58.1255" width="30.4248" height="2.82209" fill="#805EE9" fill-opacity="0.4"/>
<rect x="64.1375" y="58.1255" width="30.4248" height="2.82209" fill="#805EE9" fill-opacity="0.4"/>
<rect x="111.741" y="58.1255" width="30.4248" height="2.82209" fill="#805EE9" fill-opacity="0.4"/>
<rect x="158.491" y="58.1255" width="30.4248" height="2.82209" fill="#805EE9" fill-opacity="0.4"/>
<rect x="205.741" y="58.1255" width="30.4248" height="2.82209" fill="#805EE9" fill-opacity="0.4"/>
<rect x="20.7925" y="69.8296" width="23.0563" height="2.82209" fill="#805EE9" fill-opacity="0.4"/>
<rect x="67.8218" y="69.8296" width="23.0563" height="2.82209" fill="#805EE9" fill-opacity="0.4"/>
<rect x="115.426" y="69.8296" width="23.0563" height="2.82209" fill="#805EE9" fill-opacity="0.4"/>
<rect x="162.175" y="69.8296" width="23.0563" height="2.82209" fill="#805EE9" fill-opacity="0.4"/>
<rect x="209.425" y="69.8296" width="23.0563" height="2.82209" fill="#805EE9" fill-opacity="0.4"/>
<path d="M11.0015 33.9097L239.906 33.6763" stroke="#805EE9" stroke-opacity="0.4" stroke-linejoin="round"/>
<rect width="13" height="13" rx="2" transform="matrix(1 0 0 -1 167.349 40.1763)" fill="#F9F6F6" stroke="#805EE9" stroke-linejoin="round"/>
<path d="M171.376 35.9065V34.9377L173.805 31.111H174.64V32.4519H174.146L172.615 34.8752V34.9207H176.066V35.9065H171.376ZM174.169 36.9292V35.611L174.191 35.182V31.111H175.345V36.9292H174.169Z" fill="#805EE9"/>
<rect width="13" height="13" rx="2" transform="matrix(1 0 0 -1 72.8499 40.1763)" fill="#F9F6F6" stroke="#805EE9" stroke-linejoin="round"/>
<path d="M77.1562 36.9292V36.0428L79.2272 34.1252C79.4033 33.9548 79.551 33.8014 79.6704 33.665C79.7916 33.5286 79.8834 33.3951 79.9459 33.2644C80.0084 33.1319 80.0397 32.9889 80.0397 32.8354C80.0397 32.665 80.0009 32.5182 79.9232 32.3951C79.8456 32.2701 79.7395 32.1745 79.605 32.1082C79.4706 32.04 79.3181 32.0059 79.1476 32.0059C78.9696 32.0059 78.8143 32.0419 78.6817 32.1139C78.5492 32.1858 78.4469 32.289 78.3749 32.4235C78.3029 32.558 78.267 32.718 78.267 32.9036H77.0993C77.0993 32.5229 77.1855 32.1925 77.3579 31.9122C77.5302 31.6319 77.7717 31.415 78.0823 31.2616C78.3929 31.1082 78.7509 31.0315 79.1562 31.0315C79.5728 31.0315 79.9355 31.1053 80.2442 31.2531C80.5548 31.3989 80.7963 31.6015 80.9687 31.861C81.141 32.1205 81.2272 32.4178 81.2272 32.7531C81.2272 32.9728 81.1836 33.1896 81.0965 33.4036C81.0113 33.6176 80.8588 33.8553 80.6391 34.1167C80.4194 34.3762 80.1098 34.6877 79.7101 35.0514L78.8607 35.8837V35.9235H81.3039V36.9292H77.1562Z" fill="#805EE9"/>
<rect x="214.599" y="27.1763" width="13" height="13" rx="2" fill="#F9F6F6" stroke="#805EE9" stroke-linejoin="round"/>
<path d="M220.972 37.0087C220.57 37.0087 220.212 36.9349 219.898 36.7872C219.585 36.6394 219.337 36.4358 219.153 36.1764C218.97 35.9169 218.874 35.6195 218.866 35.2843H220.06C220.073 35.5097 220.168 35.6925 220.344 35.8326C220.52 35.9728 220.729 36.0428 220.972 36.0428C221.165 36.0428 221.335 36.0002 221.483 35.915C221.633 35.8279 221.749 35.7076 221.832 35.5542C221.918 35.3989 221.96 35.2209 221.96 35.0201C221.96 34.8156 221.917 34.6356 221.83 34.4803C221.744 34.325 221.626 34.2038 221.474 34.1167C221.323 34.0296 221.15 33.9851 220.955 33.9832C220.784 33.9832 220.618 34.0182 220.457 34.0883C220.298 34.1584 220.174 34.254 220.085 34.3752L218.991 34.1792L219.267 31.111H222.824V32.1167H220.281L220.131 33.5741H220.165C220.267 33.4301 220.421 33.3108 220.628 33.2161C220.834 33.1214 221.065 33.0741 221.321 33.0741C221.671 33.0741 221.984 33.1565 222.259 33.3212C222.533 33.486 222.75 33.7123 222.909 34.0002C223.068 34.2862 223.147 34.6158 223.145 34.9889C223.147 35.3809 223.056 35.7294 222.872 36.0343C222.69 36.3373 222.436 36.576 222.108 36.7502C221.782 36.9226 221.403 37.0087 220.972 37.0087Z" fill="#805EE9"/>
<rect x="120.454" y="27.1763" width="13" height="13" rx="2" fill="#F9F6F6" stroke="#805EE9" stroke-linejoin="round"/>
<path d="M126.793 37.0087C126.369 37.0087 125.991 36.9358 125.66 36.79C125.33 36.6423 125.07 36.4396 124.879 36.182C124.689 35.9226 124.592 35.6233 124.586 35.2843H125.825C125.832 35.4264 125.879 35.5514 125.964 35.6593C126.051 35.7654 126.166 35.8478 126.31 35.9065C126.454 35.9652 126.616 35.9945 126.796 35.9945C126.984 35.9945 127.149 35.9614 127.293 35.8951C127.437 35.8288 127.55 35.737 127.631 35.6195C127.713 35.5021 127.754 35.3667 127.754 35.2133C127.754 35.058 127.71 34.9207 127.623 34.8014C127.538 34.6801 127.415 34.5854 127.254 34.5173C127.094 34.4491 126.905 34.415 126.685 34.415H126.143V33.5116H126.685C126.871 33.5116 127.035 33.4794 127.177 33.415C127.321 33.3506 127.433 33.2616 127.512 33.1479C127.592 33.0324 127.631 32.8979 127.631 32.7445C127.631 32.5987 127.596 32.4709 127.526 32.361C127.458 32.2493 127.361 32.1622 127.236 32.0997C127.113 32.0372 126.969 32.0059 126.805 32.0059C126.638 32.0059 126.486 32.0362 126.347 32.0968C126.209 32.1555 126.098 32.2398 126.015 32.3497C125.932 32.4595 125.887 32.5883 125.881 32.736H124.702C124.708 32.4008 124.804 32.1053 124.989 31.8497C125.175 31.594 125.425 31.3942 125.739 31.2502C126.056 31.1044 126.413 31.0315 126.81 31.0315C127.212 31.0315 127.563 31.1044 127.864 31.2502C128.165 31.3961 128.399 31.593 128.566 31.8411C128.735 32.0873 128.818 32.3639 128.816 32.6707C128.818 32.9964 128.717 33.2682 128.512 33.486C128.309 33.7038 128.045 33.8421 127.719 33.9008V33.9462C128.147 34.0012 128.473 34.1498 128.697 34.3923C128.922 34.6328 129.034 34.9339 129.032 35.2957C129.034 35.6271 128.938 35.9216 128.745 36.1792C128.554 36.4368 128.29 36.6394 127.952 36.7872C127.615 36.9349 127.229 37.0087 126.793 37.0087Z" fill="#805EE9"/>
<rect x="25.9663" y="27.1763" width="13" height="13" rx="2" fill="#F9F6F6" stroke="#805EE9" stroke-linejoin="round"/>
<path d="M33.3664 31.111V36.9292H32.1363V32.2786H32.1022L30.7698 33.1139V32.0229L32.2101 31.111H33.3664Z" fill="#805EE9"/>
</svg>
