<svg width="253" height="97" viewBox="0 0 253 97" fill="none" xmlns="http://www.w3.org/2000/svg">
<path d="M22.5088 49.7625H230.491" stroke="#805EE9" stroke-opacity="0.4" stroke-linejoin="round"/>
<line y1="-0.5" x2="16.5742" y2="-0.5" transform="matrix(4.37114e-08 -1 -1 -4.37114e-08 164.365 64.1931)" stroke="#805EE9" stroke-linejoin="round"/>
<rect width="6" height="6" rx="2" transform="matrix(1 0 0 -1 161.763 52.6458)" fill="#F9F6F6" stroke="#805EE9" stroke-linejoin="round"/>
<rect x="73.2981" y="75.4788" width="30.4222" height="2.82209" fill="#805EE9" fill-opacity="0.4"/>
<rect x="34.4348" y="22.6301" width="30.4222" height="2.82209" fill="#805EE9" fill-opacity="0.4"/>
<rect x="73.2966" y="69.6272" width="30.4248" height="2.82209" fill="#805EE9" fill-opacity="0.4"/>
<rect x="34.4336" y="16.7786" width="30.4248" height="2.82209" fill="#805EE9" fill-opacity="0.4"/>
<rect x="76.981" y="81.3313" width="23.0563" height="2.82209" fill="#805EE9" fill-opacity="0.4"/>
<rect x="38.1179" y="28.4827" width="23.0563" height="2.82209" fill="#805EE9" fill-opacity="0.4"/>
<rect x="149.552" y="75.4788" width="30.4222" height="2.82209" fill="#805EE9" fill-opacity="0.4"/>
<rect x="110.688" y="22.6301" width="30.4222" height="2.82209" fill="#805EE9" fill-opacity="0.4"/>
<rect x="187.815" y="22.6296" width="30.4222" height="2.82209" fill="#805EE9" fill-opacity="0.4"/>
<rect x="149.55" y="69.6272" width="30.4248" height="2.82209" fill="#805EE9" fill-opacity="0.4"/>
<rect x="110.687" y="16.7786" width="30.4248" height="2.82209" fill="#805EE9" fill-opacity="0.4"/>
<rect x="187.813" y="16.7781" width="30.4248" height="2.82209" fill="#805EE9" fill-opacity="0.4"/>
<rect x="153.235" y="81.3313" width="23.0563" height="2.82209" fill="#805EE9" fill-opacity="0.4"/>
<rect x="114.372" y="28.4827" width="23.0563" height="2.82209" fill="#805EE9" fill-opacity="0.4"/>
<rect x="191.498" y="28.4822" width="23.0563" height="2.82209" fill="#805EE9" fill-opacity="0.4"/>
<line y1="-0.5" x2="16.5742" y2="-0.5" transform="matrix(4.37114e-08 -1 -1 -4.37114e-08 87.7729 64.2966)" stroke="#805EE9" stroke-linejoin="round"/>
<rect width="6" height="6" rx="2" transform="matrix(1 0 0 -1 85.2373 52.6458)" fill="#F9F6F6" stroke="#805EE9" stroke-linejoin="round"/>
<line x1="203.156" y1="35.0994" x2="203.156" y2="51.6736" stroke="#805EE9" stroke-linejoin="round"/>
<rect x="200.026" y="46.6462" width="6" height="6" rx="2" fill="#F9F6F6" stroke="#805EE9" stroke-linejoin="round"/>
<line x1="126.337" y1="35.0994" x2="126.337" y2="51.6736" stroke="#805EE9" stroke-linejoin="round"/>
<rect x="123.5" y="46.6462" width="6" height="6" rx="2" fill="#F9F6F6" stroke="#805EE9" stroke-linejoin="round"/>
<line x1="50.1677" y1="35.0994" x2="50.1677" y2="51.6736" stroke="#805EE9" stroke-linejoin="round"/>
<rect x="46.9744" y="46.6462" width="6" height="6" rx="2" fill="#F9F6F6" stroke="#805EE9" stroke-linejoin="round"/>
</svg>
