<svg width="800" height="800" viewBox="0 0 800 800" fill="none" xmlns="http://www.w3.org/2000/svg">
    <path
        d="M378.956 1.47659C481.74 -6.98584 555.56 20.2941 634.989 99.6761C720.744 185.38 777.757 296.445 793.122 414.753C810.216 546.32 786.703 644.501 714.284 716.381C645.035 785.113 543.888 807.785 408.771 796.489L403.177 795.998C288.119 785.419 206.737 747.696 127.885 667.837C43.6594 582.536 -0.723111 485.685 1.64686 384.032C2.80604 334.267 16.9032 291.853 44.0903 250.238C61.9138 222.955 80.0148 201.673 117.878 162.642L130.514 149.699L144.443 135.58C234.176 45.3833 293.252 8.53286 378.956 1.47659Z"
        fill="#262627" />
    <path d="M521.352 290.709V332.916H431.71V574.824H387.058V332.916H297.416V290.709H521.352Z"
        fill="white" />
</svg>