<svg width="254" height="96" viewBox="0 0 254 96" fill="none" xmlns="http://www.w3.org/2000/svg">
<path d="M107.122 51.3237H105.655L107.89 44.8499H109.654L111.886 51.3237H110.419L108.797 46.3292H108.747L107.122 51.3237ZM107.03 48.7791H110.495V49.8475H107.03V48.7791Z" fill="#805EE9"/>
<path d="M142.612 51.3237V44.8499H145.204C145.68 44.8499 146.077 44.9205 146.396 45.0617C146.714 45.2028 146.953 45.3988 147.113 45.6496C147.273 45.8983 147.353 46.1849 147.353 46.5094C147.353 46.7623 147.303 46.9846 147.202 47.1764C147.101 47.3661 146.961 47.522 146.784 47.6442C146.61 47.7644 146.409 47.8497 146.184 47.9003V47.9635C146.43 47.9741 146.661 48.0436 146.876 48.1721C147.093 48.3007 147.269 48.4809 147.404 48.7127C147.539 48.9424 147.606 49.2164 147.606 49.5346C147.606 49.8781 147.521 50.1847 147.35 50.4544C147.182 50.7221 146.932 50.9339 146.601 51.0898C146.27 51.2458 145.862 51.3237 145.378 51.3237H142.612ZM143.981 50.2047H145.096C145.478 50.2047 145.756 50.132 145.931 49.9866C146.106 49.8391 146.193 49.6431 146.193 49.3986C146.193 49.2195 146.15 49.0615 146.064 48.9245C145.977 48.7875 145.854 48.68 145.694 48.6021C145.536 48.5241 145.347 48.4851 145.128 48.4851H143.981V50.2047ZM143.981 47.5589H144.995C145.183 47.5589 145.349 47.5262 145.495 47.4609C145.642 47.3935 145.758 47.2986 145.842 47.1764C145.929 47.0542 145.972 46.9077 145.972 46.737C145.972 46.5031 145.889 46.3145 145.722 46.1712C145.558 46.0279 145.324 45.9562 145.021 45.9562H143.981V47.5589Z" fill="#805EE9"/>
<circle cx="109.724" cy="48" r="25.0357" stroke="#805EE9" stroke-width="2.22539"/>
<circle cx="144.217" cy="48" r="25.0357" stroke="#805EE9" stroke-width="2.22539"/>
<line x1="121.715" y1="38.7763" x2="135.068" y2="47.6779" stroke="#805EE9" stroke-width="1.1127"/>
<line x1="120.442" y1="40.8592" x2="134.509" y2="50.1327" stroke="#805EE9" stroke-width="1.1127"/>
<line x1="120.008" y1="43.5064" x2="134.028" y2="52.6826" stroke="#805EE9" stroke-width="1.1127"/>
<line x1="119.756" y1="45.9875" x2="133.108" y2="54.8891" stroke="#805EE9" stroke-width="1.1127"/>
<line x1="119.49" y1="48.6064" x2="132.842" y2="57.508" stroke="#805EE9" stroke-width="1.1127"/>
<line x1="118.985" y1="51.2856" x2="132.338" y2="60.1872" stroke="#805EE9" stroke-width="1.1127"/>
<line x1="119.304" y1="54.354" x2="130.803" y2="62.0198" stroke="#805EE9" stroke-width="1.1127"/>
<line x1="121.41" y1="58.4587" x2="129.254" y2="63.7752" stroke="#805EE9" stroke-width="1.1127"/>
<line x1="121.715" y1="35.8235" x2="135.068" y2="44.725" stroke="#805EE9" stroke-width="1.1127"/>
<line x1="124.018" y1="34.5566" x2="134.032" y2="41.2328" stroke="#805EE9" stroke-width="1.1127"/>
<line x1="125.054" y1="32.3313" x2="131.73" y2="36.7821" stroke="#805EE9" stroke-width="1.1127"/>
</svg>
